<?xml version="1.0" standalone="no"?>
<!DOCTYPE svg PUBLIC "-//W3C//DTD SVG 1.1//EN" "http://www.w3.org/Graphics/SVG/1.1/DTD/svg11.dtd" >
<svg xmlns="http://www.w3.org/2000/svg">
<metadata></metadata>
<defs>
<font id="exoextralight" horiz-adv-x="1355" >
<font-face units-per-em="2048" ascent="1638" descent="-410" />
<missing-glyph horiz-adv-x="550" />
<glyph unicode="&#xfb01;" horiz-adv-x="1224" d="M51 997v58l201 26v115q0 187 97.5 300.5t277.5 113.5q67 0 177 -13.5t197 -35.5v-54l-352 19q-66 3 -121 -14t-99 -54.5t-68.5 -104.5t-24.5 -157v-115l751 -16v-1065h-83v997h-668v-997h-84v997h-201z" />
<glyph unicode="&#xfb02;" horiz-adv-x="1472" d="M51 1004v59l201 24v109q0 86 18.5 158.5t57 131t105 91.5t155.5 33h510v-1219q0 -78 11.5 -134.5t25 -85.5t40.5 -48.5t42.5 -24t44.5 -10.5q147 -29 161 -29v-55h-151q-135 0 -196.5 91t-61.5 296v1137h-408q-270 0 -270 -332v-109h301v-83h-303v-1004h-84v1004h-199z " />
<glyph horiz-adv-x="0" />
<glyph unicode="&#xd;" horiz-adv-x="1923" />
<glyph unicode=" "  horiz-adv-x="550" />
<glyph unicode="&#x09;" horiz-adv-x="550" />
<glyph unicode="&#xa0;" horiz-adv-x="550" />
<glyph unicode="!" horiz-adv-x="538" d="M207 33v123q0 32 33 32h53q15 0 24 -9t9 -23v-123q0 -15 -9.5 -24t-23.5 -9h-53q-14 0 -23.5 10t-9.5 23zM219 1497h92l-12 -1096h-68z" />
<glyph unicode="&#x22;" horiz-adv-x="618" d="M152 1362v137h86v-137l-15 -275h-53zM381 1362v137h86v-137l-14 -275h-54z" />
<glyph unicode="#" horiz-adv-x="1361" d="M51 500l8 51h353l61 393h-352l10 51h350l80 504h53l-82 -504h369l78 504h53l-80 -504h363l-8 -51h-365l-61 -395h362l-8 -51h-363l-77 -498h-54l80 498l-368 2l-78 -500h-51l77 500h-350zM463 551l366 -2l62 395h-367z" />
<glyph unicode="$" horiz-adv-x="1189" d="M139 1012v135q1 110 31 184.5t88 113t128 53.5t167 13v177h63v-181q121 -8 375 -39v-57l-454 16q-76 3 -130 -7.5t-97.5 -40.5t-65 -88t-21.5 -144v-135q0 -56 13.5 -97.5t36.5 -67t58.5 -41.5t74 -22t88.5 -6h231q80 0 139.5 -17.5t95 -46t57 -71t29 -86t7.5 -98.5v-140 q0 -86 -25 -149t-64.5 -99t-99 -57t-117.5 -26.5t-131 -3.5v-166h-63v170q-301 19 -375 32v60q176 -12 471 -12q53 0 95.5 5.5t86 21.5t72.5 42.5t47.5 73t18.5 108.5v140q0 119 -56 176t-188 57h-229q-90 0 -156.5 19.5t-104 49t-60 74t-29.5 85.5t-7 92z" />
<glyph unicode="%" horiz-adv-x="1953" d="M106 971v272q0 136 57.5 196t207.5 60h207q146 0 203 -60.5t57 -195.5v-272q0 -136 -57.5 -196t-207.5 -60h-206q-146 0 -203.5 60.5t-57.5 195.5zM172 971q0 -109 44.5 -150t150.5 -41h206q112 0 155.5 40t43.5 151v272q0 106 -41.5 148.5t-152.5 42.5h-207 q-113 0 -156 -39.5t-43 -151.5v-272zM485 0l897 1499h78l-897 -1499h-78zM1118 262v273q0 136 57 196t207 60h207q146 0 203 -60.5t57 -195.5v-273q0 -136 -57 -196t-207 -60h-207q-146 0 -203 60.5t-57 195.5zM1184 262q0 -109 44 -149.5t150 -40.5h207q112 0 155.5 39.5 t43.5 150.5v273q0 106 -42 148t-153 42h-207q-113 0 -155.5 -39t-42.5 -151v-273z" />
<glyph unicode="&#x26;" horiz-adv-x="1325" d="M87.5 373.5q-13.5 107.5 30.5 203.5t134 173l176 149l-129 174q-47 63 -62 124t-2 109t44 87t73 63t88 33q192 32 547 -16v-54h-416q-57 0 -106.5 -12t-86.5 -38t-53 -62.5t-3 -89.5t59 -115l553 -752l289 285l26 -27l-127 -192l-135 -131l209 -285h-102l-168 227 l-148 -137q-82 -77 -191.5 -96.5t-220 26t-188.5 148.5q-77 98 -90.5 205.5zM172 379q15 -81 76 -162q57 -74 138.5 -113t171 -29.5t157.5 72.5l157 148l-397 532l-160 -133q-87 -72 -122.5 -153t-20.5 -162z" />
<glyph unicode="'" horiz-adv-x="280" d="M98 1362v137h86v-137l-14 -275h-55z" />
<glyph unicode="(" horiz-adv-x="657" d="M188 668q0 157 33.5 327.5t81.5 301.5t96 239.5t81 166.5l34 58h94q-14 -22 -36.5 -61.5t-80.5 -162t-102 -245.5t-80.5 -295.5t-36.5 -328.5q0 -172 34.5 -348.5t84 -305t99 -233t84.5 -157.5l34 -54h-94q-7 9 -18.5 27t-45.5 77.5t-65 124t-68.5 165.5t-64.5 204 t-45.5 235.5t-18.5 264.5z" />
<glyph unicode=")" horiz-adv-x="657" d="M51 -430q14 20 36.5 56t80 153t101.5 238t80 300t36 351q0 156 -34.5 326t-83.5 301t-98 240t-83 167l-35 59h92q13 -22 35 -61t78.5 -161t99.5 -245t78 -296t35 -330q0 -181 -33.5 -361t-81.5 -307t-96 -228t-82 -152l-33 -50h-92z" />
<glyph unicode="*" horiz-adv-x="940" d="M127 1194v47l289 25l4 -82zM283 842l61 274l84 -16l-102 -273zM401 1477l45 16l142 -248l-80 -37zM467 1001l45 74l238 -176l-27 -37zM557 1143l236 166l24 -41l-203 -189z" />
<glyph unicode="+" horiz-adv-x="1062" d="M127 688v82h360v365h84v-365h367v-82h-367v-364h-84v364h-360z" />
<glyph unicode="," horiz-adv-x="417" d="M152 35v121q0 37 34 37h50q32 0 32 -37v-213q0 -34 -11.5 -56.5t-27.5 -30t-32 -10.5t-27 -2l-12 2v31q45 0 45 41v82h-17q-14 0 -24 9.5t-10 25.5z" />
<glyph unicode="-" horiz-adv-x="702" d="M51 553v82h602v-82h-602z" />
<glyph unicode="." horiz-adv-x="421" d="M152 33v123q0 32 34 32h52q32 0 32 -32v-123q0 -33 -32 -33h-52q-14 0 -24 10t-10 23z" />
<glyph unicode="/" horiz-adv-x="755" d="M51 -147l576 1724h80l-576 -1724h-80z" />
<glyph unicode="0" horiz-adv-x="1341" d="M176 332v835q0 159 99 245.5t253 86.5h295q91 0 159 -26t107.5 -72.5t58.5 -104.5t19 -129v-835q0 -332 -344 -332h-295q-73 0 -134 18t-111 55.5t-78.5 103.5t-28.5 155zM260 332q0 -124 72.5 -186t195.5 -62h295q260 0 260 248v835q0 248 -260 248h-295 q-126 0 -197 -66.5t-71 -181.5v-835z" />
<glyph unicode="1" horiz-adv-x="729" d="M100 1270v55l344 174h84v-1499h-84v1405z" />
<glyph unicode="2" horiz-adv-x="1222" d="M100 1434v59q211 27 582 27q109 0 190.5 -33t130 -92.5t72 -135.5t23.5 -169q0 -78 -40.5 -171.5t-102.5 -179.5t-147 -178.5t-162.5 -164.5t-161.5 -142t-132 -107t-84 -63h830v-84h-983v78q57 43 87 66t109 85.5t131 107t132 116.5t134 129t116.5 130t100 134t62.5 126 t25 120q0 342 -332 342h-580z" />
<glyph unicode="3" horiz-adv-x="1222" d="M76 1419v51q157 41 610 33q172 -3 261 -96.5t89 -241.5v-141q0 -68 -22 -121.5t-56.5 -84.5t-66.5 -47.5t-62 -22.5q32 -11 63.5 -30.5t66 -53.5t56 -89.5t21.5 -123.5v-121q0 -344 -364 -344q-150 0 -236.5 1.5t-190 9.5t-157.5 23l2 52h576q47 0 85 6t76 22.5 t63.5 44.5t41.5 75t16 110v121q0 55 -18 98.5t-46 71t-65.5 46t-73.5 26.5t-73 9l-457 15v59l457 15q124 3 202 61.5t78 171.5v141q0 126 -77.5 190t-196.5 64h-602z" />
<glyph unicode="4" horiz-adv-x="1196" d="M51 477l637 1022h98l-616 -995h709v463l39 153h45v-616h184v-60l-184 -26v-414h-84v414h-789z" />
<glyph unicode="5" horiz-adv-x="1296" d="M193 23v57h622q110 0 180 71t70 193v205q0 260 -252 260h-313q-86 0 -157 -64.5t-71 -156.5h-77l45 911h866v-84h-789l-30 -633q21 35 80.5 72.5t138.5 38.5q61 2 121.5 2t115.5 -1t72 -1q173 0 253.5 -90.5t80.5 -249.5v-213q0 -80 -23 -143.5t-58 -101t-81 -61.5 t-88 -33t-84 -9q-223 0 -357 5.5t-265 25.5z" />
<glyph unicode="6" horiz-adv-x="1292" d="M164 786q0 155 19.5 279t52 206.5t78 137t96 78.5t106.5 24q378 0 578 -24v-60h-564q-57 0 -102.5 -30t-75 -82.5t-51 -114t-32.5 -134.5t-15.5 -132.5t-5.5 -118.5q270 31 565 31q81 0 140.5 -16t95 -42t57.5 -66t29.5 -81.5t7.5 -95.5v-242q0 -305 -330 -305h-264 q-70 0 -126 21t-105.5 75.5t-82.5 142t-52 226.5t-19 323zM248 760q0 -67 2.5 -125t10 -129.5t20.5 -129t36 -114t54 -95t76.5 -62t101.5 -23.5h264q39 0 71.5 5t66.5 19t57 38t38 65t15 96v240q0 66 -19 110.5t-55.5 66.5t-77 30t-96.5 8h-565z" />
<glyph unicode="7" horiz-adv-x="1101" d="M76 1415v84h911l39 -65l-506 -1434h-98l502 1415h-848z" />
<glyph unicode="8" horiz-adv-x="1325" d="M188 315v203q0 55 19 99t49 70t62.5 40.5t64.5 17.5q-195 42 -195 277v133q0 100 26 170.5t76 110t113 56.5t146 17h258q168 0 250 -84t82 -270v-133q0 -48 -17 -98.5t-59 -93.5t-100 -50q63 -17 104 -59t56.5 -92.5t15.5 -112.5v-201q0 -76 -22.5 -134.5t-56.5 -91.5 t-81 -54t-88.5 -28t-85.5 -7h-256q-72 0 -130.5 13.5t-95.5 33.5t-64 51t-40 57.5t-20.5 61t-9 54t-1.5 44.5zM272 309q0 -116 73 -170.5t204 -54.5h256q45 0 87 12.5t80 37.5t60.5 70.5t22.5 104.5v215q0 201 -244 201h-285q-39 0 -80 -10.5t-81.5 -32t-66.5 -63t-26 -95.5 v-215zM272 1012q0 -52 16 -91t40 -60t60 -34t67.5 -16.5t70.5 -3.5h285q65 0 114.5 19.5t76.5 50.5t40 65.5t13 69.5v139q0 147 -60 210.5t-188 63.5h-258q-147 0 -212 -62t-65 -212v-139z" />
<glyph unicode="9" horiz-adv-x="1292" d="M152 958v242q0 305 329 305h264q70 0 126 -21t105.5 -75.5t82.5 -142t52 -226.5t19 -323q0 -155 -19.5 -279t-52 -206.5t-78 -137t-96 -78.5t-106.5 -24q-428 0 -577 24v60h565q57 0 102.5 30t75 82.5t50.5 113.5t32 133.5t15.5 132t5.5 118.5q-252 -29 -566 -29 q-81 0 -140 16t-95 42t-57.5 66t-29 81.5t-7.5 95.5zM233 958q0 -66 19 -110.5t55.5 -66.5t77 -30t96.5 -8h566q0 678 -302 678h-264q-39 0 -71.5 -5t-66.5 -19t-57 -38t-38 -65t-15 -96v-240z" />
<glyph unicode=":" horiz-adv-x="428" d="M152 33v123q0 32 34 32h52q32 0 32 -32v-123q0 -33 -32 -33h-52q-14 0 -24 10t-10 23zM152 928v125q0 34 34 34h52q32 0 32 -34v-125q0 -31 -32 -31h-52q-14 0 -24 9t-10 22z" />
<glyph unicode=";" horiz-adv-x="421" d="M152 35v121q0 17 9.5 27t24.5 10h50q32 0 32 -37v-213q0 -34 -11.5 -56.5t-27.5 -30t-32 -10.5t-27 -2l-12 2v31q45 0 45 41v82h-17q-13 0 -23.5 10.5t-10.5 24.5zM154 930v125q0 32 32 32h52q34 0 34 -32v-125q0 -31 -34 -31h-52q-14 0 -23 9t-9 22z" />
<glyph unicode="&#x3c;" horiz-adv-x="978" d="M127 684v84l725 373v-92l-616 -322l616 -344v-94z" />
<glyph unicode="=" horiz-adv-x="974" d="M51 434v84h875v-84h-875zM51 930v84h875v-84h-875z" />
<glyph unicode="&#x3e;" horiz-adv-x="978" d="M127 289v94l616 344l-616 322v92l725 -373v-84z" />
<glyph unicode="?" horiz-adv-x="1095" d="M51 1430v57q276 31 537 26q116 1 197 -25t126 -78t64.5 -118.5t19.5 -156.5v-207q0 -202 -131 -277t-399 -43v-209h-88v279h244q290 3 290 250v207q0 161 -77 228t-256 67h-527zM362 33v123q0 32 33 32h54q30 0 30 -32v-123q0 -15 -8 -24t-22 -9h-54q-13 0 -23 10t-10 23 z" />
<glyph unicode="@" horiz-adv-x="1757" d="M164 0v713q0 24 1 42.5t8 55.5t19 65.5t38 63t61 56.5t91 37.5t126 15.5h420q59 0 111 -14t99 -44.5t75 -89.5t28 -139v-762h-59l-21 131l-27 -15q-28 -16 -72.5 -38t-97.5 -43.5t-116 -37t-115 -15.5q-114 -3 -189 65.5t-73 173.5v109q0 125 69 198.5t195 73.5h424 q2 154 0 156q0 207 -237 207h-414q-123 0 -191.5 -57t-68.5 -195v-713q0 -79 23 -136t63 -87t82.5 -43t91.5 -13h674q145 0 211.5 69t66.5 210v1049q0 138 -72 219.5t-206 81.5h-807v51q177 36 590 33h217q168 -3 265 -100.5t97 -284.5v-1049q0 -365 -362 -365h-674 q-160 0 -252 94.5t-92 270.5zM554 279q0 -45 1 -46q0 -73 53.5 -120t139.5 -47q81 -1 197 37t214 85v359l-414 -25q-190 -14 -190 -196q-1 -2 -1 -47z" />
<glyph unicode="A" d="M115 0l557 1499h96l535 -1499h-97l-168 483h-653l-172 -483h-98zM416 567h592l-289 822z" />
<glyph unicode="B" horiz-adv-x="1222" d="M201 0v1499h538q88 0 156 -20.5t111.5 -55t71 -83.5t39 -103t11.5 -117q0 -134 -66.5 -225.5t-170.5 -110.5q29 -6 60.5 -23t65 -48t60 -71t43.5 -98.5t17 -125.5t-11 -124.5t-39 -112.5t-71.5 -94t-114.5 -63t-162 -24h-538zM287 86h452q46 0 86.5 7t84 29.5t73.5 58 t50 97.5t20 144q1 134 -89 227q-89 92 -222 92h-3h-452v-655zM287 827h452q136 0 219 76.5t86 216.5v15q0 149 -77 213q-81 68 -228 67h-452v-588z" />
<glyph unicode="C" horiz-adv-x="1171" d="M139 754q0 125 8.5 221.5t28.5 186t56.5 152t91 109.5t133 70t180.5 23q79 0 215 -15t244 -35v-61l-16 1q-16 2 -43.5 4.5t-63 5t-78 5.5t-85.5 5.5t-89 4t-84 1.5q-90 0 -154 -18.5t-115.5 -64t-82 -123.5t-46.5 -195t-16 -281q0 -329 99.5 -503.5t316.5 -174.5 q96 0 210 5t181 10l66 5v-59q-103 -19 -239 -32t-220 -13q-111 0 -197 38t-142.5 104.5t-92.5 164.5t-51 210t-15 249z" />
<glyph unicode="D" horiz-adv-x="1363" d="M201 0v1499h532q96 0 175 -26.5t133 -69.5t95 -105.5t65 -127.5t38.5 -143.5t19.5 -144.5t5 -139q0 -106 -18 -208t-58.5 -200t-100.5 -171.5t-151.5 -118.5t-202.5 -45h-532zM285 86h448q92 0 168 39t126.5 104t86 151.5t51 178t15.5 186.5q0 670 -447 670h-448v-1329z " />
<glyph unicode="E" horiz-adv-x="1179" d="M201 252v981q0 73 21 126.5t58.5 83.5t81.5 44q39 12 84 12h13l622 -24v-60h-622q-90 0 -132 -45t-42 -137v-447l714 -14v-59l-714 -15v-446q0 -58 16 -95t47 -53t59.5 -21t71.5 -5h602v-60l-602 -24q-15 -1 -29 -1q-40 1 -72 7q-44 8 -87 33.5t-66.5 80.5t-23.5 138z " />
<glyph unicode="F" horiz-adv-x="1179" d="M201 0v1233q0 73 21 126.5t58.5 83.5t81.5 44q39 12 84 12h13l622 -24v-60h-622q-90 0 -132 -45t-42 -137v-447l714 -14v-59l-714 -15v-698h-84z" />
<glyph unicode="G" horiz-adv-x="1263" d="M139 758q0 74 2 134t8.5 126.5t17 118.5t28.5 105.5t42.5 93t59 75t77.5 57.5t99 35t123 13q79 0 242.5 -18t271.5 -38v-67q-2 0 -38 4t-92 9.5t-120.5 11.5t-136.5 10t-127 4q-78 0 -137 -19.5t-100 -60.5t-67.5 -95.5t-41.5 -134.5t-21 -166.5t-6 -201.5 q0 -152 11 -259t37 -190t70.5 -132t109 -73.5t155.5 -25.5q70 0 183.5 24.5t191.5 49.5l78 24v539h-406v53q118 33 351 33q66 0 139 -6v-791h-58l-22 106q-70 -38 -202.5 -77t-254.5 -39h-10q-72 0 -132 14q-63 14 -110 44.5t-82 69t-58.5 95t-38.5 112.5t-22.5 132 t-10.5 144t-3 157z" />
<glyph unicode="H" horiz-adv-x="1341" d="M201 0v1499h84v-733h839v733h84v-1499h-84v684h-839v-684h-84z" />
<glyph unicode="I" horiz-adv-x="417" d="M201 0v1499h84v-1499h-84z" />
<glyph unicode="J" horiz-adv-x="720" d="M88 43l8 57q43 -12 76.5 -20t77.5 -12q21 -2 40 -2q21 0 38 2q34 5 68.5 22t57 47t36.5 81t14 120v1161h84v-1161q0 -225 -107 -301q-68 -49 -183 -49h-9q-121 2 -201 55z" />
<glyph unicode="K" horiz-adv-x="1212" d="M201 0v1499h84v-704h264l485 704h103l-512 -747l512 -752h-105l-485 709h-260v-709h-86z" />
<glyph unicode="L" horiz-adv-x="1142" d="M201 258v1241h84v-1241q0 -58 16 -95t47 -53t59.5 -21t71.5 -5h588v-84h-588q-46 0 -81 4.5t-74.5 20t-64.5 42.5t-41.5 75.5t-16.5 115.5z" />
<glyph unicode="M" horiz-adv-x="1634" d="M139 0l142 1499h120l424 -1358l414 1358h121l153 -1499h-83l-142 1366l-418 -1366h-90l-426 1366l-131 -1366h-84z" />
<glyph unicode="N" horiz-adv-x="1372" d="M201 0v1499h88l866 -1341v1341h84v-1499h-84l-870 1341v-1341h-84z" />
<glyph unicode="O" horiz-adv-x="1382" d="M164 739q0 116 8 211.5t22 169t38 131t50.5 98.5t65 70t76 46.5t89.5 27t100 13t112 3.5q65 0 113 -3.5t100 -13t89 -27t75.5 -46.5t64.5 -70t49 -98.5t36.5 -131.5t21.5 -169t8 -211q0 -124 -8.5 -222.5t-27 -173.5t-43 -131t-62 -95t-77.5 -63.5t-96.5 -38t-112 -18.5 t-130.5 -5q-60 0 -105.5 2.5t-94.5 9.5t-84.5 20.5t-72 34t-62.5 51t-50.5 72t-40.5 95.5t-28 122.5t-17.5 153t-5.5 186.5zM248 739q0 -110 5.5 -195.5t19.5 -153.5t32.5 -116.5t49 -84t64.5 -57t83.5 -34.5t101 -17.5t121.5 -4.5q91 0 153.5 9.5t119.5 35.5t91.5 71.5 t60.5 120t37 178.5t11 248q0 138 -10.5 242t-28 177t-50.5 122.5t-66.5 78t-89 43.5t-104 19t-124.5 4q-66 0 -105.5 -2.5t-92 -11.5t-83 -28t-67 -51.5t-56.5 -83.5t-39 -121.5t-26.5 -167.5t-7.5 -220z" />
<glyph unicode="P" horiz-adv-x="1191" d="M152 0v1499h581q55 0 100.5 -8t96 -34t85 -70t57 -122t22.5 -184q0 -88 -12.5 -157t-31.5 -114.5t-50.5 -78t-60 -49t-69 -26t-69 -11.5t-68.5 -2q-63 0 -276.5 12.5t-220.5 16.5v-672h-84zM236 729h497q48 0 84.5 7t74 29t62 59.5t40.5 102.5q15 61 14 143v11 q-1 86 -18 149t-42.5 97.5t-64 54.5t-72.5 25.5t-78 5.5h-497v-684z" />
<glyph unicode="Q" horiz-adv-x="1382" d="M164 739q0 116 8 211t21.5 169t37.5 131.5t50 98.5t64.5 70t76 46.5t89.5 27t100 13t112 3.5q65 0 113 -3.5t100 -13t89.5 -27t76 -46.5t64.5 -70t49.5 -98.5t37 -131.5t21.5 -169t8 -211q0 -110 -7.5 -200t-20.5 -161t-35.5 -126.5t-48 -96.5t-62.5 -69.5t-75.5 -47 t-90.5 -28.5t-102.5 -14t-116.5 -4q-124 0 -201.5 12t-153 54.5t-115.5 123t-64.5 218t-24.5 339.5zM248 739q0 -147 10 -251.5t35.5 -179t59.5 -119.5t91.5 -70.5t120.5 -34t158 -8.5q68 0 118.5 5t99 18t82.5 35.5t64.5 58t50 85t34 116.5t20.5 152t6 193 q0 160 -12.5 275.5t-43 190.5t-64.5 119.5t-95 66.5t-115.5 28t-144.5 6q-66 0 -105.5 -2.5t-91.5 -11.5t-83 -28t-67 -51.5t-56 -83.5t-38.5 -121.5t-26 -167.5t-7.5 -220zM690 -68h55q40 -67 103 -96q59 -28 116 -28h10q61 3 128 26v-88q-56 -21 -121 -22h-3 q-63 0 -122 20q-60 20 -106 68.5t-60 119.5z" />
<glyph unicode="R" horiz-adv-x="1187" d="M152 0v1499h589q57 0 104 -9.5t95.5 -37t82 -73t54.5 -123.5t21 -181q0 -93 -13.5 -165.5t-39.5 -117t-54 -74t-66 -44t-66 -20t-64 -7.5l323 -647h-88l-328 645q-69 2 -265.5 11t-200.5 12v-668h-84zM236 733h505q39 0 68.5 4t63 15.5t56.5 35t43 60t30 94t10 133.5 q0 86 -16 149.5t-40.5 99t-62 56.5t-72.5 27t-80 6h-505v-680z" />
<glyph unicode="S" horiz-adv-x="1198" d="M164 1012v135q0 87 20 151.5t54 105t86 65t109 33.5t130 9q75 0 233.5 -15.5t239.5 -27.5v-59l-473 18q-16 1 -31 1q-56 0 -99 -9q-55 -11 -98 -41.5t-65 -88t-22 -142.5v-135q0 -60 12.5 -103t34 -68t57.5 -39.5t73.5 -19t92.5 -4.5h252q79 0 138.5 -17.5t95 -46t57 -71 t29.5 -86.5t8 -98v-140q0 -84 -23 -146t-59 -97.5t-91.5 -57t-108 -28t-120.5 -6.5q-79 0 -251 12t-240 24v64q176 -16 491 -16q51 0 91.5 5t84.5 20.5t73.5 42t49 73.5t19.5 110v140q0 119 -56 176t-188 57h-248q-93 0 -160.5 18.5t-105 46.5t-59 72.5t-27.5 85.5t-6 97z " />
<glyph unicode="T" horiz-adv-x="1218" d="M94 1415v84h1055v-84h-492v-1415h-84v1415h-479z" />
<glyph unicode="U" horiz-adv-x="1392" d="M201 655v844h84v-844q0 -96 7.5 -173t18 -134.5t33 -101t40.5 -72.5t54.5 -48.5t60.5 -30t72 -15.5t76 -5.5t86 -0.5h4q47 0 78 1.5t72.5 7.5t69.5 17.5t60.5 32t54 50t43 73.5t34 100t20 131.5t7.5 167.5v844h86v-844q0 -108 -10.5 -197t-26 -154t-45 -115.5t-55 -83.5 t-68.5 -55.5t-73 -34t-81.5 -17.5t-81.5 -7t-84 -1h-13q-61 0 -91.5 1t-84.5 6.5t-82.5 17t-71.5 34t-66 55.5t-51.5 83t-42 115.5t-23.5 154.5t-10 198z" />
<glyph unicode="V" d="M115 1499h90l491 -1384l514 1384h93l-560 -1499h-96z" />
<glyph unicode="W" horiz-adv-x="1980" d="M115 1499h90l491 -1376l457 1376h94l-186 -569l311 -811l467 1380h88l-504 -1499h-96l-311 797l-273 -797h-96z" />
<glyph unicode="X" horiz-adv-x="1177" d="M115 1499h98l403 -678l410 678h98l-452 -749l442 -750h-98l-400 670l-397 -670h-98l440 750z" />
<glyph unicode="Y" horiz-adv-x="1273" d="M115 1499h92l440 -864l479 864h95l-533 -967v-532h-84v532z" />
<glyph unicode="Z" horiz-adv-x="1132" d="M88 0v84l860 1331h-860v84h969v-84l-860 -1331h860v-84h-969z" />
<glyph unicode="[" horiz-adv-x="663" d="M215 -78v1450q0 44 5 84.5t22.5 91.5t46 88t81.5 62.5t124 25.5h122v-84h-122q-90 0 -142.5 -67.5t-52.5 -200.5v-1450q0 -120 48 -194t147 -74h122v-84h-122q-71 0 -124 25.5t-81.5 62.5t-46 88t-22.5 91.5t-5 84.5z" />
<glyph unicode="\" horiz-adv-x="755" d="M51 1577h80l576 -1724h-80z" />
<glyph unicode="]" horiz-adv-x="663" d="M51 -346h123q99 0 147 74t48 194v1450q0 133 -52.5 200.5t-142.5 67.5h-123v84h123q71 0 124 -25.5t81.5 -62.5t46 -88t22.5 -91.5t5 -84.5v-1450q0 -44 -5 -84.5t-22.5 -91.5t-46 -88t-81.5 -62.5t-124 -25.5h-123v84z" />
<glyph unicode="^" horiz-adv-x="821" d="M127 1087l260 267h76l235 -267h-73l-201 205l-223 -205h-74zM463 1354z" />
<glyph unicode="_" horiz-adv-x="1357" d="M51 -2v84h1258v-84h-1258z" />
<glyph unicode="`" horiz-adv-x="438" d="M51 1360h101l237 -273h-65z" />
<glyph unicode="a" horiz-adv-x="1062" d="M100 258v125q0 127 73.5 199.5t199.5 72.5q240 -1 360.5 -1t120.5 1q1 68 1 102.5t-1 35.5q0 232 -231 235h-16q-172 0 -472 -39v55q237 62 490 64h7q132 0 218 -76q88 -78 88 -239v-793h-57l-27 131l-32 -15q-32 -14 -83.5 -35t-111.5 -42.5t-129.5 -36t-124.5 -14.5 q-117 0 -195 72t-78 198zM184 268q0 -101 55 -147.5t134 -48.5h5q72 0 188 28q120 29 204 58l84 30v408l-481 -25q-99 -4 -144 -56t-45 -136v-111z" />
<glyph unicode="b" horiz-adv-x="1130" d="M152 0v1608h79v-586q92 37 210 59.5t194 22.5q65 0 118 -17t91 -46t67 -72t46.5 -90.5t29 -106t15.5 -114t4 -119.5q0 -81 -9.5 -154t-35.5 -147.5t-66.5 -128t-107 -87.5t-152.5 -34q-96 0 -226 47t-176 86l-28 -121h-53zM233 178q105 -49 199 -77.5t203 -28.5 q128 0 207.5 117t79.5 350q0 142 -22 239.5t-63 148.5t-89.5 72t-112.5 21q-110 0 -196.5 -14t-205.5 -45v-783z" />
<glyph unicode="c" horiz-adv-x="1024" d="M127 545q0 139 17.5 239.5t47 160.5t76.5 95t97 46.5t118 11.5q78 0 201 -16t225 -38v-57q-244 27 -426 27q-55 0 -92 -8.5t-74 -37.5t-58.5 -80t-34.5 -139t-13 -212q0 -113 12.5 -195.5t35 -134t57.5 -81.5t74.5 -41t92.5 -11q84 0 194.5 9t179.5 19l69 9v-62 q-119 -34 -213.5 -45.5t-229.5 -13.5q-67 0 -116 11.5t-96.5 46.5t-77.5 95t-48 161.5t-18 240.5z" />
<glyph unicode="d" horiz-adv-x="1130" d="M127 539q0 64 4 119.5t15.5 114t29 106t46.5 90.5t67 72t91 46t118 17q76 0 193.5 -22.5t209.5 -59.5v586h80v-1608h-55l-27 121q-46 -39 -175.5 -86t-225.5 -47q-86 0 -152.5 34t-107 87.5t-66.5 128t-35.5 147.5t-9.5 154zM211 539q0 -239 79 -353t208 -114 q109 0 202.5 28.5t198.5 77.5v783q-119 31 -205 45t-196 14q-51 0 -91 -12t-78 -44t-63 -84.5t-40 -139t-15 -201.5z" />
<glyph unicode="e" horiz-adv-x="1075" d="M127 549q0 91 5.5 162t18.5 126.5t30.5 96t45.5 69.5t59 47t75.5 28.5t90.5 14t109 3.5q61 0 102 -2.5t88.5 -11t78 -24.5t60.5 -44.5t47 -69t27.5 -99t10.5 -134.5q0 -116 -68.5 -165.5t-210.5 -49.5h-485q0 -106 12.5 -182t33.5 -122.5t56.5 -73t74.5 -35.5t95 -9 q237 0 471 35v-62q-202 -57 -446 -57h-25q-106 1 -173.5 30t-109 97.5t-57.5 170.5t-16 261zM211 578h485q35 0 61 2.5t53 10.5t43.5 22.5t27 39t10.5 58.5q0 59 -6.5 103.5t-17.5 77t-32 54t-44.5 35t-61.5 20.5t-75 9t-93 2q-54 0 -91.5 -2.5t-75 -10t-61.5 -21t-46.5 -36 t-35 -54t-22.5 -77t-14 -102t-4 -131.5z" />
<glyph unicode="f" horiz-adv-x="796" d="M51 1004v59l185 24v203q0 37 1.5 63t7 68t19.5 71.5t36 58.5t59.5 44t86.5 15q200 0 302 -31v-53l-279 2q-40 0 -68 -12t-44 -31t-24.5 -52t-11 -64.5t-2.5 -78.5v-203h345v-83h-345v-1004h-83v1004h-185z" />
<glyph unicode="g" horiz-adv-x="1159" d="M114 -51l44 188q-38 35 -38 105q0 53 41 98.5t116 51.5q-159 73 -159 313q0 199 86.5 293t266.5 94h639v-57l-207 -26q17 -17 24 -24.5t26 -36t28.5 -57t18 -78t8.5 -108.5q0 -43 -7 -86t-29 -96t-57 -92t-98.5 -66t-146.5 -27h-320q-18 0 -38.5 -3t-48 -12t-45.5 -30.5 t-18 -52.5q0 -49 44.5 -74.5t93.5 -25.5h427q136 0 211 -75t75 -201v-115q0 -42 -6 -79t-25.5 -80t-51.5 -73t-89.5 -50t-134.5 -20h-308q-148 0 -235 82t-87 233v187zM198 103v-341q0 -58 17.5 -102t43 -68t60 -38.5t62 -19t55.5 -4.5h308q224 0 224 219v112 q0 93 -48.5 145t-163.5 52h-415q-42 0 -78 11t-51 23zM201 705q0 -136 65.5 -209.5t190.5 -73.5h206q72 0 125.5 25t82 67.5t41.5 90t13 100.5q-1 150 -55.5 227t-148.5 77h-264q-75 0 -126.5 -22.5t-79 -65.5t-39 -95t-11.5 -121z" />
<glyph unicode="h" horiz-adv-x="1124" d="M152 0v1606h84v-645q231 145 428 145q155 0 245 -102.5t90 -245.5v-758h-84v758q0 121 -67.5 192.5t-183.5 71.5q-121 0 -209.5 -28t-218.5 -95v-899h-84z" />
<glyph unicode="i" horiz-adv-x="366" d="M127 1270v123q0 32 33 32h49q15 0 23 -9t8 -23v-123q0 -31 -31 -31h-49q-14 0 -23.5 9t-9.5 22zM139 0v1087h84v-1087h-84z" />
<glyph unicode="j" horiz-adv-x="415" d="M152 1270v123q0 32 32 32h49q15 0 24 -9t9 -23v-123q0 -14 -9.5 -22.5t-23.5 -8.5h-49q-14 0 -23 9t-9 22zM168 -553v1640h84v-1095v-62q0 -297 -35 -483h-49z" />
<glyph unicode="k" horiz-adv-x="1019" d="M152 0v1602h84v-934h108l504 419h123l-545 -464l543 -623h-111l-514 582h-108v-582h-84z" />
<glyph unicode="l" horiz-adv-x="610" d="M152 387v1217h84v-1217q0 -65 7 -115.5t21.5 -82t29 -52t36 -31.5t35 -15t34.5 -7q148 -29 162 -29v-55h-151q-129 0 -193.5 92t-64.5 295z" />
<glyph unicode="m" horiz-adv-x="1882" d="M152 0v1087h55l29 -129q108 68 209.5 107t213.5 39q100 0 178 -45t117 -121q87 67 218 116.5t251 49.5q151 0 243.5 -100.5t92.5 -247.5v-756h-84v756q0 113 -69 188.5t-183 75.5q-221 0 -450 -133q22 -52 22 -131v-756h-84v756q0 113 -69 188.5t-183 75.5 q-120 0 -207.5 -27t-215.5 -94v-899h-84z" />
<glyph unicode="n" horiz-adv-x="1124" d="M152 0v1087h55l29 -126q231 145 428 145q155 0 245 -102.5t90 -245.5v-758h-84v758q0 117 -68 190.5t-183 73.5q-121 0 -209.5 -28t-218.5 -95v-899h-84z" />
<glyph unicode="o" horiz-adv-x="1169" d="M127 528q0 168 23.5 276.5t79.5 174.5t140 92.5t214 26.5q134 0 223 -32t141.5 -104t74 -175.5t21.5 -258.5q0 -153 -22 -253t-76 -165t-141 -92.5t-221 -27.5q-137 0 -224.5 28.5t-139.5 95.5t-72.5 164.5t-20.5 249.5zM211 528q0 -101 10 -175t33 -124t51.5 -81t74 -47 t91.5 -21.5t113 -5.5t114.5 6.5t93 23.5t74.5 49t52 82t33 122.5t10 170.5q0 126 -16.5 214t-44.5 141t-78 82.5t-103.5 39t-134.5 9.5q-50 0 -85.5 -2.5t-74 -10.5t-64.5 -23t-52 -39.5t-42.5 -61t-29.5 -85.5t-19 -115t-6 -149z" />
<glyph unicode="p" horiz-adv-x="1130" d="M152 -551v1638h53l28 -120q46 39 176 86t226 47q86 0 152.5 -34t107 -87.5t66.5 -128t35.5 -147.5t9.5 -154q0 -64 -4 -119.5t-15.5 -114t-29 -106t-46.5 -90.5t-67 -72t-91 -46t-118 -17q-76 0 -193 22.5t-209 59.5v-617h-81zM233 127q119 -31 205.5 -45t196.5 -14 q64 0 112.5 21t89.5 72t63 148.5t22 239.5q0 233 -79.5 350t-207.5 117q-108 0 -202 -28.5t-200 -78.5v-782z" />
<glyph unicode="q" horiz-adv-x="1138" d="M127 549q0 264 94.5 407.5t282.5 143.5q256 0 487 -33v-1620h-84v612q-91 -37 -208 -58t-195 -21q-92 0 -159.5 29t-108.5 77.5t-66 123t-34 155t-9 184.5zM211 549q0 -91 6.5 -158.5t25.5 -132t50.5 -105.5t84.5 -65.5t126 -24.5q108 0 186.5 12.5t216.5 47.5v893h-403 q-293 0 -293 -467z" />
<glyph unicode="r" horiz-adv-x="868" d="M152 0v1087h53l31 -137q57 33 78 45t74.5 38t88.5 36.5t87.5 20.5t103.5 10q108 0 151 -17v-82q-77 15 -151 15q-37 0 -69.5 -2.5t-67 -11.5t-56 -14.5t-60.5 -22.5t-53.5 -23.5t-63 -30t-62.5 -30.5v-881h-84z" />
<glyph unicode="s" horiz-adv-x="1032" d="M100 739v95q0 132 65 198t218 66q80 0 247.5 -8t246.5 -15v-59h-494q-114 0 -156.5 -43t-42.5 -139v-95q0 -38 5 -65t19 -44t27 -26.5t41 -13.5t47.5 -5t59.5 -1h283q123 0 194.5 -65.5t71.5 -180.5v-100q0 -64 -15.5 -111t-39.5 -73t-61.5 -41t-71 -19t-78.5 -4 q-72 0 -266 10t-255 16v58h521h30.5t32 3t36 8.5t31 17.5t28 29t17 44t7.5 62v100q0 72 -45.5 117t-136.5 45h-283q-63 0 -104 4.5t-78 18.5t-57.5 40.5t-32 69.5t-11.5 106z" />
<glyph unicode="t" horiz-adv-x="735" d="M51 1006v61l182 23l23 303h61v-303h345v-84h-345v-619q0 -78 12 -135t27 -86.5t41 -48.5t42 -24t42 -9q148 -29 162 -29v-55h-151q-129 0 -194 92.5t-65 294.5v619h-182z" />
<glyph unicode="u" horiz-adv-x="1124" d="M127 332v758h84v-758q0 -117 68.5 -190.5t183.5 -73.5q123 0 212 27t216 93v902h84v-1088h-55l-29 127q-231 -145 -428 -145q-155 0 -245.5 102.5t-90.5 245.5z" />
<glyph unicode="v" horiz-adv-x="1075" d="M51 1087h88l396 -966l401 966h90l-448 -1087h-86z" />
<glyph unicode="w" horiz-adv-x="1607" d="M50 1087h91l374 -971l354 971h88l-137 -387l264 -584l386 971h88l-428 -1087h-87l-265 592l-217 -592h-91z" />
<glyph unicode="x" horiz-adv-x="1011" d="M59 0l394 545l-394 542h109l338 -471l340 471h108l-395 -544l389 -543h-102l-340 469l-338 -469h-109z" />
<glyph unicode="y" horiz-adv-x="1099" d="M53 1087h90l291 -849q46 -130 139 -149q30 -6 43 -1l338 999h90l-477 -1431l-114 -209h-50l185 553q-174 8 -242 225z" />
<glyph unicode="z" horiz-adv-x="958" d="M76 1004v83h811v-83l-672 -918h672v-84h-781v84l672 918h-702z" />
<glyph unicode="{" horiz-adv-x="632" d="M51 641v84q27 2 46 5t47.5 12t46.5 22.5t31.5 38t13.5 57.5v483q0 79 17 143.5t54.5 120t108 86.5t168.5 31v-84q-131 0 -198 -67.5t-67 -229.5v-483q0 -71 -47.5 -118t-119.5 -58q70 -9 117.5 -57.5t47.5 -112.5v-592q0 -145 66.5 -207.5t200.5 -60.5v-84 q-88 0 -153.5 22t-102.5 55.5t-59 82.5t-29 93.5t-7 98.5v584q0 66 -57 103t-125 32z" />
<glyph unicode="|" horiz-adv-x="512" d="M217 -147v1724h84v-1724h-84z" />
<glyph unicode="}" horiz-adv-x="632" d="M51 -346q134 -2 200 60.5t66 207.5v592q0 64 48 112.5t118 57.5q-72 11 -120 58t-48 118v483q0 163 -66.5 230t-197.5 67v84q98 0 168.5 -31t108 -86.5t54.5 -120t17 -143.5v-483q0 -33 13.5 -57.5t31.5 -38t46.5 -22.5t47.5 -12t46 -5v-84q-68 5 -125.5 -32t-57.5 -103 v-584q0 -54 -7 -98.5t-29 -93.5t-59 -82.5t-102 -55.5t-153 -22v84z" />
<glyph unicode="~" horiz-adv-x="944" d="M127 1171q5 4 30 26t32 27t28.5 21.5t32.5 22t30 14t36 11.5t36 3q35 0 81 -30.5t89.5 -61t73.5 -30.5q19 0 40 5.5t35.5 11.5t36.5 20t30.5 20t31 23.5t25.5 19.5l24 -39q-1 -1 -20.5 -20t-22.5 -22t-21 -19t-24.5 -20t-23 -16t-26.5 -15.5t-25.5 -10t-30 -8.5t-29.5 -2 q-37 0 -83.5 31t-89.5 61.5t-73 30.5q-28 0 -56.5 -9.5t-44.5 -18.5t-52 -32.5t-50 -31.5z" />
<glyph unicode="&#xa1;" horiz-adv-x="546" d="M209 791v122q0 29 33 29h49q14 0 23.5 -9t9.5 -22v-118q0 -15 -8.5 -26t-24.5 -11h-49q-33 0 -33 35zM221 -553l12 1094h68l12 -1094h-92z" />
<glyph unicode="&#xa2;" horiz-adv-x="999" d="M100 545q0 104 10 186t26.5 140t44.5 100t58.5 67t73.5 39.5t84.5 19t96.5 3.5v176h65v-182q174 -14 326 -50v-57q-244 29 -426 29q-55 0 -92.5 -9t-74.5 -38t-59 -80t-35.5 -139.5t-13.5 -212.5q0 -141 19 -234.5t57 -143t85 -68.5t114 -19q84 0 194 9t178 19l68 9v-62 q-165 -49 -340 -55v-170h-65v166q-55 0 -96.5 4t-84.5 18.5t-73.5 39t-58.5 66.5t-44.5 100.5t-26.5 141t-10 187.5z" />
<glyph unicode="&#xa3;" horiz-adv-x="1226" d="M127 0v59l147 25v618h-147v52l147 22v258q0 92 12.5 163.5t32.5 120.5t55 83t69.5 53t88 29.5t98.5 13t111 2.5q52 0 142 -5.5t155 -11.5l64 -5v-60h-357q-64 0 -106 -2.5t-86.5 -11.5t-72 -25.5t-53.5 -44t-39.5 -68.5t-21.5 -98t-8 -133v-258l580 -22v-52h-580v-618 h740v-84h-971z" />
<glyph unicode="&#xa4;" horiz-adv-x="948" d="M129 950l39 37l92 -92q93 80 213 80q124 0 215 -78l94 92l35 -41l-92 -90q80 -90 80 -213q0 -122 -76 -221l88 -88l-41 -37l-84 86q-93 -90 -219 -90t-221 92l-84 -86l-37 39l84 86q-74 93 -74 219q0 121 82 213zM201 643q0 -117 79 -202t193 -85t193 85t79 202 q0 114 -79 192t-193 78q-110 0 -191 -80t-81 -190z" />
<glyph unicode="&#xa5;" horiz-adv-x="1206" d="M51 1499h94l439 -758l473 758h100l-530 -842h405v-59h-407v-164h407v-59h-407v-375h-84v375h-383v59h383v164h-383v59h381z" />
<glyph unicode="&#xa6;" horiz-adv-x="516" d="M217 -147v671h84v-671h-84zM217 879v698h84v-698h-84z" />
<glyph unicode="&#xa7;" horiz-adv-x="1138" d="M139 723v127q0 81 23 129t82 61q-55 12 -80 59t-25 109v144q0 72 22.5 124t62.5 79t84.5 39t97.5 12q71 0 264.5 -10.5t255.5 -16.5v-57h-520q-97 0 -140 -44t-43 -126v-144q0 -78 44.5 -104.5t138.5 -26.5h325q86 0 140.5 -13t83.5 -43t39.5 -69t9.5 -100v-127 q0 -34 -3 -59.5t-12.5 -54.5t-31 -46.5t-54.5 -21.5q33 -6 54 -23t30 -43.5t11.5 -48t2.5 -53.5v-150q0 -64 -17.5 -110.5t-43 -71t-66.5 -38.5t-74.5 -17.5t-80.5 -3.5q-72 0 -257 10t-247 16v58h504q99 0 149 33.5t50 123.5v150q0 82 -33.5 105.5t-153.5 23.5h-325 q-41 0 -67 1t-57.5 5.5t-50 13.5t-38.5 25t-30.5 39t-17 57t-6.5 78zM223 723q0 -25 2 -44t8.5 -33t12 -23.5t20 -16t24 -9.5t32.5 -4.5t37.5 -2t46.5 -0.5h325q90 0 127.5 11t48.5 36t11 88v127q0 87 -35 115t-152 28h-325q-39 0 -59 -1t-45 -5.5t-36.5 -13.5t-23 -25.5 t-15.5 -41t-4 -60.5v-125z" />
<glyph unicode="&#xa8;" horiz-adv-x="888" d="M127 1192q0 25 16 41t41 16t42.5 -16.5t17.5 -40.5q0 -25 -17.5 -42t-42.5 -17t-41 17t-16 42zM647 1192q0 24 17.5 40.5t42.5 16.5t42 -16t17 -41t-17 -42t-42 -17t-42.5 17t-17.5 42z" />
<glyph unicode="&#xa9;" horiz-adv-x="1730" d="M139 754q0 89 9 171.5t29 169.5t57 157.5t88.5 127t128.5 88t172 31.5h534q83 0 150.5 -28.5t112 -74t77.5 -111.5t51 -130.5t28.5 -142.5t13.5 -136t3 -122q0 -121 -15.5 -230t-49.5 -205.5t-84 -167t-123.5 -111t-163.5 -40.5h-534q-91 0 -166.5 36.5t-127 98.5 t-89.5 138.5t-59.5 163.5t-31.5 165.5t-10 151.5zM203 754q-1 -121 24.5 -240t75 -221.5t133 -166t187.5 -63.5h534q162 0 267.5 181t105.5 510q0 90 -7.5 170t-23.5 158.5t-45 141t-69 111t-98 75t-130 26.5h-534q-67 0 -125 -19t-113 -67.5t-94 -124t-63 -196t-25 -275.5z M500 748q0 234 80 340t215 106q140 0 364 -39v-49q-172 24 -364 24q-232 0 -232 -389q0 -182 53.5 -279t178.5 -97q220 0 376 32v-49q-166 -47 -376 -47q-65 0 -115 19.5t-92.5 67t-65 138.5t-22.5 222z" />
<glyph unicode="&#xaa;" horiz-adv-x="739" d="M76 580v57h590v-57h-590zM76 948v94q0 84 55 134.5t150 50.5q315 -2 315 0q2 63 0 65q0 82 -46.5 121t-141.5 39q-118 0 -308 -27v43q58 15 92.5 22.5t97 14.5t134.5 8q104 2 171 -50.5t67 -159.5v-529h-41l-25 100l-21 -11q-21 -11 -54.5 -27t-72.5 -32t-84.5 -27 t-82.5 -11q-85 0 -145 48.5t-60 133.5zM141 961q0 -67 41.5 -98.5t110.5 -31.5q55 0 130.5 21.5t124.5 43.5l48 22v264l-303 -13q-152 -4 -152 -139v-69z" />
<glyph unicode="&#xab;" horiz-adv-x="1122" d="M127 725l420 418l59 -60l-362 -358l374 -367l-61 -61zM506 725l422 418l57 -60l-362 -358l372 -367l-59 -61z" />
<glyph unicode="&#xac;" horiz-adv-x="1085" d="M127 557v86h831v-317h-84v231h-747z" />
<glyph unicode="&#xad;" horiz-adv-x="743" d="M51 553v82h643v-82h-643z" />
<glyph unicode="&#xae;" horiz-adv-x="1730" d="M139 754q0 89 9 171.5t29 169.5t57 157.5t88.5 127t128.5 88t172 31.5h534q83 0 150.5 -28.5t112 -74t77.5 -111.5t51 -130.5t28.5 -142.5t13.5 -136t3 -122q0 -121 -15.5 -230t-49.5 -205.5t-84 -167t-123.5 -111t-163.5 -40.5h-534q-91 0 -166.5 36.5t-127 98.5 t-89.5 138.5t-59.5 163.5t-31.5 165.5t-10 151.5zM203 754q-1 -121 24.5 -240t75 -221.5t133 -166t187.5 -63.5h534q162 0 267.5 181t105.5 510q0 90 -7.5 170t-23.5 158.5t-45 141t-69 111t-98 75t-130 26.5h-534q-67 0 -125 -19t-113 -67.5t-94 -124t-63 -196t-25 -275.5z M567 313v875h363q56 0 98.5 -10.5t81 -37.5t59.5 -80.5t21 -131.5q0 -34 -4.5 -63.5t-11 -51t-18.5 -39t-22.5 -29t-27 -21t-27.5 -14t-29.5 -8.5t-27.5 -5t-26.5 -2.5t-22.5 -2.5l215 -379h-74l-213 379l-270 15v-394h-64zM631 750h311q103 0 143.5 34.5t40.5 141.5 q0 112 -48.5 155t-135.5 43h-311v-374z" />
<glyph unicode="&#xaf;" horiz-adv-x="794" d="M127 1087v64h543v-64h-543z" />
<glyph unicode="&#xb0;" horiz-adv-x="667" d="M127 1294q0 88 61.5 149.5t147.5 61.5t145.5 -61.5t59.5 -149.5t-59.5 -148.5t-145.5 -60.5q-87 0 -148 61t-61 148zM178 1294q0 -64 46.5 -109.5t111.5 -45.5q64 0 108.5 45t44.5 110t-44.5 111.5t-108.5 46.5t-111 -47t-47 -111z" />
<glyph unicode="&#xb1;" horiz-adv-x="1089" d="M141 246v84h811v-84h-811zM141 825v84h363v363h84v-363h364v-84h-364v-364h-84v364h-363z" />
<glyph unicode="&#xb2;" horiz-adv-x="823" d="M77.5 1695.5q-0.5 12.5 0.5 24.5t2 11q169 20 375 20q266 0 266 -278q0 -45 -20 -97.5t-48 -99t-74 -101t-83 -92.5t-91 -87t-81.5 -71.5l-71.5 -58.5l-43 -35h510v-67h-633v59q12 10 62.5 49.5t84.5 67t90.5 76.5t96.5 88t86.5 90.5t75 94.5t48 90t19.5 87 q0 107 -45.5 162t-165.5 55h-358q-2 0 -2.5 12.5z" />
<glyph unicode="&#xb3;" horiz-adv-x="872" d="M76 1673v45q21 6 44.5 10t53.5 6.5t51 4t61 2t58 0.5h67h64q126 0 187 -65t61 -165v-71q0 -74 -49 -124.5t-96 -60.5q29 -10 59 -31.5t58 -66.5t28 -100v-58q0 -118 -57 -180.5t-201 -62.5q-105 0 -151.5 0.5t-115.5 6.5t-114 19v41h365q112 0 159 40.5t47 144.5v47 q0 81 -59.5 124.5t-138.5 45.5l-291 8v47l291 10q89 3 144.5 44.5t55.5 111.5v63q0 164 -190 164h-391z" />
<glyph unicode="&#xb4;" horiz-adv-x="438" d="M51 1087l238 273h100l-272 -273h-66z" />
<glyph unicode="&#xb5;" horiz-adv-x="1251" d="M227 332v758h84v-758q0 -117 68.5 -190.5t183.5 -73.5q123 0 212 27t216 93v902h84v-1088h-55l-29 127q-231 -145 -428 -145q-167 0 -252 120v-657h-84v885z" />
<glyph unicode="&#xb6;" horiz-adv-x="1177" d="M100 1022v190q0 93 48 160t118.5 97t153.5 30h706v-88h-141v-1411h-84v1415h-287v-1968h-84v1305q-47 -27 -110 -25q-152 0 -236 84.5t-84 210.5zM184 1026q0 -54 19.5 -95t46.5 -63t62.5 -35.5t60.5 -17.5t47 -4h110v604h-110q-114 0 -175 -59.5t-61 -147.5v-182z" />
<glyph unicode="&#xb7;" horiz-adv-x="544" d="M215 756v55q0 33 33 33h51q35 0 35 -33v-55q0 -16 -10 -24.5t-25 -8.5h-51q-14 0 -23.5 9.5t-9.5 23.5z" />
<glyph unicode="&#xb8;" horiz-adv-x="534" d="M127 -319l80 18q50 10 77 28.5t42 65.5t14 131h70q0 -159 -42 -218.5t-165 -59.5h-76v35z" />
<glyph unicode="&#xb9;" horiz-adv-x="532" d="M41 1579v47l262 113h68v-975h-68v903z" />
<glyph unicode="&#xba;" horiz-adv-x="786" d="M76 1126q0 114 13 183.5t49 116.5t97 65t160 18t159.5 -18t96 -65t48 -116.5t12.5 -183.5q0 -83 -8 -139t-28 -101t-56.5 -70.5t-91 -38.5t-132.5 -13q-98 0 -159.5 19t-97.5 64.5t-49 110.5t-13 168zM98 582v57h592v-57h-592zM139 1126q0 -94 12.5 -152t45 -90.5 t77.5 -43.5t121 -11q75 0 117.5 9t75 40.5t44.5 90t13 157.5q1 83 -6.5 137t-23 91t-46.5 56t-71 26.5t-103 7.5q-52 0 -85.5 -3.5t-65 -15t-49 -32.5t-31.5 -57t-19.5 -87t-5.5 -123z" />
<glyph unicode="&#xbb;" horiz-adv-x="1122" d="M127 358l373 367l-361 358l58 60l421 -418l-432 -428zM506 358l373 367l-363 358l62 60l417 -418l-430 -428z" />
<glyph unicode="&#xbc;" horiz-adv-x="1812" d="M41 1339v47l262 113h68v-975h-68v903zM440 0l764 1550h70l-764 -1550h-70zM995 338l404 635h76l-375 -594h473v248l33 98h34v-346h121v-47l-121 -23v-309h-67v309h-557z" />
<glyph unicode="&#xbd;" horiz-adv-x="1953" d="M41 1339v47l262 113h68v-975h-68v903zM418 0l766 1550h69l-766 -1550h-69zM1209.5 934q-0.5 12 0.5 24t2 11q169 20 375 20q266 0 266 -278q0 -45 -19.5 -97.5t-48 -99t-74.5 -100.5t-83 -92.5t-90.5 -86.5t-81.5 -71.5t-71 -58t-44 -35.5h510v-68h-632v59q12 10 62.5 50 t84 67t90.5 76.5t96.5 88t86.5 90t75.5 94.5t48 90.5t19.5 87.5q0 107 -45.5 162t-165.5 55h-359q-2 0 -2.5 12z" />
<glyph unicode="&#xbe;" horiz-adv-x="2062" d="M76 1434v45q25 7 56 11t56 6.5t69 3.5t65.5 1h77.5h75q126 0 187 -64.5t61 -164.5v-72q0 -74 -48.5 -124t-96.5 -60q49 -17 97 -68.5t48 -130.5v-57q0 -118 -57.5 -181t-200.5 -63q-99 0 -150 1t-118.5 7t-112.5 19v41h365q112 0 159 40t47 144v47q0 81 -59.5 124.5 t-138.5 45.5l-291 8v47l291 11q89 3 144.5 44t55.5 111v64q0 164 -190 164h-391zM668 0l764 1550h69l-764 -1550h-69zM1167 340l402 633h73l-374 -596h479v252l29 98h34v-350h123v-43l-123 -25v-307h-63v307h-559z" />
<glyph unicode="&#xbf;" horiz-adv-x="1093" d="M100 39q-1 195 131.5 271.5t397.5 45.5v209h88v-278h-242q-134 -2 -207.5 -64t-74.5 -188v-207q0 -152 75.5 -223t247.5 -70h528q-1 0 0 -28.5t0 -28.5q-284 -32 -536 -27q-97 -1 -169 17.5t-117 51t-73 82.5t-38.5 104.5t-10.5 123.5v209zM614 809v121q0 15 9.5 24 t23.5 9h49q14 0 23.5 -9t9.5 -22v-123q0 -33 -31 -33h-55q-29 3 -29 33z" />
<glyph unicode="&#xc0;" d="M115 0l557 1499h96l535 -1499h-97l-168 483h-653l-172 -483h-98zM416 567h592l-289 822zM416 1905h100l238 -273h-66z" />
<glyph unicode="&#xc1;" d="M115 0l557 1499h96l535 -1499h-97l-168 483h-653l-172 -483h-98zM416 567h592l-289 822zM688 1632l238 273h100l-272 -273h-66z" />
<glyph unicode="&#xc2;" d="M115 0l557 1499h96l535 -1499h-97l-168 483h-653l-172 -483h-98zM416 567h592l-289 822zM434 1632l260 266h76l236 -266h-74l-201 205l-223 -205h-74z" />
<glyph unicode="&#xc3;" d="M115 0l557 1499h96l535 -1499h-97l-168 483h-653l-172 -483h-98zM375 1702q50 43 75.5 62.5t68.5 40t81 20.5q37 -1 85.5 -31.5t91.5 -61t69 -30.5q17 0 36 5t33 10.5t36.5 19t31 19.5t32.5 23t27 19l25 -39q-81 -73 -115 -94q-56 -34 -108 -33q-41 1 -87.5 31.5t-88 61 t-70.5 30.5t-57.5 -9.5t-45 -18.5t-50.5 -31.5t-50 -32.5zM416 567h592l-289 822z" />
<glyph unicode="&#xc4;" d="M115 0l557 1499h96l535 -1499h-97l-168 483h-653l-172 -483h-98zM401 1692q0 25 16.5 41t41.5 16t42 -16t17 -41t-17 -42.5t-42 -17.5t-41.5 17.5t-16.5 42.5zM416 567h592l-289 822zM922 1692q0 25 17 41t42 16t42 -16t17 -41t-17 -42.5t-42 -17.5t-42 17.5t-17 42.5z " />
<glyph unicode="&#xc5;" d="M115 0l557 1499h96l535 -1499h-97l-168 483h-653l-172 -483h-98zM416 567h592l-289 822zM514 1704q0 88 61.5 149.5t147.5 61.5t145.5 -61.5t59.5 -149.5t-59.5 -148.5t-145.5 -60.5q-87 0 -148 61t-61 148zM565 1704q0 -64 46.5 -110t111.5 -46q64 0 109 45.5t45 110.5 t-45 111.5t-109 46.5q-65 0 -111.5 -47t-46.5 -111z" />
<glyph unicode="&#xc6;" horiz-adv-x="1900" d="M76 0l715 1219q101 174 185.5 229.5t240.5 50.5l585 -24v-60h-585q-51 0 -84.5 -8t-51 -19t-26 -34.5t-10 -43.5t-1.5 -57v-32v-439l676 -12v-61l-676 -13v-446q0 -47 12 -80t29 -50t45.5 -26.5t51 -11.5t57.5 -2h563v-62l-563 -26q-44 -2 -80.5 2t-74.5 19.5t-64 42.5 t-42.5 76t-16.5 116v252h-496l-293 -500h-96zM512 582h449v759z" />
<glyph unicode="&#xc7;" horiz-adv-x="1171" d="M139 754q0 125 8.5 221.5t28.5 186t56.5 152t91 109.5t133 70t180.5 23q79 0 215 -15t244 -35v-61l-16 1q-16 2 -43.5 4.5t-63 5t-78 5.5t-85.5 5.5t-89 4t-84 1.5q-90 0 -154 -18.5t-115.5 -64t-82 -123.5t-46.5 -195t-16 -281q0 -329 99.5 -503.5t316.5 -174.5 q96 0 210 5t181 10l66 5v-59q-103 -19 -239 -32t-220 -13q-111 0 -197 38t-142.5 104.5t-92.5 164.5t-51 210t-15 249zM440 -317l80 18q50 10 77 28.5t42 65.5t14 131h70q0 -159 -42 -218.5t-165 -59.5h-76v35z" />
<glyph unicode="&#xc8;" horiz-adv-x="1179" d="M201 252v981q0 73 21 126.5t58.5 83.5t82 44t96.5 12l622 -24v-60h-622q-90 0 -132 -45t-42 -137v-447l714 -14v-59l-714 -15v-446q0 -58 16 -95t47 -53t59.5 -21t71.5 -5h602v-60l-602 -24q-57 -3 -101.5 5.5t-87 34t-66 80.5t-23.5 138zM393 1894h101l237 -272h-65z " />
<glyph unicode="&#xc9;" horiz-adv-x="1179" d="M201 252v981q0 73 21 126.5t58.5 83.5t82 44t96.5 12l622 -24v-60h-622q-90 0 -132 -45t-42 -137v-447l714 -14v-59l-714 -15v-446q0 -58 16 -95t47 -53t59.5 -21t71.5 -5h602v-60l-602 -24q-57 -3 -101.5 5.5t-87 34t-66 80.5t-23.5 138zM649 1622l238 272h100 l-272 -272h-66z" />
<glyph unicode="&#xca;" horiz-adv-x="1179" d="M201 252v981q0 73 21 126.5t58.5 83.5t82 44t96.5 12l622 -24v-60h-622q-90 0 -132 -45t-42 -137v-447l714 -14v-59l-714 -15v-446q0 -58 16 -95t47 -53t59.5 -21t71.5 -5h602v-60l-602 -24q-57 -3 -101.5 5.5t-87 34t-66 80.5t-23.5 138zM389 1632l260 266h76l236 -266 h-74l-201 205l-223 -205h-74z" />
<glyph unicode="&#xcb;" horiz-adv-x="1179" d="M201 252v981q0 73 21 126.5t58.5 83.5t82 44t96.5 12l622 -24v-60h-622q-90 0 -132 -45t-42 -137v-447l714 -14v-59l-714 -15v-446q0 -58 16 -95t47 -53t59.5 -21t71.5 -5h602v-60l-602 -24q-57 -3 -101.5 5.5t-87 34t-66 80.5t-23.5 138zM340 1726q0 25 16 41.5t41 16.5 t42.5 -16.5t17.5 -41.5t-17.5 -42t-42.5 -17t-41 17t-16 42zM860 1726q0 25 17.5 41.5t42.5 16.5t42 -16.5t17 -41.5t-17 -42t-42 -17t-42.5 17t-17.5 42z" />
<glyph unicode="&#xcc;" horiz-adv-x="417" d="M-61 1905h100l237 -273h-65zM201 0v1499h84v-1499h-84z" />
<glyph unicode="&#xcd;" horiz-adv-x="417" d="M201 0v1499h84v-1499h-84zM211 1632l238 273h100l-273 -273h-65z" />
<glyph unicode="&#xce;" horiz-adv-x="417" d="M-41 1632l260 266h76l235 -266h-73l-201 205l-223 -205h-74zM201 0v1499h84v-1499h-84z" />
<glyph unicode="&#xcf;" horiz-adv-x="417" d="M-76 1692q0 25 16.5 41t41.5 16t42 -16t17 -41t-17 -42.5t-42 -17.5t-41.5 17.5t-16.5 42.5zM201 0v1499h84v-1499h-84zM444 1692q0 24 17.5 40.5t42.5 16.5t42 -16t17 -41t-17 -42.5t-42 -17.5t-42.5 17.5t-17.5 42.5z" />
<glyph unicode="&#xd0;" horiz-adv-x="1363" d="M68 735v58h133v706h520q96 0 175 -26.5t133 -69.5t95 -105.5t64.5 -127.5t38 -143.5t19.5 -144.5t5 -139q0 -106 -17.5 -208t-58.5 -200t-100.5 -171.5t-151 -118.5t-202.5 -45h-520v735h-133zM285 86h436q92 0 167.5 39t126 104t85 151.5t50 178t15.5 186.5 q0 339 -116 502.5t-328 163.5h-436v-618h313v-58h-313v-649z" />
<glyph unicode="&#xd1;" horiz-adv-x="1372" d="M201 0v1499h88l866 -1341v1341h84v-1499h-84l-870 1341v-1341h-84zM375 1702q50 43 75.5 62.5t68.5 40t81 20.5q37 -1 85.5 -31.5t91.5 -61t69 -30.5q17 0 36 5t33 10.5t36.5 19t31 19.5t32.5 23t27 19l25 -39q-81 -73 -115 -94q-56 -34 -108 -33q-41 1 -87.5 31.5 t-88 61t-70.5 30.5t-57.5 -9.5t-45 -18.5t-50.5 -31.5t-50 -32.5z" />
<glyph unicode="&#xd2;" horiz-adv-x="1382" d="M164 739q0 116 8 211.5t22 169t38 131t50.5 98.5t65 70t76 46.5t89.5 27t100 13t112 3.5q65 0 113 -3.5t100 -13t89 -27t75.5 -46.5t64.5 -70t49 -98.5t36.5 -131.5t21.5 -169t8 -211q0 -124 -8.5 -222.5t-27 -173.5t-43 -131t-62 -95t-77.5 -63.5t-96.5 -38t-112 -18.5 t-130.5 -5q-60 0 -105.5 2.5t-94.5 9.5t-84.5 20.5t-72 34t-62.5 51t-50.5 72t-40.5 95.5t-28 122.5t-17.5 153t-5.5 186.5zM248 739q0 -110 5.5 -195.5t19.5 -153.5t32.5 -116.5t49 -84t64.5 -57t83.5 -34.5t101 -17.5t121.5 -4.5q91 0 153.5 9.5t119.5 35.5t91.5 71.5 t60.5 120t37 178.5t11 248q0 138 -10.5 242t-28 177t-50.5 122.5t-66.5 78t-89 43.5t-104 19t-124.5 4q-66 0 -105.5 -2.5t-92 -11.5t-83 -28t-67 -51.5t-56.5 -83.5t-39 -121.5t-26.5 -167.5t-7.5 -220zM420 1905h100l238 -273h-66z" />
<glyph unicode="&#xd3;" horiz-adv-x="1382" d="M164 739q0 116 8 211.5t22 169t38 131t50.5 98.5t65 70t76 46.5t89.5 27t100 13t112 3.5q65 0 113 -3.5t100 -13t89 -27t75.5 -46.5t64.5 -70t49 -98.5t36.5 -131.5t21.5 -169t8 -211q0 -124 -8.5 -222.5t-27 -173.5t-43 -131t-62 -95t-77.5 -63.5t-96.5 -38t-112 -18.5 t-130.5 -5q-60 0 -105.5 2.5t-94.5 9.5t-84.5 20.5t-72 34t-62.5 51t-50.5 72t-40.5 95.5t-28 122.5t-17.5 153t-5.5 186.5zM248 739q0 -110 5.5 -195.5t19.5 -153.5t32.5 -116.5t49 -84t64.5 -57t83.5 -34.5t101 -17.5t121.5 -4.5q91 0 153.5 9.5t119.5 35.5t91.5 71.5 t60.5 120t37 178.5t11 248q0 138 -10.5 242t-28 177t-50.5 122.5t-66.5 78t-89 43.5t-104 19t-124.5 4q-66 0 -105.5 -2.5t-92 -11.5t-83 -28t-67 -51.5t-56.5 -83.5t-39 -121.5t-26.5 -167.5t-7.5 -220zM692 1632l238 273h100l-272 -273h-66z" />
<glyph unicode="&#xd4;" horiz-adv-x="1382" d="M164 739q0 116 8 211.5t22 169t38 131t50.5 98.5t65 70t76 46.5t89.5 27t100 13t112 3.5q65 0 113 -3.5t100 -13t89 -27t75.5 -46.5t64.5 -70t49 -98.5t36.5 -131.5t21.5 -169t8 -211q0 -124 -8.5 -222.5t-27 -173.5t-43 -131t-62 -95t-77.5 -63.5t-96.5 -38t-112 -18.5 t-130.5 -5q-60 0 -105.5 2.5t-94.5 9.5t-84.5 20.5t-72 34t-62.5 51t-50.5 72t-40.5 95.5t-28 122.5t-17.5 153t-5.5 186.5zM248 739q0 -110 5.5 -195.5t19.5 -153.5t32.5 -116.5t49 -84t64.5 -57t83.5 -34.5t101 -17.5t121.5 -4.5q91 0 153.5 9.5t119.5 35.5t91.5 71.5 t60.5 120t37 178.5t11 248q0 138 -10.5 242t-28 177t-50.5 122.5t-66.5 78t-89 43.5t-104 19t-124.5 4q-66 0 -105.5 -2.5t-92 -11.5t-83 -28t-67 -51.5t-56.5 -83.5t-39 -121.5t-26.5 -167.5t-7.5 -220zM438 1632l260 266h76l236 -266h-74l-201 205l-223 -205h-74z" />
<glyph unicode="&#xd5;" horiz-adv-x="1382" d="M164 739q0 116 8 211.5t22 169t38 131t50.5 98.5t65 70t76 46.5t89.5 27t100 13t112 3.5q65 0 113 -3.5t100 -13t89 -27t75.5 -46.5t64.5 -70t49 -98.5t36.5 -131.5t21.5 -169t8 -211q0 -124 -8.5 -222.5t-27 -173.5t-43 -131t-62 -95t-77.5 -63.5t-96.5 -38t-112 -18.5 t-130.5 -5q-60 0 -105.5 2.5t-94.5 9.5t-84.5 20.5t-72 34t-62.5 51t-50.5 72t-40.5 95.5t-28 122.5t-17.5 153t-5.5 186.5zM248 739q0 -110 5.5 -195.5t19.5 -153.5t32.5 -116.5t49 -84t64.5 -57t83.5 -34.5t101 -17.5t121.5 -4.5q91 0 153.5 9.5t119.5 35.5t91.5 71.5 t60.5 120t37 178.5t11 248q0 138 -10.5 242t-28 177t-50.5 122.5t-66.5 78t-89 43.5t-104 19t-124.5 4q-66 0 -105.5 -2.5t-92 -11.5t-83 -28t-67 -51.5t-56.5 -83.5t-39 -121.5t-26.5 -167.5t-7.5 -220zM379 1702q50 43 75.5 62.5t68.5 40t81 20.5q37 -1 85.5 -31.5 t91.5 -61t69 -30.5q17 0 36.5 5.5t32.5 10.5t37 19t31 18.5t33 23.5t27 19l24 -39q-81 -73 -115 -94q-56 -34 -108 -33q-41 1 -87.5 31.5t-88 61t-70.5 30.5t-57.5 -9.5t-45 -18.5t-50.5 -31.5t-50 -32.5z" />
<glyph unicode="&#xd6;" horiz-adv-x="1382" d="M164 739q0 116 8 211.5t22 169t38 131t50.5 98.5t65 70t76 46.5t89.5 27t100 13t112 3.5q65 0 113 -3.5t100 -13t89 -27t75.5 -46.5t64.5 -70t49 -98.5t36.5 -131.5t21.5 -169t8 -211q0 -124 -8.5 -222.5t-27 -173.5t-43 -131t-62 -95t-77.5 -63.5t-96.5 -38t-112 -18.5 t-130.5 -5q-60 0 -105.5 2.5t-94.5 9.5t-84.5 20.5t-72 34t-62.5 51t-50.5 72t-40.5 95.5t-28 122.5t-17.5 153t-5.5 186.5zM248 739q0 -110 5.5 -195.5t19.5 -153.5t32.5 -116.5t49 -84t64.5 -57t83.5 -34.5t101 -17.5t121.5 -4.5q91 0 153.5 9.5t119.5 35.5t91.5 71.5 t60.5 120t37 178.5t11 248q0 138 -10.5 242t-28 177t-50.5 122.5t-66.5 78t-89 43.5t-104 19t-124.5 4q-66 0 -105.5 -2.5t-92 -11.5t-83 -28t-67 -51.5t-56.5 -83.5t-39 -121.5t-26.5 -167.5t-7.5 -220zM406 1692q0 25 16 41t41 16t42 -16t17 -41t-17 -42.5t-42 -17.5 q-24 0 -40.5 17.5t-16.5 42.5zM926 1692q0 25 17 41t42 16t42 -16t17 -41t-17 -42.5t-42 -17.5t-42 17.5t-17 42.5z" />
<glyph unicode="&#xd7;" horiz-adv-x="909" d="M141 471l258 258l-258 256l60 62l258 -259l258 259l59 -60l-258 -258l256 -258l-59 -59l-256 258l-258 -258z" />
<glyph unicode="&#xd8;" horiz-adv-x="1382" d="M164 739q0 116 8 211t21.5 169t37.5 131.5t50 98.5t64.5 70t76 46.5t89.5 27t100 13t112 3.5q140 0 232 -20t157 -80l57 90h68l-84 -131q129 -167 129 -629q0 -110 -7.5 -200t-20.5 -161t-35.5 -126.5t-48 -96.5t-62.5 -69.5t-75.5 -47t-90.5 -28.5t-102.5 -14t-116.5 -4 q-144 0 -236.5 19.5t-156.5 76.5l-58 -88h-65l82 129q-63 81 -94 227.5t-31 382.5zM248 739q0 -205 22.5 -331.5t71.5 -198.5l723 1128q-55 55 -134 71.5t-208 16.5q-66 0 -105.5 -2.5t-91.5 -11.5t-83 -28t-67 -51.5t-56 -83.5t-38.5 -121.5t-26 -167.5t-7.5 -220zM379 164 q54 -51 134 -69.5t210 -18.5q68 0 118.5 5t99 18t82.5 35.5t64.5 58t50 85t34 116.5t20.5 152t6 193q0 405 -94 551z" />
<glyph unicode="&#xd9;" horiz-adv-x="1392" d="M201 655v844h84v-844q0 -96 7.5 -173t18 -134.5t33 -101t40.5 -72.5t54.5 -48.5t60.5 -30t72 -15.5t76 -5.5t86 -0.5h4q47 0 78 1.5t72.5 7.5t69.5 17.5t60.5 32t54 50t43 73.5t34 100t20 131.5t7.5 167.5v844h86v-844q0 -108 -10.5 -197t-26 -154t-45 -115.5t-55 -83.5 t-68.5 -55.5t-73 -34t-81.5 -17.5t-81.5 -7t-84 -1h-13q-61 0 -91.5 1t-84.5 6.5t-82.5 17t-71.5 34t-66 55.5t-51.5 83t-42 115.5t-23.5 154.5t-10 198zM426 1905h100l238 -273h-66z" />
<glyph unicode="&#xda;" horiz-adv-x="1392" d="M201 655v844h84v-844q0 -96 7.5 -173t18 -134.5t33 -101t40.5 -72.5t54.5 -48.5t60.5 -30t72 -15.5t76 -5.5t86 -0.5h4q47 0 78 1.5t72.5 7.5t69.5 17.5t60.5 32t54 50t43 73.5t34 100t20 131.5t7.5 167.5v844h86v-844q0 -108 -10.5 -197t-26 -154t-45 -115.5t-55 -83.5 t-68.5 -55.5t-73 -34t-81.5 -17.5t-81.5 -7t-84 -1h-13q-61 0 -91.5 1t-84.5 6.5t-82.5 17t-71.5 34t-66 55.5t-51.5 83t-42 115.5t-23.5 154.5t-10 198zM698 1632l238 273h100l-272 -273h-66z" />
<glyph unicode="&#xdb;" horiz-adv-x="1392" d="M201 655v844h84v-844q0 -96 7.5 -173t18 -134.5t33 -101t40.5 -72.5t54.5 -48.5t60.5 -30t72 -15.5t76 -5.5t86 -0.5h4q47 0 78 1.5t72.5 7.5t69.5 17.5t60.5 32t54 50t43 73.5t34 100t20 131.5t7.5 167.5v844h86v-844q0 -108 -10.5 -197t-26 -154t-45 -115.5t-55 -83.5 t-68.5 -55.5t-73 -34t-81.5 -17.5t-81.5 -7t-84 -1h-13q-61 0 -91.5 1t-84.5 6.5t-82.5 17t-71.5 34t-66 55.5t-51.5 83t-42 115.5t-23.5 154.5t-10 198zM446 1632l261 266h75l236 -266h-74l-201 205l-223 -205h-74z" />
<glyph unicode="&#xdc;" horiz-adv-x="1392" d="M201 655v844h84v-844q0 -96 7.5 -173t18 -134.5t33 -101t40.5 -72.5t54.5 -48.5t60.5 -30t72 -15.5t76 -5.5t86 -0.5h4q47 0 78 1.5t72.5 7.5t69.5 17.5t60.5 32t54 50t43 73.5t34 100t20 131.5t7.5 167.5v844h86v-844q0 -108 -10.5 -197t-26 -154t-45 -115.5t-55 -83.5 t-68.5 -55.5t-73 -34t-81.5 -17.5t-81.5 -7t-84 -1h-13q-61 0 -91.5 1t-84.5 6.5t-82.5 17t-71.5 34t-66 55.5t-51.5 83t-42 115.5t-23.5 154.5t-10 198zM412 1692q0 25 16 41t41 16t42 -16t17 -41t-17 -42.5t-42 -17.5q-24 0 -40.5 17.5t-16.5 42.5zM932 1692q0 25 17 41 t42 16t42.5 -16.5t17.5 -40.5q0 -25 -17.5 -42.5t-42.5 -17.5t-42 17.5t-17 42.5z" />
<glyph unicode="&#xdd;" horiz-adv-x="1273" d="M115 1499h92l440 -864l479 864h95l-533 -967v-532h-84v532zM635 1632l237 273h101l-273 -273h-65z" />
<glyph unicode="&#xde;" horiz-adv-x="1136" d="M152 0v1493h84v-289h430q54 0 100.5 -9.5t96 -38.5t84 -75.5t57 -126.5t22.5 -186q0 -87 -12.5 -157t-32 -117.5t-49.5 -83t-60 -55t-68.5 -31.5t-69.5 -15.5t-68 -3.5q-310 7 -430 27v-332h-84zM236 389h430q65 0 113 17.5t86 59t57.5 118.5t19.5 188q-1 89 -19.5 155 t-45.5 101.5t-66.5 57t-72 27.5t-72.5 7h-430v-731z" />
<glyph unicode="&#xdf;" horiz-adv-x="1161" d="M152 0v1159q0 188 113.5 310t322.5 122q125 0 216 -27t139 -72t71 -102.5t16 -119.5t-30.5 -121.5t-63.5 -110.5t-88 -84q-32 -25 -76 -56.5t-66 -48t-45.5 -39.5t-33 -46t-9.5 -51q0 -41 27 -66.5t71 -37t96.5 -20.5t105.5 -21.5t96.5 -33t71.5 -63t28 -104.5v-97 q0 -141 -92 -213.5t-231 -72.5q-158 0 -355 32v62q25 -1 91 -3.5t135 -4.5t131 -2q65 0 113 19t73.5 50.5t37.5 64.5t13 68v97q0 45 -27 73.5t-70.5 41t-96.5 21t-106 19.5t-96.5 30t-71 59.5t-27.5 101.5q0 30 4 53t20.5 48t29.5 41t52 47t66 50.5t92 65.5q52 36 92.5 98.5 t50.5 128.5q23 131 -73 196.5t-281 65.5q-163 0 -257.5 -89t-94.5 -259v-1159h-84z" />
<glyph unicode="&#xe0;" horiz-adv-x="1062" d="M100 258v125q0 127 73.5 199.5t199.5 72.5q481 -2 481 0q2 136 0 138q0 232 -231 235q-174 2 -488 -39v55q237 62 490 64q137 2 225 -76.5t88 -238.5v-793h-57l-27 131l-32 -15q-32 -14 -83.5 -35t-111.5 -42.5t-129.5 -36t-124.5 -14.5q-117 0 -195 72t-78 198zM184 268 q0 -101 55 -147.5t134 -48.5q73 -1 193 28t204 58l84 30v408l-481 -25q-99 -4 -144 -56t-45 -136v-111zM248 1503h100l238 -272h-66z" />
<glyph unicode="&#xe1;" horiz-adv-x="1062" d="M100 258v125q0 127 73.5 199.5t199.5 72.5q481 -2 481 0q2 136 0 138q0 232 -231 235q-174 2 -488 -39v55q237 62 490 64q137 2 225 -76.5t88 -238.5v-793h-57l-27 131l-32 -15q-32 -14 -83.5 -35t-111.5 -42.5t-129.5 -36t-124.5 -14.5q-117 0 -195 72t-78 198zM184 268 q0 -101 55 -147.5t134 -48.5q73 -1 193 28t204 58l84 30v408l-481 -25q-99 -4 -144 -56t-45 -136v-111zM508 1231l237 272h101l-273 -272h-65z" />
<glyph unicode="&#xe2;" horiz-adv-x="1062" d="M100 258v125q0 127 73.5 199.5t199.5 72.5q481 -2 481 0q2 136 0 138q0 232 -231 235q-174 2 -488 -39v55q237 62 490 64q137 2 225 -76.5t88 -238.5v-793h-57l-27 131l-32 -15q-32 -14 -83.5 -35t-111.5 -42.5t-129.5 -36t-124.5 -14.5q-117 0 -195 72t-78 198zM184 268 q0 -101 55 -147.5t134 -48.5q73 -1 193 28t204 58l84 30v408l-481 -25q-99 -4 -144 -56t-45 -136v-111zM262 1231l260 266h76l236 -266h-74l-201 205l-223 -205h-74z" />
<glyph unicode="&#xe3;" horiz-adv-x="1062" d="M100 258v125q0 127 73.5 199.5t199.5 72.5q481 -2 481 0q2 136 0 138q0 232 -231 235q-174 2 -488 -39v55q237 62 490 64q137 2 225 -76.5t88 -238.5v-793h-57l-27 131l-32 -15q-32 -14 -83.5 -35t-111.5 -42.5t-129.5 -36t-124.5 -14.5q-117 0 -195 72t-78 198zM184 268 q0 -101 55 -147.5t134 -48.5q73 -1 193 28t204 58l84 30v408l-481 -25q-99 -4 -144 -56t-45 -136v-111zM190 1315q49 42 75.5 62.5t69.5 40.5t81 20q37 -1 85.5 -31.5t91.5 -61t69 -30.5q17 0 36 5t33 10.5t36.5 19t31 19.5t32.5 23t27 19l25 -39q-82 -74 -118 -95 q-55 -33 -106 -32q-32 1 -68.5 20t-63.5 42t-58.5 42t-54.5 19q-29 0 -57.5 -9.5t-45 -18.5t-50.5 -31.5t-50 -32.5z" />
<glyph unicode="&#xe4;" horiz-adv-x="1062" d="M100 258v125q0 127 73.5 199.5t199.5 72.5q481 -2 481 0q2 136 0 138q0 232 -231 235q-174 2 -488 -39v55q237 62 490 64q137 2 225 -76.5t88 -238.5v-793h-57l-27 131l-32 -15q-32 -14 -83.5 -35t-111.5 -42.5t-129.5 -36t-124.5 -14.5q-117 0 -195 72t-78 198zM184 268 q0 -101 55 -147.5t134 -48.5q73 -1 193 28t204 58l84 30v408l-481 -25q-99 -4 -144 -56t-45 -136v-111zM225 1335q0 25 16.5 41.5t41.5 16.5t42 -16.5t17 -41.5t-17 -42t-42 -17t-41.5 17t-16.5 42zM745 1335q0 25 17.5 41.5t42.5 16.5t42 -16.5t17 -41.5t-17 -42t-42 -17 t-42.5 17t-17.5 42z" />
<glyph unicode="&#xe5;" horiz-adv-x="1062" d="M100 258v125q0 127 73.5 199.5t199.5 72.5q481 -2 481 0q2 136 0 138q0 232 -231 235q-174 2 -488 -39v55q237 62 490 64q137 2 225 -76.5t88 -238.5v-793h-57l-27 131l-32 -15q-32 -14 -83.5 -35t-111.5 -42.5t-129.5 -36t-124.5 -14.5q-117 0 -195 72t-78 198zM184 268 q0 -101 55 -147.5t134 -48.5q73 -1 193 28t204 58l84 30v408l-481 -25q-99 -4 -144 -56t-45 -136v-111zM332 1378q0 88 61.5 149.5t147.5 61.5t145 -61.5t59 -149.5t-59 -148.5t-145 -60.5q-87 0 -148 61t-61 148zM383 1378q0 -64 46.5 -109.5t111.5 -45.5q64 0 108.5 45 t44.5 110t-44.5 111.5t-108.5 46.5q-65 0 -111.5 -47t-46.5 -111z" />
<glyph unicode="&#xe6;" horiz-adv-x="1806" d="M100 262v68q0 127 73.5 199.5t199.5 72.5q481 -2 481 0q2 193 0 195q0 232 -231 235q-169 2 -488 -39v56q212 60 490 63q103 2 180 -44.5t108 -139.5q38 98 128.5 134t250.5 36q66 0 102.5 -1.5t88 -8.5t79 -21t60.5 -40.5t48.5 -65.5t26.5 -96.5t11 -133.5 q0 -116 -70 -166.5t-211 -50.5h-487v-96t2 -81t6 -69.5t11 -55.5t17.5 -46t26 -34t35 -26t46 -16t58 -11t72.5 -3q224 -2 474 35v-62q-201 -57 -474 -57q-79 0 -137 12t-92.5 35.5t-51.5 41t-36 45.5l-6 9l-35 -15q-36 -14 -93 -35t-123 -42.5t-139 -36t-128 -14.5 q-117 0 -195 72t-78 198zM184 272q0 -101 55 -147.5t134 -48.5q73 -1 193 31t204 64l84 32v338l-481 -19q-99 -4 -144 -56t-45 -136v-58zM940 596h487q100 0 148.5 27t48.5 108q0 69 -6.5 116.5t-26 79.5t-39.5 49t-65 25.5t-82.5 10.5t-110.5 2q-75 0 -123.5 -5.5t-91 -22 t-66.5 -44.5t-41.5 -76t-24 -112t-7.5 -158z" />
<glyph unicode="&#xe7;" horiz-adv-x="1024" d="M127 545q0 139 17.5 240t47 161t76.5 95t97 47t118 12q76 0 198.5 -16.5t227.5 -39.5v-57q-244 29 -426 29q-54 0 -91.5 -9t-74.5 -37.5t-58.5 -80.5t-34.5 -140t-13 -212q0 -141 18.5 -234.5t56 -143t84 -68.5t113.5 -19q84 0 194.5 9t179.5 19l69 9v-62 q-119 -34 -213.5 -45.5t-229.5 -13.5q-66 0 -115.5 12t-97 47t-77.5 95.5t-48 162t-18 240.5zM336 -315l82 16q49 10 76 28.5t42.5 65.5t14.5 131h70q0 -159 -42 -218.5t-165 -59.5h-78v37z" />
<glyph unicode="&#xe8;" horiz-adv-x="1075" d="M127 549q0 91 5.5 162t18.5 126.5t30.5 96t45.5 69.5t59 47t75.5 28.5t90.5 14t109 3.5q61 0 102 -2.5t88.5 -11t78 -24.5t60.5 -44.5t47 -69t27.5 -99t10.5 -134.5q0 -116 -68.5 -165.5t-210.5 -49.5h-485q0 -106 12.5 -182t33.5 -122.5t56.5 -73t74.5 -35.5t95 -9 q237 0 471 35v-62q-212 -60 -471 -57q-106 1 -173.5 30t-109 97.5t-57.5 170.5t-16 261zM211 578h485q35 0 61 2.5t53 10.5t43.5 22.5t27 39t10.5 58.5q0 59 -6.5 103.5t-17.5 77t-32 54t-44.5 35t-61.5 20.5t-75 9t-93 2q-54 0 -91.5 -2.5t-75 -10t-61.5 -21t-46.5 -36 t-35 -54t-22.5 -77t-14 -102t-4 -131.5zM276 1487h101l237 -273h-65z" />
<glyph unicode="&#xe9;" horiz-adv-x="1075" d="M127 549q0 91 5.5 162t18.5 126.5t30.5 96t45.5 69.5t59 47t75.5 28.5t90.5 14t109 3.5q61 0 102 -2.5t88.5 -11t78 -24.5t60.5 -44.5t47 -69t27.5 -99t10.5 -134.5q0 -116 -68.5 -165.5t-210.5 -49.5h-485q0 -106 12.5 -182t33.5 -122.5t56.5 -73t74.5 -35.5t95 -9 q237 0 471 35v-62q-212 -60 -471 -57q-106 1 -173.5 30t-109 97.5t-57.5 170.5t-16 261zM211 578h485q35 0 61 2.5t53 10.5t43.5 22.5t27 39t10.5 58.5q0 59 -6.5 103.5t-17.5 77t-32 54t-44.5 35t-61.5 20.5t-75 9t-93 2q-54 0 -91.5 -2.5t-75 -10t-61.5 -21t-46.5 -36 t-35 -54t-22.5 -77t-14 -102t-4 -131.5zM535 1214l237 273h100l-272 -273h-65z" />
<glyph unicode="&#xea;" horiz-adv-x="1075" d="M127 549q0 91 5.5 162t18.5 126.5t30.5 96t45.5 69.5t59 47t75.5 28.5t90.5 14t109 3.5q61 0 102 -2.5t88.5 -11t78 -24.5t60.5 -44.5t47 -69t27.5 -99t10.5 -134.5q0 -116 -68.5 -165.5t-210.5 -49.5h-485q0 -106 12.5 -182t33.5 -122.5t56.5 -73t74.5 -35.5t95 -9 q237 0 471 35v-62q-212 -60 -471 -57q-106 1 -173.5 30t-109 97.5t-57.5 170.5t-16 261zM211 578h485q35 0 61 2.5t53 10.5t43.5 22.5t27 39t10.5 58.5q0 59 -6.5 103.5t-17.5 77t-32 54t-44.5 35t-61.5 20.5t-75 9t-93 2q-54 0 -91.5 -2.5t-75 -10t-61.5 -21t-46.5 -36 t-35 -54t-22.5 -77t-14 -102t-4 -131.5zM272 1214l260 267h76l236 -267h-74l-201 205l-223 -205h-74z" />
<glyph unicode="&#xeb;" horiz-adv-x="1075" d="M127 549q0 91 5.5 162t18.5 126.5t30.5 96t45.5 69.5t59 47t75.5 28.5t90.5 14t109 3.5q61 0 102 -2.5t88.5 -11t78 -24.5t60.5 -44.5t47 -69t27.5 -99t10.5 -134.5q0 -116 -68.5 -165.5t-210.5 -49.5h-485q0 -106 12.5 -182t33.5 -122.5t56.5 -73t74.5 -35.5t95 -9 q237 0 471 35v-62q-212 -60 -471 -57q-106 1 -173.5 30t-109 97.5t-57.5 170.5t-16 261zM211 578h485q35 0 61 2.5t53 10.5t43.5 22.5t27 39t10.5 58.5q0 59 -6.5 103.5t-17.5 77t-32 54t-44.5 35t-61.5 20.5t-75 9t-93 2q-54 0 -91.5 -2.5t-75 -10t-61.5 -21t-46.5 -36 t-35 -54t-22.5 -77t-14 -102t-4 -131.5zM246 1319q0 25 16 41t41 16t42 -16t17 -41t-17 -42t-42 -17t-41 17t-16 42zM766 1319q0 25 17 41t42 16t42.5 -16.5t17.5 -40.5q0 -25 -17.5 -42t-42.5 -17t-42 17t-17 42z" />
<glyph unicode="&#xec;" horiz-adv-x="385" d="M-113 1493h101l237 -272h-65zM152 0v1087h84v-1087h-84z" />
<glyph unicode="&#xed;" horiz-adv-x="385" d="M152 0v1087h84v-1087h-84zM160 1221l237 272h101l-273 -272h-65z" />
<glyph unicode="&#xee;" horiz-adv-x="385" d="M-92 1221l260 266h76l235 -266h-73l-201 204l-223 -204h-74zM152 0v1087h84v-1087h-84z" />
<glyph unicode="&#xef;" horiz-adv-x="385" d="M-125 1280q0 25 16 41t41 16t42.5 -16.5t17.5 -40.5q0 -25 -17.5 -42t-42.5 -17t-41 17t-16 42zM152 0v1087h84v-1087h-84zM395 1280q0 24 17.5 40.5t42.5 16.5t42 -16t17 -41t-17 -42t-42 -17t-42.5 17t-17.5 42z" />
<glyph unicode="&#xf0;" horiz-adv-x="1103" d="M100 541q0 274 83 410t282 136h164q82 0 150 -33t89 -67q-58 257 -190 389l-318 -127l-24 60l285 114q-141 107 -349 107v74q266 0 437 -148l254 100l26 -59l-229 -90q237 -265 237 -866q0 -120 -17.5 -212.5t-49 -154t-78 -101t-101 -56.5t-122.5 -17h-164 q-105 0 -175.5 32t-112.5 101.5t-59.5 167.5t-17.5 240zM184 541q0 -117 13.5 -199.5t35.5 -131.5t59.5 -76.5t76.5 -36.5t96 -9h164q67 0 117.5 22.5t81.5 61.5t50.5 98t27 123.5t7.5 147.5q0 60 -2.5 106t-10 96.5t-20 87t-34 71t-51 56t-71.5 34t-95 12.5h-164 q-53 0 -93 -11t-77 -41t-60.5 -80.5t-37 -133.5t-13.5 -197z" />
<glyph unicode="&#xf1;" horiz-adv-x="1124" d="M152 0v1087h55l29 -126q231 145 428 145q155 0 245 -102.5t90 -245.5v-758h-84v758q0 117 -68 190.5t-183 73.5q-121 0 -209.5 -28t-218.5 -95v-899h-84zM229 1298q49 42 75.5 62.5t69.5 40.5t81 20q37 -1 85 -31.5t91 -61t69 -30.5q17 0 36 5.5t33.5 11t36.5 19t31 19.5 t32.5 22.5t27.5 19.5l25 -39q-82 -74 -118 -95q-55 -33 -106 -32q-32 1 -68.5 20t-63.5 42t-58.5 42t-54.5 19q-29 0 -57.5 -9.5t-45 -18.5t-50.5 -31.5t-50 -32.5z" />
<glyph unicode="&#xf2;" horiz-adv-x="1169" d="M127 528q0 168 23.5 276.5t79.5 174.5t140 92.5t214 26.5q134 0 223 -32t141.5 -104t74 -175.5t21.5 -258.5q0 -153 -22 -253t-76 -165t-141 -92.5t-221 -27.5q-137 0 -224.5 28.5t-139.5 95.5t-72.5 164.5t-20.5 249.5zM211 528q0 -101 10 -175t33 -124t51.5 -81t74 -47 t91.5 -21.5t113 -5.5t114.5 6.5t93 23.5t74.5 49t52 82t33 122.5t10 170.5q0 126 -16.5 214t-44.5 141t-78 82.5t-103.5 39t-134.5 9.5q-50 0 -85.5 -2.5t-74 -10.5t-64.5 -23t-52 -39.5t-42.5 -61t-29.5 -85.5t-19 -115t-6 -149zM287 1493h100l238 -272h-66z" />
<glyph unicode="&#xf3;" horiz-adv-x="1169" d="M127 528q0 168 23.5 276.5t79.5 174.5t140 92.5t214 26.5q134 0 223 -32t141.5 -104t74 -175.5t21.5 -258.5q0 -153 -22 -253t-76 -165t-141 -92.5t-221 -27.5q-137 0 -224.5 28.5t-139.5 95.5t-72.5 164.5t-20.5 249.5zM211 528q0 -101 10 -175t33 -124t51.5 -81t74 -47 t91.5 -21.5t113 -5.5t114.5 6.5t93 23.5t74.5 49t52 82t33 122.5t10 170.5q0 126 -16.5 214t-44.5 141t-78 82.5t-103.5 39t-134.5 9.5q-50 0 -85.5 -2.5t-74 -10.5t-64.5 -23t-52 -39.5t-42.5 -61t-29.5 -85.5t-19 -115t-6 -149zM551 1221l237 272h101l-273 -272h-65z" />
<glyph unicode="&#xf4;" horiz-adv-x="1169" d="M127 528q0 168 23.5 276.5t79.5 174.5t140 92.5t214 26.5q134 0 223 -32t141.5 -104t74 -175.5t21.5 -258.5q0 -153 -22 -253t-76 -165t-141 -92.5t-221 -27.5q-137 0 -224.5 28.5t-139.5 95.5t-72.5 164.5t-20.5 249.5zM211 528q0 -101 10 -175t33 -124t51.5 -81t74 -47 t91.5 -21.5t113 -5.5t114.5 6.5t93 23.5t74.5 49t52 82t33 122.5t10 170.5q0 126 -16.5 214t-44.5 141t-78 82.5t-103.5 39t-134.5 9.5q-50 0 -85.5 -2.5t-74 -10.5t-64.5 -23t-52 -39.5t-42.5 -61t-29.5 -85.5t-19 -115t-6 -149zM303 1221l260 266h76l235 -266h-73 l-201 204l-223 -204h-74z" />
<glyph unicode="&#xf5;" horiz-adv-x="1169" d="M127 528q0 168 23.5 276.5t79.5 174.5t140 92.5t214 26.5q134 0 223 -32t141.5 -104t74 -175.5t21.5 -258.5q0 -153 -22 -253t-76 -165t-141 -92.5t-221 -27.5q-137 0 -224.5 28.5t-139.5 95.5t-72.5 164.5t-20.5 249.5zM211 528q0 -101 10 -175t33 -124t51.5 -81t74 -47 t91.5 -21.5t113 -5.5t114.5 6.5t93 23.5t74.5 49t52 82t33 122.5t10 170.5q0 126 -16.5 214t-44.5 141t-78 82.5t-103.5 39t-134.5 9.5q-50 0 -85.5 -2.5t-74 -10.5t-64.5 -23t-52 -39.5t-42.5 -61t-29.5 -85.5t-19 -115t-6 -149zM246 1290q50 43 75.5 62.5t68.5 40t81 20.5 q37 -1 85.5 -31.5t91.5 -61t69 -30.5q17 0 36 5t33 10.5t36.5 19t31 19.5t32.5 23t27 19l25 -38q-81 -73 -115 -94q-56 -34 -108 -33q-41 1 -87.5 31.5t-88 60.5t-70.5 30t-57.5 -9.5t-45 -18.5t-50.5 -31.5t-50 -32.5z" />
<glyph unicode="&#xf6;" horiz-adv-x="1169" d="M127 528q0 168 23.5 276.5t79.5 174.5t140 92.5t214 26.5q134 0 223 -32t141.5 -104t74 -175.5t21.5 -258.5q0 -153 -22 -253t-76 -165t-141 -92.5t-221 -27.5q-137 0 -224.5 28.5t-139.5 95.5t-72.5 164.5t-20.5 249.5zM211 528q0 -101 10 -175t33 -124t51.5 -81t74 -47 t91.5 -21.5t113 -5.5t114.5 6.5t93 23.5t74.5 49t52 82t33 122.5t10 170.5q0 126 -16.5 214t-44.5 141t-78 82.5t-103.5 39t-134.5 9.5q-50 0 -85.5 -2.5t-74 -10.5t-64.5 -23t-52 -39.5t-42.5 -61t-29.5 -85.5t-19 -115t-6 -149zM266 1280q0 25 16.5 41t41.5 16t42 -16 t17 -41t-17 -42t-42 -17t-41.5 17t-16.5 42zM786 1280q0 24 17.5 40.5t42.5 16.5t42 -16t17 -41t-17 -42t-42 -17t-42.5 17t-17.5 42z" />
<glyph unicode="&#xf7;" horiz-adv-x="1103" d="M127 680v86h852v-86h-852zM502 336v94q0 33 33 33h49q15 0 23.5 -9.5t8.5 -23.5v-94q0 -15 -9 -24t-23 -9h-49q-13 0 -23 9.5t-10 23.5zM502 997v95q0 34 33 34h49q14 0 23 -10t9 -24v-95q0 -15 -9 -23.5t-23 -8.5h-49q-14 0 -23.5 9.5t-9.5 22.5z" />
<glyph unicode="&#xf8;" horiz-adv-x="1169" d="M127 528q0 168 23.5 276.5t79.5 174.5t140 92.5t214 26.5q207 0 309 -80l51 69h70l-80 -106q59 -67 84.5 -177t25.5 -276q0 -153 -22 -253t-76 -165t-141 -92.5t-221 -27.5q-218 0 -324 84l-53 -74h-66l80 111q-52 62 -73 162t-21 255zM211 528q0 -244 65 -342l566 764 q-44 37 -105.5 50.5t-152.5 13.5q-50 0 -85.5 -2.5t-74 -10.5t-64.5 -23.5t-52 -40t-42.5 -60.5t-29.5 -85.5t-19 -115t-6 -148.5zM313 143q44 -40 109 -54.5t162 -14.5q67 0 114.5 6t93 23t74.5 48.5t52 81.5t33 123t10 172q0 273 -78 383z" />
<glyph unicode="&#xf9;" horiz-adv-x="1124" d="M127 332v758h84v-758q0 -117 68.5 -190.5t183.5 -73.5q123 0 212 27t216 93v902h84v-1088h-55l-29 127q-231 -145 -428 -145q-155 0 -245.5 102.5t-90.5 245.5zM252 1493h100l238 -272h-66z" />
<glyph unicode="&#xfa;" horiz-adv-x="1124" d="M127 332v758h84v-758q0 -117 68.5 -190.5t183.5 -73.5q123 0 212 27t216 93v902h84v-1088h-55l-29 127q-231 -145 -428 -145q-155 0 -245.5 102.5t-90.5 245.5zM518 1221l238 272h100l-272 -272h-66z" />
<glyph unicode="&#xfb;" horiz-adv-x="1124" d="M127 332v758h84v-758q0 -117 68.5 -190.5t183.5 -73.5q123 0 212 27t216 93v902h84v-1088h-55l-29 127q-231 -145 -428 -145q-155 0 -245.5 102.5t-90.5 245.5zM266 1221l260 266h76l236 -266h-74l-201 204l-223 -204h-74z" />
<glyph unicode="&#xfc;" horiz-adv-x="1124" d="M127 332v758h84v-758q0 -117 68.5 -190.5t183.5 -73.5q123 0 212 27t216 93v902h84v-1088h-55l-29 127q-231 -145 -428 -145q-155 0 -245.5 102.5t-90.5 245.5zM231 1280q0 25 16.5 41t41.5 16t42 -16t17 -41t-17 -42t-42 -17t-41.5 17t-16.5 42zM752 1280q0 25 17 41 t42 16t42 -16t17 -41t-17 -42t-42 -17t-42 17t-17 42z" />
<glyph unicode="&#xfd;" horiz-adv-x="1099" d="M53 1087h90l291 -849q46 -130 139 -149q30 -6 43 -1l338 999h90l-477 -1431l-114 -209h-50l185 553q-174 8 -242 225zM516 1221l238 272h100l-272 -272h-66z" />
<glyph unicode="&#xfe;" horiz-adv-x="1144" d="M176 -553v2155h84v-637q50 37 192 89t236 52q81 0 144 -32t102 -84t64.5 -126t35.5 -151t10 -166q0 -65 -3 -118.5t-12.5 -113.5t-25.5 -106.5t-43 -91t-63.5 -73.5t-89.5 -46.5t-119 -17.5q-81 0 -209.5 21.5t-218.5 57.5v-612h-84zM260 121q119 -33 211.5 -44.5 t216.5 -13.5q143 0 208 113.5t65 374.5q0 234 -73.5 352.5t-199.5 118.5q-65 -1 -152 -22.5t-133.5 -38.5t-142.5 -54v-786z" />
<glyph unicode="&#xff;" horiz-adv-x="1099" d="M53 1087h90l291 -849q46 -130 139 -149q30 -6 43 -1l338 999h90l-477 -1431l-114 -209h-50l185 553q-174 8 -242 225zM229 1280q0 25 16.5 41t41.5 16t42 -16t17 -41t-17 -42t-42 -17t-41.5 17t-16.5 42zM750 1280q0 25 17 41t42 16t42 -16t17 -41t-17 -42t-42 -17 t-42 17t-17 42z" />
<glyph unicode="&#x152;" horiz-adv-x="2158" d="M164 739q0 116 8 211t22 169t37.5 131.5t50 98.5t65 70t76 46.5t89.5 27t99.5 13t111.5 3.5q76 0 130.5 -4.5t112 -19.5t98.5 -41t78 -71t62 -109q9 125 78.5 182.5t173.5 52.5l582 -24v-60h-582q-90 0 -132 -45t-42 -137q-2 -347 0 -447l674 -14v-59l-674 -15v-446 q0 -58 16 -95t47.5 -53t60 -21t71.5 -5h561v-60l-561 -24q-57 -2 -100 6t-83 31.5t-63.5 73t-28.5 124.5q-31 -74 -75.5 -122t-108.5 -72.5t-131 -33.5t-164 -9q-124 0 -201.5 12t-153 54.5t-115.5 123t-64.5 218t-24.5 339.5zM248 739q0 -147 10 -251.5t35.5 -179 t59.5 -119.5t91.5 -70.5t120.5 -34t158 -8.5q96 0 162.5 10.5t122.5 39.5t90 76t57.5 124t33 179.5t9.5 246.5q0 103 -6 186t-16.5 148t-30 115t-40.5 86t-53 61t-63.5 40t-77 23.5t-88 11t-100.5 2.5q-66 0 -105.5 -2.5t-91.5 -11.5t-83 -28t-67 -51.5t-56 -83.5 t-38.5 -121.5t-26 -167.5t-7.5 -220z" />
<glyph unicode="&#x153;" horiz-adv-x="1908" d="M127 528q0 168 23.5 276.5t79.5 174.5t140 92.5t214 26.5q172 0 270 -56t141 -176q20 73 52.5 119t85 70t112 32.5t150.5 8.5q61 0 102 -2.5t88.5 -11t77.5 -24.5t60.5 -44.5t47 -69t27 -99t10.5 -134.5q0 -116 -68.5 -165.5t-209.5 -49.5h-486q-1 -104 11 -179 t33.5 -121.5t57 -74t75.5 -37.5t96 -10q237 0 471 35v-62q-212 -60 -471 -57q-136 2 -211 53.5t-109 169.5q-42 -120 -139.5 -171.5t-273.5 -51.5q-137 0 -224.5 28.5t-139.5 95.5t-72.5 164.5t-20.5 249.5zM211 528q0 -101 10 -175t33 -124t51.5 -81t74 -47t91.5 -21.5 t113 -5.5q85 0 142.5 11t104.5 40t73 81.5t40 132.5t14 196q0 121 -15.5 206t-43.5 138t-76 83t-103.5 41t-135.5 11q-50 0 -85.5 -2.5t-74 -10.5t-64.5 -23t-52 -39.5t-42.5 -61t-29.5 -85.5t-19 -115t-6 -149zM1044 578h486q35 0 61 2.5t52.5 10.5t43 22.5t27 39 t10.5 58.5q0 69 -7.5 118t-26 82.5t-41.5 53.5t-64.5 30.5t-82.5 13.5t-107 3q-72 0 -119 -5t-90.5 -21.5t-68 -45.5t-43 -78t-25 -117.5t-5.5 -166.5z" />
<glyph unicode="&#x178;" horiz-adv-x="1273" d="M115 1499h92l440 -864l479 864h95l-533 -967v-532h-84v532zM348 1692q0 25 16.5 41t41.5 16t42 -16t17 -41t-17 -42.5t-42 -17.5t-41.5 17.5t-16.5 42.5zM868 1692q0 24 17.5 40.5t42.5 16.5t42 -16t17 -41t-17 -42.5t-42 -17.5t-42.5 17.5t-17.5 42.5z" />
<glyph unicode="&#x2c6;" horiz-adv-x="821" d="M127 1087l260 267h76l235 -267h-73l-201 205l-223 -205h-74zM463 1354z" />
<glyph unicode="&#x2dc;" horiz-adv-x="944" d="M127 1171q50 43 75.5 62.5t68.5 40t81 20.5q37 -1 85.5 -31.5t91.5 -61t69 -30.5q17 0 36 5.5t33.5 11t36.5 19t31 19.5t32.5 22.5t27.5 19.5l24 -39q-81 -73 -115 -94q-56 -34 -108 -33q-41 1 -87.5 31.5t-88 61t-70.5 30.5t-57.5 -9.5t-45 -18.5t-50.5 -31.5t-50 -32.5 z" />
<glyph unicode="&#x2000;" horiz-adv-x="957" />
<glyph unicode="&#x2001;" horiz-adv-x="1915" />
<glyph unicode="&#x2002;" horiz-adv-x="957" />
<glyph unicode="&#x2003;" horiz-adv-x="1915" />
<glyph unicode="&#x2004;" horiz-adv-x="638" />
<glyph unicode="&#x2005;" horiz-adv-x="478" />
<glyph unicode="&#x2006;" horiz-adv-x="319" />
<glyph unicode="&#x2007;" horiz-adv-x="319" />
<glyph unicode="&#x2008;" horiz-adv-x="239" />
<glyph unicode="&#x2009;" horiz-adv-x="383" />
<glyph unicode="&#x200a;" horiz-adv-x="106" />
<glyph unicode="&#x2010;" horiz-adv-x="702" d="M51 553v82h602v-82h-602z" />
<glyph unicode="&#x2011;" horiz-adv-x="702" d="M51 553v82h602v-82h-602z" />
<glyph unicode="&#x2012;" horiz-adv-x="702" d="M51 553v82h602v-82h-602z" />
<glyph unicode="&#x2013;" horiz-adv-x="1069" d="M51 545v86h969v-86h-969z" />
<glyph unicode="&#x2014;" horiz-adv-x="1525" d="M51 549v86h1426v-86h-1426z" />
<glyph unicode="&#x2018;" horiz-adv-x="415" d="M143 1184v209q0 39 12.5 64.5t30.5 34.5t36.5 12t31.5 1l12 -2v-33q-22 1 -33.5 -9t-13.5 -19.5t-2 -22.5v-67h19q16 0 27 -11t11 -30v-127q0 -43 -38 -43h-56q-37 0 -37 43z" />
<glyph unicode="&#x2019;" horiz-adv-x="415" d="M143 1335v129q0 41 41 41h54q38 0 38 -41l-2 -211q0 -39 -12.5 -64.5t-30.5 -34.5t-36 -12t-31 -1l-12 2v35q22 -1 33.5 8.5t13.5 18.5t2 22v69h-19q-16 0 -27.5 10t-11.5 29z" />
<glyph unicode="&#x201a;" horiz-adv-x="415" d="M143 39v127q0 43 39 43h56q36 0 36 -43v-211q0 -39 -12.5 -64.5t-30.5 -34.5t-36 -12.5t-31 -1.5l-12 2v35q22 -1 33.5 8.5t13.5 18.5t2 22v72h-19q-16 0 -27.5 10t-11.5 29z" />
<glyph unicode="&#x201c;" horiz-adv-x="634" d="M131 1184v209q0 39 12.5 64.5t30.5 34.5t36.5 12t31.5 1l12 -2v-33q-22 1 -33.5 -9t-13.5 -19.5t-2 -22.5v-67h16q16 0 28.5 -11t12.5 -30v-127q0 -43 -41 -43h-53q-37 0 -37 43zM373 1184v209q0 39 13 64.5t31.5 34.5t36.5 12t31 1l13 -2v-33q-22 1 -33.5 -9 t-13.5 -19.5t-2 -22.5v-67h18q16 0 27.5 -11t11.5 -30v-127q0 -43 -39 -43h-53q-41 0 -41 43z" />
<glyph unicode="&#x201d;" horiz-adv-x="632" d="M131 1335v129q0 41 39 41h53q39 0 39 -41v-211q0 -39 -12.5 -64.5t-31 -34.5t-36.5 -12t-30 -1l-13 2v35q22 -1 33 8.5t12.5 18t1.5 22.5v69h-16q-16 0 -27.5 10t-11.5 29zM373 1335v129q0 41 41 41h55q37 0 37 -41v-211q0 -39 -13 -64.5t-31 -34.5t-36.5 -12t-31.5 -1 l-13 2v35q51 -2 51 49v69h-18q-17 0 -29 10t-12 29z" />
<glyph unicode="&#x201e;" horiz-adv-x="632" d="M131 41v127q0 43 39 43h53q39 0 39 -43v-209q0 -39 -12.5 -64.5t-31 -34.5t-36.5 -12.5t-30 -1.5l-13 2v33q17 -1 27 4t14 14.5t5 16t1 16.5v70h-16q-16 0 -27.5 10t-11.5 29zM373 41v127q0 43 41 43h55q37 0 37 -43v-209q0 -39 -13 -64.5t-31 -34.5t-36.5 -12.5 t-31.5 -1.5l-13 2v33q22 -1 34 9t14.5 20t2.5 22v70h-18q-17 0 -29 10t-12 29z" />
<glyph unicode="&#x2022;" horiz-adv-x="649" d="M215 733v94q0 33 17.5 53.5t50.5 20.5h84q71 0 71 -74v-94q0 -65 -71 -65h-84q-31 0 -49.5 17.5t-18.5 47.5z" />
<glyph unicode="&#x2026;" horiz-adv-x="1658" d="M205 33v123q0 32 35 32h51q33 0 33 -32v-123q0 -33 -33 -33h-51q-14 0 -24.5 10t-10.5 23zM762 33v123q0 32 35 32h51q33 0 33 -32v-123q0 -33 -33 -33h-51q-14 0 -24.5 10t-10.5 23zM1319 33v123q0 32 35 32h51q33 0 33 -32v-123q0 -33 -33 -33h-51q-14 0 -24.5 10 t-10.5 23z" />
<glyph unicode="&#x202f;" horiz-adv-x="383" />
<glyph unicode="&#x2039;" horiz-adv-x="727" d="M127 725l422 416l57 -58l-364 -358l376 -367l-61 -59z" />
<glyph unicode="&#x203a;" horiz-adv-x="727" d="M127 358l373 367l-365 358l62 58l421 -416l-434 -426z" />
<glyph unicode="&#x205f;" horiz-adv-x="478" />
<glyph unicode="&#x20ac;" horiz-adv-x="1228" d="M51 545v51l180 10v260l-180 11v47l180 12v16q0 39 0.5 62.5t4.5 73t12 83t24.5 82t39.5 82t60 70.5t83.5 59t112 37t143.5 15q81 0 218 -14t242 -34v-61q-33 3 -85.5 7.5t-175.5 11.5t-199 6q-75 0 -134 -14.5t-100.5 -38t-71.5 -60.5t-47.5 -76.5t-27 -93t-12.5 -102 t-3 -111.5l547 -10v-49l-547 -11v-260l547 -10v-51q-35 0 -92 -1t-178 -2.5t-200 -3.5t-77 -3q-3 -208 104 -334t292 -129q96 -2 213 5t186 15l70 8v-59q-215 -53 -469 -53q-55 0 -111.5 11.5t-125 48t-120.5 94t-87.5 159.5t-35.5 234z" />
<glyph unicode="&#x2122;" horiz-adv-x="1431" d="M51 1436v63h531v-63h-234v-652h-63v652h-234zM662 784l55 715h57l262 -606l236 606h61l64 -715h-62l-51 570l-221 -570h-51l-246 572l-43 -572h-61z" />
<glyph unicode="&#xe000;" horiz-adv-x="1085" d="M0 0v1085h1085v-1085h-1085z" />
<glyph unicode="&#xfb03;" horiz-adv-x="1974" d="M51 1004v55l199 28v183q0 31 1 54t6.5 58t15.5 61.5t29 55t45.5 47.5t67 31t91.5 12q74 0 246 -39v-53l-232 10q-98 4 -142 -54t-44 -183v-183h655v109q0 187 97.5 300.5t277.5 113.5q67 0 176.5 -13.5t196.5 -35.5v-54l-351 19q-66 3 -121 -14t-99 -54.5t-68.5 -104.5 t-24.5 -157v-109l752 -16v-1071h-84v1004h-670v-1004h-84v1004h-653v-1004h-84v1004h-199z" />
<glyph unicode="&#xfb04;" horiz-adv-x="2203" d="M51 1004v55l199 28v183q0 31 1 54t6.5 58t15.5 61.5t29 55t45.5 47.5t67 31t91.5 12q74 0 246 -39v-53l-232 10q-98 4 -142 -54t-44 -183v-183h649v109q0 86 18.5 158t57 130.5t105 91t155.5 32.5h510v-1217q0 -78 11.5 -134.5t25 -85.5t40.5 -48.5t42.5 -24t44.5 -10.5 q147 -29 161 -29v-55h-151q-135 0 -196.5 91t-61.5 296v1139h-406q-272 0 -272 -334v-109h301v-83h-301v-1004h-84v1004h-649v-1004h-84v1004h-199z" />
</font>
</defs>
</svg>
