<?xml version="1.0" standalone="no"?>
<!DOCTYPE svg PUBLIC "-//W3C//DTD SVG 1.1//EN" "http://www.w3.org/Graphics/SVG/1.1/DTD/svg11.dtd" >
<svg xmlns="http://www.w3.org/2000/svg">
<metadata></metadata>
<defs>
<font id="exoextrabold" horiz-adv-x="1140" >
<font-face units-per-em="2048" ascent="1638" descent="-410" />
<missing-glyph horiz-adv-x="512" />
<glyph unicode="&#xfb01;" horiz-adv-x="1300" d="M27 844v209l161 34v72q0 124 54.5 224.5t160.5 162t245 64.5q98 2 275.5 -14t234.5 -41v-195l-384 7q-250 5 -250 -223v-57l701 -20v-1067h-337v844h-364v-844h-336v844h-161z" />
<glyph unicode="&#xfb02;" horiz-adv-x="1480" d="M27 844v209l161 34v88q0 123 31.5 210t91 135t134 69t171.5 21l632 -5v-1156q0 -73 10.5 -115t27 -59t48.5 -31q107 -43 121 -43v-201h-257q-149 0 -217.5 87.5t-68.5 299.5v979l-232 1q-85 0 -120.5 -41t-35.5 -151v-88h226v-243h-227v-844h-336v844h-160z" />
<glyph horiz-adv-x="0" />
<glyph unicode="&#xd;" horiz-adv-x="1374" />
<glyph unicode=" "  horiz-adv-x="512" />
<glyph unicode="&#x09;" horiz-adv-x="512" />
<glyph unicode="&#xa0;" horiz-adv-x="512" />
<glyph unicode="!" horiz-adv-x="563" d="M116 1497h328l-36 -1096h-263zM125 47v209q0 51 49 51h205q23 0 35 -14t12 -37v-209q0 -47 -47 -47h-205q-22 0 -35.5 12.5t-13.5 34.5z" />
<glyph unicode="&#x22;" horiz-adv-x="956" d="M117 1362v137h321v-137l-20 -275h-277zM521 1362v137h321v-137l-20 -275h-280z" />
<glyph unicode="#" horiz-adv-x="1501" d="M27 414l35 229h307l38 215h-310l37 229h317l76 412h229l-76 -412h221l73 412h230l-74 -412h347l-34 -229h-348l-38 -217h348l-31 -229h-367l-76 -412h-230l76 412l-221 2l-76 -414h-230l76 414h-299zM599 643l228 -2l38 217h-229z" />
<glyph unicode="$" horiz-adv-x="1163" d="M76 989v127q1 382 407 395v177h195v-178q181 -9 356 -62v-261q-225 20 -445 20q-99 2 -138 -20.5t-39 -101.5v-50q0 -68 32 -96t113 -28h165q87 0 154.5 -27.5t107 -70t64.5 -100t33.5 -109.5t8.5 -107v-85q0 -428 -412 -428v-168h-195v170q-117 3 -182.5 16t-177.5 47 v260q273 -20 474 -20q74 0 115.5 23.5t41.5 85.5v59q0 60 -26 89t-98 29h-159q-76 0 -137.5 17.5t-101.5 44.5t-70 66t-46 75.5t-25.5 79.5t-12 72t-2.5 59z" />
<glyph unicode="%" horiz-adv-x="1974" d="M58 986v242q0 136 65 203.5t215 67.5h207q146 0 210.5 -68t64.5 -203v-242q0 -136 -64.5 -203.5t-214.5 -67.5h-207q-146 0 -211 68t-65 203zM284 1032q0 -48 17.5 -70t70.5 -22h130q57 0 75 22t18 70v150q0 55 -20 73.5t-69 18.5h-130q-50 0 -71 -19t-21 -73v-150z M411 0l922 1499h227l-911 -1499h-238zM1157 277v242q0 136 64 203.5t214 67.5h209q146 0 210.5 -68t64.5 -203v-242q0 -136 -65 -203.5t-215 -67.5h-208q-146 0 -210 68t-64 203zM1382 323q0 -48 18 -70t71 -22h128q57 0 76 22t19 70v150q0 55 -20.5 73.5t-69.5 18.5h-129 q-50 0 -71.5 -19t-21.5 -73v-150z" />
<glyph unicode="&#x26;" horiz-adv-x="1423" d="M47.5 377.5q-7.5 109.5 38.5 206t135 175.5l130 114l-97 143q-78 113 -65.5 215.5t80.5 176t155 87.5q88 14 168.5 16t161 -9.5t123.5 -20t122 -27.5v-247h-308q-107 0 -117.5 -45.5t59.5 -136.5l295 -409l255 230l120 -147l-129 -221l-75 -89l295 -389h-396l-135 186 l-129 -113q-50 -43 -129.5 -65t-166 -17.5t-173 50t-141.5 127.5q-69 100 -76.5 209.5zM398 360q25 -31 54.5 -48t69.5 -13t77 41l81 80l-166 219l-86 -78q-111 -99 -30 -201z" />
<glyph unicode="'" horiz-adv-x="487" d="M76 1362v137h338v-137l-21 -275h-295z" />
<glyph unicode="(" horiz-adv-x="804" d="M103 668q0 143 20.5 281t53.5 243.5t72.5 200t79 160t72.5 114t53 71.5l21 23h304q-7 -11 -19.5 -30.5t-47.5 -83.5t-67 -132t-71.5 -170.5t-67.5 -204t-47.5 -227.5t-19.5 -245q0 -130 19 -261t48.5 -236.5t66 -202.5t73 -167.5t66 -124t48.5 -80.5l19 -26h-304 q-8 7 -21.5 20.5t-52 62.5t-73.5 106t-78 152.5t-74 201t-52 251.5t-21 304z" />
<glyph unicode=")" horiz-adv-x="804" d="M27 -430q14 19 37 53.5t81.5 148.5t103.5 234.5t81.5 301.5t36.5 360q0 164 -35 336.5t-85 302.5t-100 236t-85 162l-35 56h304q8 -8 21.5 -23.5t52 -70t73.5 -115.5t78 -159t74 -201.5t52 -242t21 -281.5q0 -158 -20.5 -303.5t-53.5 -252.5t-72.5 -199.5t-79 -154 t-72.5 -105.5t-53 -63l-21 -20h-304z" />
<glyph unicode="*" horiz-adv-x="866" d="M69 1159v128l284 44l11 -182zM177 854l51 281l176 -45l-105 -274zM331 1476l123 42l132 -254l-170 -68zM377 949l99 153l232 -183l-76 -103zM482 1169l244 164l73 -106l-202 -198z" />
<glyph unicode="+" horiz-adv-x="964" d="M56 592v274h287v289h274v-289h291v-274h-291v-289h-274v289h-287z" />
<glyph unicode="," horiz-adv-x="528" d="M117 51v203q0 55 51 55h197q49 0 49 -55v-277q0 -49 -16 -84t-41 -52t-55.5 -26t-61.5 -8.5t-56 3t-41 6.5l-16 4v111q22 -1 35.5 3.5t19.5 13t7.5 15.5t1.5 17v20h-23q-23 0 -37 13t-14 38z" />
<glyph unicode="-" horiz-adv-x="724" d="M41 457v274h643v-274h-643z" />
<glyph unicode="." horiz-adv-x="532" d="M117 47v209q0 51 49 51h201q51 0 51 -51v-209q0 -47 -51 -47h-201q-22 0 -35.5 12.5t-13.5 34.5z" />
<glyph unicode="/" horiz-adv-x="974" d="M27 -147l576 1724h346l-576 -1724h-346z" />
<glyph unicode="0" horiz-adv-x="1282" d="M96 378v728q0 190 102 291.5t284 101.5h336q103 0 177 -29.5t115 -83.5t59 -119t18 -146v-743q0 -182 -97 -280t-274 -98h-336q-185 0 -284.5 97t-99.5 281zM432 441q0 -136 137 -136h149q68 0 100.5 28t32.5 106v621q0 134 -121 134h-171q-127 0 -127 -134v-619z" />
<glyph unicode="1" horiz-adv-x="765" d="M54 1115v216l271 168h332v-1499h-335v1174z" />
<glyph unicode="2" horiz-adv-x="1198" d="M54 1212v251q298 57 623 57q115 0 203 -36.5t142 -102t81.5 -151t27.5 -187.5q0 -64 -22 -134t-54 -128.5t-82.5 -124.5t-91.5 -111.5t-98.5 -100t-86 -79.5t-70.5 -60h505v-305h-1061v293q61 41 145 105t187.5 153t189.5 174.5t144.5 171.5t58.5 143q0 97 -55.5 134.5 t-186.5 37.5h-499z" />
<glyph unicode="3" horiz-adv-x="1185" d="M41 1198v248q84 29 199.5 43.5t228 14.5t239.5 -1q172 -3 275 -100.5t103 -267.5v-96q0 -234 -163 -294q163 -61 163 -310v-75q0 -181 -102 -277.5t-290 -96.5h-75.5h-80t-72 0.5t-78 2.5t-68.5 4.5t-74 7t-64 10t-68.5 14t-59.5 18.5l2 250h487q51 0 78.5 1.5t56.5 8 t42 19.5t21 35.5t8 56.5v44q0 78 -44 103t-149 30l-375 14v273l375 20q112 5 154.5 29t42.5 97v49q0 40 -15 66.5t-45 38.5t-60.5 16t-76.5 4h-515z" />
<glyph unicode="4" horiz-adv-x="1284" d="M27 459l489 1040h364l-392 -879h295v311l60 159h276v-470h138v-260l-138 -54v-302h-336v302h-686z" />
<glyph unicode="5" horiz-adv-x="1216" d="M105 41v266h561q38 0 64.5 9t40.5 21t21.5 31.5t9 33.5t1.5 34v104q0 61 -24.5 95.5t-95.5 34.5h-146q-110 0 -110 -108h-319l45 937h927v-305h-602l-13 -281q52 36 138 46q68 7 194 0q172 -11 257 -115t85 -271v-202q0 -101 -35.5 -177t-95 -118.5t-126.5 -63 t-139 -20.5q-211 0 -328.5 8t-309.5 41z" />
<glyph unicode="6" horiz-adv-x="1234" d="M90 786q0 675 352 718q174 15 338 2.5t327 -44.5v-256h-484q-39 0 -69.5 -10.5t-51 -26.5t-35 -43t-22 -52t-12 -62t-6 -64.5t-1.5 -67.5q72 25 155.5 34t214.5 9q86 0 150 -18.5t104 -50.5t64 -80t33 -100t9 -118v-207q0 -351 -376 -351h-288q-77 0 -135.5 20 t-110.5 72.5t-85 139.5t-52 226.5t-19 329.5zM426 633q0 -69 4 -116t15 -90.5t31 -69t52.5 -40t78.5 -14.5h103q61 0 86 22.5t25 89.5v95q0 72 -22 97.5t-82 25.5h-291z" />
<glyph unicode="7" d="M41 1194v305h974l86 -144l-487 -1355h-362l437 1194h-648z" />
<glyph unicode="8" horiz-adv-x="1271" d="M103 354v131q0 91 40.5 156t116.5 79q-52 24 -85.5 57t-48 75.5t-19 79t-4.5 90.5v133q0 103 30.5 174.5t87 109.5t122.5 54t151 16h314q183 0 273 -82.5t90 -272.5v-101q0 -26 -5 -57.5t-19.5 -72t-48 -70.5t-81.5 -38q47 -9 80 -41.5t48 -78.5t20.5 -86t5.5 -79v-167 q0 -92 -21 -159.5t-54 -105.5t-83.5 -61t-98 -30t-108.5 -7h-312q-79 0 -141.5 14t-102.5 35t-69 53.5t-44 61.5t-23 68.5t-9.5 64t-1.5 57.5zM439 400q0 -60 28 -85t96 -25h154q65 0 91.5 27.5t26.5 82.5v115q0 114 -113 114h-164q-64 0 -91.5 -28.5t-27.5 -85.5v-115z M439 1012q0 -65 30 -88t89 -23h161q72 0 94 27t22 84v81q0 77 -29.5 102t-87.5 25h-155q-34 0 -53.5 -3.5t-37.5 -16t-25.5 -38.5t-7.5 -69v-81z" />
<glyph unicode="9" horiz-adv-x="1234" d="M83 946v207q0 351 376 351h288q77 0 135.5 -20t110.5 -72.5t85 -140t52 -227t19 -329.5q0 -674 -352 -717q-166 -16 -339 -3.5t-326 45.5v255h484q39 0 69.5 10.5t51 26.5t35 43.5t22 52.5t12 62t6 64.5t1.5 67.5q-72 -25 -155.5 -34t-214.5 -9q-86 0 -150 18.5 t-104 50.5t-64 80t-33 100t-9 118zM418 992q0 -72 22 -97.5t82 -25.5h291q0 69 -4 116t-15 90.5t-31 69t-52.5 40t-78.5 14.5h-103q-61 0 -86 -23t-25 -90v-94z" />
<glyph unicode=":" horiz-adv-x="532" d="M117 47v209q0 51 49 51h201q51 0 51 -51v-209q0 -47 -51 -47h-201q-22 0 -35.5 12.5t-13.5 34.5zM117 828v209q0 51 49 51h201q51 0 51 -51v-209q0 -47 -51 -47h-201q-22 0 -35.5 12.5t-13.5 34.5z" />
<glyph unicode=";" horiz-adv-x="534" d="M117 51v203q0 26 13.5 40.5t37.5 14.5h197q49 0 49 -55v-277q0 -49 -16 -84t-41 -52t-55.5 -26t-61.5 -8.5t-56 3t-41 6.5l-16 4v111q22 -1 35.5 3.5t19.5 13t7.5 15.5t1.5 17v20h-23q-22 0 -36.5 14t-14.5 37zM118 828v209q0 52 49 52h201q51 0 51 -52v-209 q0 -47 -51 -47h-201q-22 0 -35.5 12.5t-13.5 34.5z" />
<glyph unicode="&#x3c;" horiz-adv-x="905" d="M69 569v302l768 283v-302l-426 -129l426 -149v-303z" />
<glyph unicode="=" horiz-adv-x="956" d="M41 357v275h874v-275h-874zM41 801v274h874v-274h-874z" />
<glyph unicode="&#x3e;" horiz-adv-x="905" d="M69 271v303l425 149l-425 129v302l768 -283v-302z" />
<glyph unicode="?" horiz-adv-x="1112" d="M27 1206v251q152 35 282 49t296 7q112 0 201 -35.5t142.5 -94t81.5 -130t28 -149.5v-130q0 -213 -107 -313.5t-344 -85.5v-176h-261v424h214q80 3 122 38.5t42 118.5v75q0 80 -49.5 115.5t-153.5 35.5h-494zM325 47v209q0 51 49 51h202q50 0 50 -51v-209q0 -47 -50 -47 h-202q-22 0 -35.5 12.5t-13.5 34.5z" />
<glyph unicode="@" horiz-adv-x="1796" d="M90 31v590q0 67 12.5 126t44.5 116t82 97t130 64.5t183 24.5h376q63 0 110.5 -5.5t100 -26t86 -55t55.5 -97.5t22 -149v-716h-210l-44 116l-14 -14q-14 -14 -40 -33.5t-60.5 -39t-84 -33.5t-101.5 -14q-66 0 -117.5 24.5t-82.5 66t-46.5 91t-15.5 103.5v78 q0 142 80.5 215t229.5 73h248q2 61 0 63q0 56 -25 75t-85 19h-382q-42 0 -72.5 -6.5t-60 -24.5t-45 -56.5t-15.5 -97.5v-544q0 -65 18 -112t48.5 -70.5t61.5 -33.5t65 -10h668q119 0 165 56.5t46 169.5v895q0 116 -57.5 179t-153.5 63h-827v203q96 20 279.5 38.5t356.5 17.5 h191q72 0 137.5 -15.5t127.5 -53t106.5 -93.5t71.5 -143t27 -196v-895q0 -250 -114 -368.5t-340 -118.5h-684q-74 0 -139 15t-123.5 49t-100 86t-65.5 130.5t-24 176.5zM750 333q0 -19 1 -21q0 -33 21.5 -52.5t63.5 -18.5q133 -2 198 80v129l-207 -18q-41 -4 -59 -21.5 t-17 -57.5q-1 -1 -1 -20z" />
<glyph unicode="A" horiz-adv-x="1433" d="M61 0l490 1499h390l472 -1499h-351l-98 301h-452l-98 -301h-353zM593 592h298l-142 476z" />
<glyph unicode="B" horiz-adv-x="1243" d="M110 0v1499h633q224 0 329.5 -109t105.5 -295q0 -71 -21 -137t-71 -118.5t-119 -61.5q105 -18 173 -109t68 -220q0 -229 -111 -339t-346 -110h-641zM446 290h289q137 0 137 175q0 80 -32.5 131t-104.5 51h-289v-357zM446 922h274q62 0 95 37.5t33 102.5q0 80 -37 113.5 t-91 33.5h-274v-287z" />
<glyph unicode="C" horiz-adv-x="1165" d="M76 754q0 150 14 264t49 210.5t93 158t147 95.5t210 34q182 0 292 -16t239 -59v-262l-14 1q-14 2 -38.5 5t-56.5 6t-72 6.5t-81.5 6.5t-88 4.5t-88.5 1.5t-67.5 -2t-55.5 -8.5t-47.5 -19.5t-36 -36t-28.5 -56t-18.5 -81t-12 -111.5t-3.5 -145.5q0 -133 11 -214.5t41 -139 t82.5 -80.5t136.5 -23q96 0 205 4.5t170 8.5l62 4v-262q-99 -36 -221 -50q-95 -11 -230 -11q-39 0 -80 1q-140 2 -239.5 52.5t-159.5 150t-87 237.5t-27 326z" />
<glyph unicode="D" horiz-adv-x="1359" d="M110 0v1499h666q103 0 184.5 -28t137 -81t94.5 -120.5t60 -155.5t30.5 -177t9.5 -194q0 -743 -516 -743h-666zM446 291h299q113 0 162 112.5t49 341.5q0 115 -9.5 197.5t-26.5 133.5t-44 81t-58 41t-73 11h-299v-918z" />
<glyph unicode="E" horiz-adv-x="1161" d="M102 310v861q0 81 23.5 142.5t58.5 96t84 56.5t93 28q38 6 79 5h13q484 -8 664 -33v-280h-572q-38 0 -61 -9t-32.5 -28.5t-11.5 -34.5t-2 -42v-170l581 -22v-278l-581 -19v-170q0 -23 4.5 -40.5t10 -28.5t18 -18.5t19.5 -11t24.5 -5.5t24.5 -2.5t26 -0.5h552v-277 q-70 -10 -231 -18.5t-287 -12.5l-126 -4q-14 -1 -29 -1q-32 -1 -62 3q-44 4 -97 23t-91.5 51.5t-65 94t-26.5 145.5z" />
<glyph unicode="F" horiz-adv-x="1161" d="M102 0v1165q0 75 21 134.5t55 97t80.5 61.5t94.5 33q43 8 90 8h10q484 -8 664 -33v-280h-572q-38 0 -61 -9t-32.5 -28.5t-11.5 -34.5t-2 -42v-170l581 -22v-278l-581 -19v-583h-336z" />
<glyph unicode="G" horiz-adv-x="1257" d="M76 758q0 143 12 251t44.5 207t86.5 162.5t142 100.5t208 37q207 0 312.5 -12t284.5 -59v-259q-2 0 -32.5 4t-80.5 10t-110.5 12t-136.5 10t-145 4q-64 0 -107 -16t-71.5 -47.5t-43.5 -90.5t-21 -132.5t-6 -185.5q0 -83 2.5 -140.5t8 -108.5t17 -83t27.5 -57t41.5 -38 t56.5 -19.5t75 -6.5q60 0 112 23.5t74 47.5l23 23v217h-161v210q109 51 358 51q66 0 139 -6v-867h-239l-93 100q-50 -55 -110 -79.5t-180 -30.5q-16 -1 -31 -1q-71 0 -130 15q-71 19 -121 54t-87.5 92t-59.5 120t-35.5 147t-18 163t-4.5 178z" />
<glyph unicode="H" horiz-adv-x="1302" d="M110 0v1499h336v-621h440v621h336v-1499h-336v572h-440v-572h-336z" />
<glyph unicode="I" horiz-adv-x="526" d="M110 0v1499h336v-1499h-336z" />
<glyph unicode="J" horiz-adv-x="729" d="M49 49l2 264q36 -2 67 -2q19 0 36 1q45 2 75 11t48 32t26.5 59t8.5 94v991h336v-1161q0 -45 -3 -80t-13 -80t-34 -81.5t-60 -59.5q-75 -47 -215 -47h-31q-162 6 -243 59z" />
<glyph unicode="K" horiz-adv-x="1314" d="M110 0v1499h321v-610h103l347 610h388l-438 -752l438 -747h-388l-347 599h-101v-599h-323z" />
<glyph unicode="L" horiz-adv-x="1091" d="M110 304v1195h336v-1087q0 -31 8.5 -52.5t18.5 -32t31 -16t32.5 -6t36.5 -0.5h473v-305h-611q-69 0 -125 15.5t-102.5 49.5t-72 94.5t-25.5 144.5z" />
<glyph unicode="M" horiz-adv-x="1769" d="M76 0l144 1499h467l195 -943l198 943h467l150 -1499h-331l-100 919l-190 -919h-380l-198 919l-91 -919h-331z" />
<glyph unicode="N" horiz-adv-x="1386" d="M110 0v1499h340l521 -878v878h336v-1499h-336l-523 863v-863h-338z" />
<glyph unicode="O" horiz-adv-x="1370" d="M90 739q0 115 10 211t27 169.5t45 131t59 98.5t74 70t84.5 46.5t96 27.5t103.5 13t112 3q65 0 114.5 -3t105 -13t96.5 -27.5t83.5 -46.5t73 -70t58 -98.5t44 -131t26 -169.5t9.5 -211q0 -140 -15 -250t-41 -188t-68.5 -134t-90 -89.5t-114 -53t-131 -26t-150.5 -6.5 q-104 0 -174.5 8.5t-146.5 33.5t-124 76t-88.5 132t-59 205t-18.5 292zM426 739q0 -96 4 -160.5t16 -116.5t30.5 -82t51 -49.5t73 -26.5t100.5 -7q67 0 110.5 11t77 38.5t51.5 79t26.5 126.5t8.5 187q0 90 -4.5 156t-13 117t-25 84t-35.5 55t-50.5 33.5t-64.5 15.5t-81 4 t-79.5 -3.5t-63.5 -14t-51 -31t-36.5 -53.5t-26 -83.5t-13.5 -119t-5 -160.5z" />
<glyph unicode="P" horiz-adv-x="1249" d="M98 0v1499h655q47 0 86.5 -4t85.5 -16.5t83 -33.5t72 -57.5t58.5 -84.5t37.5 -118.5t14 -157.5q0 -85 -11.5 -156t-31.5 -120t-48 -88.5t-60.5 -62t-68.5 -39t-73 -21t-73 -7.5q-16 -1 -31 -1q-20 0 -40 2q-60 4 -185.5 19.5t-133.5 20.5v-574h-336zM434 823h288 q66 0 98 46t32 153q-1 185 -130 185h-288v-384z" />
<glyph unicode="Q" horiz-adv-x="1370" d="M90 739q0 115 10 211t27 169.5t44.5 131t58.5 98.5t73.5 70t84 46.5t96.5 27.5t103.5 13t112.5 3q65 0 114.5 -3t105 -13t96.5 -27.5t84 -46.5t73 -70t57.5 -98.5t44.5 -131t26.5 -169.5t9.5 -211q0 -109 -9 -199.5t-25 -161t-42.5 -126.5t-56.5 -96t-71.5 -69t-83.5 -47 t-97.5 -28.5t-107.5 -14.5t-118 -5q-68 0 -118.5 3t-106.5 12.5t-97.5 26.5t-83.5 45t-71.5 67.5t-56 95.5t-42.5 127.5t-25 164.5t-9 205zM426 739q0 -96 4 -160.5t16 -117t30 -82t50.5 -49t73 -26.5t100.5 -7q83 0 133 17t83.5 67t46 134t12.5 224q0 105 -5.5 178.5 t-20 126t-33.5 83.5t-52.5 48.5t-70 23t-93.5 5.5t-91.5 -4.5t-69 -21t-53 -46.5t-34 -82.5t-21 -127.5t-5.5 -183zM602 -68h183q30 -87 165 -87q68 0 164 23v-256q-49 -10 -99 -10h-17q-59 2 -115 12t-106 36.5t-88 63.5t-61.5 93t-25.5 125z" />
<glyph unicode="R" horiz-adv-x="1253" d="M98 0v1499h662q98 0 173 -23t135 -76t91.5 -147t31.5 -227q0 -76 -8.5 -138t-20.5 -104t-33.5 -76.5t-38 -53t-44.5 -35.5t-43 -23t-43 -16l272 -580h-380l-223 551l-195 29v-580h-336zM436 838h286q77 0 104 38.5t27 149.5q0 99 -31 140t-100 41h-286v-369z" />
<glyph unicode="S" horiz-adv-x="1214" d="M90 989v127q0 386 406 395q43 1 84 1q327 0 520 -64v-262q-202 20 -497 20h-17q-86 0 -122 -19q-38 -21 -38 -102v-50q0 -71 29.5 -97.5t114.5 -26.5h217q87 0 154 -27.5t106.5 -70t64.5 -100t34 -109.5t9 -107v-85q0 -104 -24.5 -182t-63 -124t-95 -74t-112 -38 t-121.5 -10q-241 0 -356.5 12t-245.5 53v262q73 -7 234.5 -14.5t291.5 -7.5q75 0 115.5 23t40.5 86v59q0 60 -26 89t-98 29h-210q-77 0 -139.5 17.5t-102.5 44t-70 65.5t-45.5 75t-24.5 80t-11 72.5t-2 59.5z" />
<glyph unicode="T" horiz-adv-x="1226" d="M54 1194v305h1132v-305h-404v-1194h-336v1194h-392z" />
<glyph unicode="U" horiz-adv-x="1351" d="M110 655v844h336v-844q0 -109 10 -174t38 -109t75.5 -60.5t126.5 -16.5q138 0 187.5 78.5t49.5 281.5v844h338v-844q0 -108 -12.5 -197t-31 -154t-51.5 -115.5t-62.5 -83.5t-76.5 -55.5t-80.5 -34t-88.5 -17.5t-86 -7t-86 -1q-167 0 -235 12q-174 31 -257 171 q-94 158 -94 482z" />
<glyph unicode="V" horiz-adv-x="1415" d="M61 1499h355l296 -1073l316 1073h354l-474 -1499h-397z" />
<glyph unicode="W" horiz-adv-x="2056" d="M61 1499h355l295 -1067l233 1067h356l-92 -353l225 -717l236 1070h354l-392 -1499h-397l-173 559l-153 -559h-397z" />
<glyph unicode="X" horiz-adv-x="1347" d="M61 1499h372l254 -469l255 469h372l-453 -751l443 -748h-372l-245 459l-248 -459h-371l443 748z" />
<glyph unicode="Y" horiz-adv-x="1363" d="M61 1499h366l258 -694l281 694h365l-484 -1059v-440h-336v440z" />
<glyph unicode="Z" horiz-adv-x="1134" d="M49 0v305l642 889h-642v305h1040v-305l-596 -889h596v-305h-1040z" />
<glyph unicode="[" horiz-adv-x="692" d="M117 -1v1327q0 398 371 398h179v-274h-87q-127 0 -127 -170v-1266q0 -170 127 -170h87v-274h-179q-371 0 -371 429z" />
<glyph unicode="\" horiz-adv-x="974" d="M27 1577h346l576 -1724h-346z" />
<glyph unicode="]" horiz-adv-x="692" d="M27 -156h87q127 0 127 170v1266q0 170 -127 170h-87v274h179q371 0 371 -398v-1327q0 -429 -371 -429h-179v274z" />
<glyph unicode="^" horiz-adv-x="780" d="M69 1087l213 282h238l193 -282h-207l-111 115l-117 -115h-209zM520 1369z" />
<glyph unicode="_" horiz-adv-x="1380" d="M41 -2v274h1298v-274h-1298z" />
<glyph unicode="`" horiz-adv-x="497" d="M27 1375h271l174 -288h-203z" />
<glyph unicode="a" horiz-adv-x="1062" d="M54 284v94q0 49 10 92t34.5 83.5t62 69t96.5 46t133 17.5q135 -1 202.5 -1t67.5 1q2 43 0 45q0 78 -31 100t-106 22q-49 0 -213.5 -9.5t-218.5 -13.5v201q102 44 211 60t271 17q102 0 176 -16.5t131.5 -56.5t86.5 -112t29 -177v-746h-268l-68 116q-18 -37 -100 -84 q-78 -44 -174 -44h-12q-159 6 -239.5 95t-80.5 201zM390 336q0 -31 7.5 -50.5t23.5 -27t28.5 -9.5t35.5 -2q46 0 90 19.5t65 38.5l20 19v165l-194 -16q-33 -3 -51 -21.5t-21.5 -36.5t-3.5 -44v-35z" />
<glyph unicode="b" d="M83 0v1608h335v-571q65 31 148.5 49t154.5 18q88 0 151 -25t102.5 -69t62 -117.5t30.5 -155.5t8 -198q0 -277 -83 -414t-271 -137q-159 0 -301 117l-55 -105h-282zM420 324q66 -57 200 -57q63 0 91 60t28 227q0 124 -15 191t-38.5 87t-65.5 20q-129 0 -200 -36v-492z" />
<glyph unicode="c" horiz-adv-x="1007" d="M69 545q0 160 26 270.5t75.5 171t111.5 86t145 25.5q323 0 513 -69v-203q-164 13 -346 13q-31 0 -47 -0.5t-39 -4.5t-34 -11.5t-25.5 -22t-20.5 -36t-13 -53t-9 -73.5t-2 -98q0 -68 3.5 -114t13.5 -79.5t22.5 -52t36.5 -29t48.5 -13.5t65.5 -3q84 0 174 4.5t138 8.5l48 5 v-204q-45 -27 -95.5 -43t-112 -22t-102.5 -8q-27 -1 -70 -1h-46q-74 1 -101 1q-64 0 -115.5 15.5t-98 54t-77.5 100.5t-49 159t-18 226z" />
<glyph unicode="d" d="M69 539q0 119 8 202.5t30.5 156t61.5 115.5t102 67t151 24q71 0 155.5 -18t148.5 -49v571h335v-1608h-282l-55 105q-142 -117 -302 -117q-189 0 -271 133.5t-82 417.5zM404 554q0 -114 14.5 -178t39 -86.5t66.5 -22.5q134 0 200 57v492q-71 36 -200 36q-42 0 -66 -20 t-39 -87t-15 -191z" />
<glyph unicode="e" horiz-adv-x="1075" d="M69 549q0 116 10.5 200.5t36 146t60.5 100t91 61t120.5 31t156.5 8.5t153 -4.5t119.5 -19.5t93 -41.5t62 -71.5t38.5 -109.5t11 -154.5q0 -150 -78.5 -215t-232.5 -65h-306q0 -25 2 -45.5t8 -36.5t10.5 -28.5t16.5 -21.5t19.5 -15.5t25.5 -10t27.5 -6t34 -3.5t36 -0.5 t41.5 0.5h17h134.5t92 5t131.5 16v-222q-65 -27 -173 -40.5t-179 -15t-191 -1.5h-30q-202 0 -280 129.5t-78 429.5zM404 641h204q37 0 57 19.5t20 54.5q0 85 -20.5 111t-98.5 26q-35 0 -55 -1.5t-41.5 -8.5t-32 -20.5t-19.5 -37t-12 -58.5q-2 -26 -2 -61v-24z" />
<glyph unicode="f" horiz-adv-x="829" d="M27 844v209l160 34v203q0 163 82 241.5t264 78.5q160 0 270 -49v-196l-175 2q-23 0 -39 -3t-27.5 -7t-19 -16t-11.5 -20.5t-6 -29.5t-2 -34v-44v-5v-5v-5v-111h227v-243h-227v-844h-336v844h-160z" />
<glyph unicode="g" horiz-adv-x="1153" d="M63 200q0 156 128 202q-62 39 -91 124t-29 179q0 387 385 387h670v-192l-105 -37q12 -31 17.5 -48t10.5 -58t5 -99q0 -55 -9.5 -102t-36 -94.5t-68 -81t-111 -54.5t-159.5 -21h-227q-55 0 -70 -13q-13 -10 -13 -30q0 -31 21 -40.5t62 -9.5h296q162 0 252.5 -82t90.5 -254 v-114q0 -67 -18 -121t-57.5 -99t-110 -70t-167.5 -25h-308q-153 0 -248 80t-95 235v125l101 87q-48 24 -82 83t-34 143zM407 705q0 -75 26 -108t86 -33h84q65 0 91 32q24 32 24 103v6q-1 74 -28 101t-89 27h-83q-67 0 -89 -33t-22 -95zM416 -44v-146q0 -65 25.5 -84.5 t85.5 -19.5h120q35 0 56.5 7t30.5 22t11.5 29t2.5 38v65q0 84 -95 85h-153z" />
<glyph unicode="h" horiz-adv-x="1130" d="M83 0v1603h334v-627q40 32 62.5 48t64.5 39t91 33t108 10q78 0 135.5 -20.5t92.5 -55t56.5 -86.5t29 -107t7.5 -125v-712h-336v718q0 70 -24.5 99.5t-72.5 29.5q-72 0 -119.5 -20t-92.5 -66v-761h-336z" />
<glyph unicode="i" horiz-adv-x="487" d="M69 1244v207q0 51 49 51h256q45 0 45 -51v-207q0 -47 -45 -47h-256q-22 0 -35.5 12.5t-13.5 34.5zM75 0v1087h336v-1087h-336z" />
<glyph unicode="j" horiz-adv-x="516" d="M83 1244v207q0 51 49 51h256q23 0 35 -14t12 -37v-207q0 -47 -47 -47h-256q-22 0 -35.5 12.5t-13.5 34.5zM92 -553v1640h336v-1095v-39q0 -148 -14 -265q-15 -133 -70 -241h-252z" />
<glyph unicode="k" horiz-adv-x="1183" d="M83 0v1602h336v-871h51l270 356h418l-380 -478l380 -609h-396l-292 487h-51v-487h-336z" />
<glyph unicode="l" horiz-adv-x="651" d="M83 387v1217h336v-1155q0 -72 12 -115t28.5 -60t45.5 -30q107 -43 121 -43v-201h-257q-144 0 -215 88.5t-71 298.5z" />
<glyph unicode="m" horiz-adv-x="1775" d="M83 0v1087h275l61 -112q31 25 37.5 30t34.5 25t40 25.5t40 18.5t49.5 17t53 8.5t66.5 4.5q204 0 275 -133q89 61 176 97t198 36q94 0 158.5 -29t99 -85t48.5 -123t14 -157v-710h-336v716q0 129 -97 129q-144 0 -217 -74q0 -6 1 -29.5t1 -30.5v-711h-336v716 q0 129 -97 129q-71 0 -118 -19.5t-91 -65.5v-760h-336z" />
<glyph unicode="n" horiz-adv-x="1130" d="M83 0v1087h275l61 -111q43 34 64.5 49.5t63.5 38.5t89.5 32.5t106.5 9.5q78 0 135.5 -20.5t92.5 -55t56.5 -86.5t29 -107t7.5 -125v-712h-336v718q0 70 -24.5 99.5t-72.5 29.5q-72 0 -119.5 -20t-92.5 -66v-761h-336z" />
<glyph unicode="o" d="M69 528q0 135 17 230t52 162t96 105.5t141.5 55.5t195.5 17q144 0 238 -28t154 -95.5t85 -174.5t25 -272q0 -155 -24 -255t-83 -164.5t-153.5 -91.5t-241.5 -27q-143 0 -238.5 29t-154.5 95t-84 165.5t-25 248.5zM404 528q0 -77 5.5 -126t15.5 -81t31.5 -47t46.5 -20 t68 -5q39 0 61.5 2.5t43.5 12.5t31 26.5t18 49.5t10 76.5t2 111.5q0 88 -3.5 138.5t-12.5 88.5t-29 54t-47 23t-74 7q-39 0 -64 -3.5t-45 -17t-30 -32t-17 -57t-9 -83.5t-2 -118z" />
<glyph unicode="p" d="M83 -553v1640h282l54 -105q144 118 302 118q187 0 270.5 -138t83.5 -413q0 -106 -8 -185.5t-31 -154t-61.5 -122t-102.5 -75.5t-151 -28q-71 0 -155 17.5t-148 48.5v-603h-335zM419 271q71 -36 201 -36q42 0 65.5 20t38.5 87.5t15 191.5q0 167 -28 227t-91 60 q-134 0 -201 -58v-492z" />
<glyph unicode="q" horiz-adv-x="1136" d="M69 549q0 286 103.5 418.5t302.5 132.5q161 0 330 -20t250 -47v-1586h-336v612q-91 -79 -244 -79q-116 0 -195 35t-125.5 109t-66 176.5t-19.5 248.5zM404 560q0 -55 0.5 -87.5t3.5 -72t9 -61.5t16.5 -45.5t26 -35t37.5 -19t51 -7.5q54 0 90.5 8.5t80.5 33.5v582h-168 q-35 0 -61 -12.5t-41.5 -37.5t-25 -50.5t-13.5 -65t-5 -65t-1 -65.5z" />
<glyph unicode="r" horiz-adv-x="847" d="M83 0v1087h291l45 -137q49 63 121 105.5t157 42.5q76 0 110 -12v-323q-47 3 -159 3q-45 0 -74.5 -3.5t-62.5 -15t-55.5 -37t-36.5 -65.5v-645h-336z" />
<glyph unicode="s" horiz-adv-x="1042" d="M54 702v95q0 137 67 219t216 82q160 0 254.5 -2.5t201 -17.5t141.5 -44v-204h-477q-40 0 -53.5 -12t-13.5 -46v-33q0 -19 4.5 -30.5t16 -16t20 -5.5t26.5 -1h234q154 0 225.5 -79t71.5 -209v-115q0 -80 -22.5 -139t-62 -91.5t-84.5 -47.5t-97 -15q-123 0 -196 1.5t-174 7 t-163.5 20t-89.5 37.5v204h497q56 0 56 53v33q0 29 -11.5 42.5t-44.5 13.5h-228q-150 0 -232 73.5t-82 226.5z" />
<glyph unicode="t" horiz-adv-x="784" d="M27 846v176l166 68l52 303h284v-303h216v-244h-216v-395q0 -74 11.5 -117.5t27.5 -60.5t45 -30q107 -43 121 -43v-201h-275q-128 0 -197 91.5t-69 298.5v457h-166z" />
<glyph unicode="u" horiz-adv-x="1130" d="M69 376v711h335v-717q0 -70 24.5 -99.5t72.5 -29.5q72 0 120.5 20t92.5 66v760h336v-1087h-276l-60 112q-18 -11 -67.5 -44.5t-73.5 -46t-74.5 -26t-109.5 -13.5q-96 0 -161.5 30t-99 87t-46.5 122.5t-13 154.5z" />
<glyph unicode="v" horiz-adv-x="1177" d="M27 1087h358l200 -710l209 710h356l-379 -1087h-382z" />
<glyph unicode="w" horiz-adv-x="1710" d="M27 1087h358l180 -710l163 710h330l-63 -272l159 -438l172 710h360l-329 -1087h-382l-134 344l-103 -344h-385z" />
<glyph unicode="x" horiz-adv-x="1208" d="M34 0l368 545l-368 542h403l165 -291l169 291h404l-375 -548l358 -539h-387l-167 289l-167 -289h-403z" />
<glyph unicode="y" horiz-adv-x="1202" d="M29 1087h350l160 -728q5 -22 15.5 -37.5t19.5 -23t25.5 -12.5t21 -5.5t18.5 -1.5l184 808h345l-340 -1431l-147 -209h-245l139 553q-279 0 -352 296z" />
<glyph unicode="z" horiz-adv-x="983" d="M41 813v274h904v-274l-424 -537h424v-274h-873v271l451 540h-482z" />
<glyph unicode="{" horiz-adv-x="657" d="M27 561v244q62 6 100 29t38 80v429q0 180 116 280.5t350 100.5v-274q-75 0 -102.5 -46.5t-27.5 -182.5v-330q0 -187 -205 -207q95 -18 149 -69.5t54 -131.5v-453q0 -106 28 -154t104 -47v-259q-253 0 -360.5 86.5t-107.5 265.5v530q0 55 -37 84.5t-99 24.5z" />
<glyph unicode="|" horiz-adv-x="507" d="M118 -147v1724h274v-1724h-274z" />
<glyph unicode="}" horiz-adv-x="657" d="M27 -171q76 -1 104 47t28 154v453q0 80 54 131.5t149 69.5q-205 20 -205 207v330q0 136 -27.5 182.5t-102.5 46.5v274q234 0 350 -100.5t116 -280.5v-429q0 -57 38 -80t100 -29v-244q-62 5 -99 -24.5t-37 -84.5v-530q0 -179 -107.5 -265.5t-360.5 -86.5v259z" />
<glyph unicode="~" horiz-adv-x="843" d="M69 1211q56 68 114 108.5t134 40.5q46 0 112 -36t106 -36q99 -4 190 82l51 -135q-113 -148 -231 -148q-46 0 -120.5 36t-113.5 36q-55 0 -93 -16.5t-97 -55.5z" />
<glyph unicode="&#xa1;" horiz-adv-x="569" d="M117 -553l34 1094h264l34 -1094h-332zM133 693v204q0 21 13.5 33t35.5 14h200q20 -2 35 -17t15 -36v-197q-2 -56 -46 -56h-204q-22 0 -35.5 14t-13.5 41z" />
<glyph unicode="&#xa2;" horiz-adv-x="995" d="M54 545q0 130 18 227.5t49 159.5t78.5 100t101 53t121.5 14v199h197v-205q172 -16 308 -64v-203q-165 14 -347 14q-28 0 -42.5 -0.5t-35.5 -3t-31.5 -8.5t-25 -16t-21 -25.5t-15 -37.5t-11.5 -52t-5.5 -69t-2.5 -88q0 -81 6.5 -132.5t17.5 -84.5t36 -49t53 -21t77 -5 q84 0 174 4.5t138 9.5l48 4v-204q-121 -69 -327 -73v-184h-197v184q-65 1 -117.5 16.5t-99 54t-78 100.5t-49.5 159t-18 226z" />
<glyph unicode="&#xa3;" horiz-adv-x="1183" d="M69 0v259l132 46v325h-132v169l132 50v124q0 97 12.5 173.5t35 131.5t59.5 94.5t79 64t101 38.5t118.5 19t137.5 5q52 0 145 -8.5t159 -16.5l67 -8v-270h-382q-43 0 -68 -1.5t-50 -8t-37.5 -18.5t-23 -33.5t-14 -52t-3.5 -75.5v-158l416 -35v-184h-416v-325h576v-305 h-1044z" />
<glyph unicode="&#xa4;" horiz-adv-x="905" d="M71 889l105 109l96 -94q82 57 182 57q96 0 177 -54l93 98l112 -102l-101 -104q43 -74 43 -163q0 -107 -60 -192l96 -93l-101 -112l-111 106q-70 -38 -148 -38q-91 0 -172 52l-95 -99l-110 107l100 101q-46 79 -46 168q0 86 40 157zM305 635q0 -63 43.5 -107.5 t105.5 -44.5t106 45t44 107t-44 106t-106 44q-61 0 -105 -44t-44 -106z" />
<glyph unicode="&#xa5;" horiz-adv-x="1323" d="M27 1499h366l258 -671l279 671h367l-384 -796h174v-182h-274v-64h274v-182h-274v-275h-336v275h-265v182h265v64h-265v182h170z" />
<glyph unicode="&#xa6;" horiz-adv-x="509" d="M118 -147v671h274v-671h-274zM118 879v698h274v-698h-274z" />
<glyph unicode="&#xa7;" horiz-adv-x="1099" d="M76 1208v82q0 152 76.5 234t220.5 82q155 0 324 -10t252 -29v-236h-469q-37 0 -52 -15t-16 -47v-45q0 -28 17 -45.5t54 -17.5h210q174 0 254.5 -62t79.5 -195v-50q0 -194 -132 -234q41 -6 68.5 -30.5t40 -59t17 -64t4.5 -60.5v-104q0 -74 -17 -131.5t-44.5 -92 t-65.5 -56.5t-76 -30t-80 -8q-447 0 -590 39v235h464q40 0 57 11.5t18 43.5v56q0 32 -16.5 44t-56.5 12h-215q-159 0 -242 55.5t-83 196.5v50q0 96 16 141q31 83 120 111q-46 21 -76 50t-42.5 63t-16 59t-3.5 57zM412 760q0 -47 19.5 -61.5t64.5 -14.5h107q56 0 72 16.5 t16 61.5v59q0 43 -15 61.5t-73 18.5h-107q-54 0 -69 -18.5t-15 -65.5v-57z" />
<glyph unicode="&#xa8;" horiz-adv-x="911" d="M69 1192q0 52 37 88.5t90 36.5t89.5 -36.5t36.5 -88.5q0 -53 -37 -90.5t-89 -37.5t-89.5 37.5t-37.5 90.5zM591 1192q0 52 37 88.5t90 36.5t89.5 -36.5t36.5 -88.5q0 -53 -37 -90.5t-89 -37.5t-89.5 37.5t-37.5 90.5z" />
<glyph unicode="&#xa9;" horiz-adv-x="1630" d="M76 754q0 87 6 162t22.5 152.5t42.5 140t68 117.5t97.5 92.5t133 59t171.5 21.5h446q100 0 179.5 -27t132.5 -79t90 -118t56.5 -153.5t28 -175t8.5 -192.5q0 -368 -130 -561t-365 -193h-446q-114 0 -206 39.5t-153.5 108t-103 165t-60 206t-18.5 235.5zM284 754 q0 -164 34 -287t110 -198.5t189 -75.5h431q302 2 302 561q0 62 -1.5 109t-8.5 107.5t-18.5 105t-33 90.5t-51 75t-74 47.5t-100.5 18.5h-446q-58 0 -104.5 -13.5t-90.5 -50.5t-73.5 -97.5t-47 -160t-17.5 -231.5zM452 748q0 121 20.5 208.5t59.5 139t91.5 75t122.5 23.5 q84 0 192.5 -11.5t187.5 -37.5v-168q-172 24 -318 24q-84 0 -116.5 -55.5t-32.5 -204.5q0 -130 37 -188.5t123 -58.5q151 0 320 32v-168q-77 -35 -165.5 -46t-213.5 -11q-52 0 -94.5 11.5t-83.5 42t-68.5 79.5t-44.5 129t-17 185z" />
<glyph unicode="&#xaa;" horiz-adv-x="751" d="M41 534v149h671v-149h-671zM41 957v64q0 86 56 142t180 56q178 -2 178 0q2 21 0 23q0 49 -22.5 62.5t-75.5 13.5q-67 0 -129.5 -4t-108.5 -9t-53 -5v154q75 31 149 44t180 14q156 1 236 -52.5t80 -187.5v-498h-199l-57 88q-11 -28 -65.5 -63t-123.5 -33q-57 2 -102 20 t-71 46t-39 60t-13 65zM279 999q0 -19 5 -30.5t16 -16t20 -6t25 -1.5q34 0 61.5 11.5t37.5 23.5l11 12v100l-124 -10q-23 -2 -35.5 -13.5t-14.5 -22t-2 -27.5v-20z" />
<glyph unicode="&#xab;" horiz-adv-x="1212" d="M69 725l421 416l176 -173l-248 -243l252 -249l-169 -177zM543 725l422 416l176 -173l-249 -243l253 -249l-170 -177z" />
<glyph unicode="&#xac;" horiz-adv-x="987" d="M56 478v259h875v-411h-259v152h-616z" />
<glyph unicode="&#xad;" horiz-adv-x="724" d="M41 457v274h643v-274h-643z" />
<glyph unicode="&#xae;" horiz-adv-x="1630" d="M76 754q0 87 6 162t22.5 152.5t42.5 140t68 117.5t97.5 92.5t133 59t171.5 21.5h446q100 0 179.5 -27t132.5 -79t90 -118t56.5 -153.5t28 -175t8.5 -192.5q0 -368 -130 -561t-365 -193h-446q-114 0 -206 39.5t-153.5 108t-103 165t-60 206t-18.5 235.5zM284 754 q0 -164 34 -287t110 -198.5t189 -75.5h431q302 2 302 561q0 62 -1.5 109t-8.5 107.5t-18.5 105t-33 90.5t-51 75t-74 47.5t-100.5 18.5h-446q-58 0 -104.5 -13.5t-90.5 -50.5t-73.5 -97.5t-47 -160t-17.5 -231.5zM498 313v875h378q43 0 80.5 -7t74 -26t62 -49.5t41.5 -80.5 t16 -115q0 -125 -38 -185t-110 -83l176 -329h-223l-164 318l-85 24v-342h-208zM706 807h120q79 0 97.5 16.5t18.5 84.5q0 57 -24 72t-92 15h-120v-188z" />
<glyph unicode="&#xaf;" horiz-adv-x="735" d="M69 1087v176h598v-176h-598z" />
<glyph unicode="&#xb0;" horiz-adv-x="552" d="M69 1294q0 88 61.5 149.5t147.5 61.5t146 -61.5t60 -149.5t-60 -148.5t-146 -60.5q-87 0 -148 61t-61 148zM194 1294q0 -34 24.5 -57.5t59.5 -23.5q34 0 57.5 23.5t23.5 57.5q0 35 -23.5 59.5t-57.5 24.5t-59 -25t-25 -59z" />
<glyph unicode="&#xb1;" horiz-adv-x="1005" d="M78 132v275h852v-275h-852zM78 777v275h287v288h274v-288h291v-275h-291v-289h-274v289h-287z" />
<glyph unicode="&#xb2;" horiz-adv-x="829" d="M42 1526v48q-1 48 0 96v47q212 42 420 42q157 0 234 -82.5t77 -222.5q0 -202 -335 -468h334v-233h-722v223q58 38 124.5 87t149.5 117.5t137 134.5t54 110q0 60 -34.5 80.5t-122.5 20.5h-316z" />
<glyph unicode="&#xb3;" horiz-adv-x="837" d="M41 1516v189q83 31 189.5 38.5t262.5 4.5q122 -2 193.5 -69t71.5 -181v-58q0 -153 -122 -194q122 -41 122 -206v-44q0 -122 -70 -187.5t-205 -65.5h-47h-49t-44.5 0.5t-47 1t-42.5 2t-44.5 3.5t-40 5.5t-42.5 7.5t-37.5 9.5t-38.5 12.5l2 191h313q83 0 110 12t27 53v18 q0 41 -30.5 56t-98.5 17l-238 10v207l238 14q74 2 103 15.5t29 52.5v17q0 40 -33 54t-99 14h-332z" />
<glyph unicode="&#xb4;" horiz-adv-x="497" d="M27 1087l173 288h272l-242 -288h-203z" />
<glyph unicode="&#xb5;" horiz-adv-x="1200" d="M124 376v711h336v-717q0 -70 24.5 -99.5t72.5 -29.5q72 0 120.5 20t92.5 66v760h335v-1087h-275l-60 112q-10 -6 -48.5 -31t-54.5 -34t-46.5 -22.5t-58.5 -19.5q-51 -12 -102 -6v-552h-336v929z" />
<glyph unicode="&#xb6;" horiz-adv-x="1177" d="M54 1022v190q0 141 88 214t232 73h780v-232h-97v-1267h-229v1271h-115v-1824h-229v1315q-1 0 -16 -10t-39 -17.5t-55 -7.5q-83 0 -146 23.5t-100 64.5t-55.5 93t-18.5 114zM283 1054q0 -33 8 -54t24.5 -30t32.5 -12t41 -3h95v316h-95q-67 0 -86.5 -24t-19.5 -88v-105z " />
<glyph unicode="&#xb7;" horiz-adv-x="532" d="M117 685v209q0 51 49 51h201q51 0 51 -51v-209q0 -47 -51 -47h-201q-22 0 -35.5 12.5t-13.5 34.5z" />
<glyph unicode="&#xb8;" horiz-adv-x="493" d="M69 -229l84 30q41 18 50 39.5t9 83.5h214q0 -160 -52 -227t-186 -67h-119v141z" />
<glyph unicode="&#xb9;" horiz-adv-x="552" d="M22 1484v148l190 113h253v-992h-256v769z" />
<glyph unicode="&#xba;" horiz-adv-x="811" d="M41 1126q0 148 35.5 230t112.5 116t217 34q206 0 285.5 -82.5t79.5 -297.5q0 -202 -78.5 -280.5t-286.5 -78.5q-204 0 -284.5 81t-80.5 278zM70 535v150h672v-150h-672zM297 1128q0 -56 5 -88.5t19.5 -49t32.5 -21t52 -4.5q37 0 54.5 3.5t31.5 20t18.5 48.5t4.5 91 q1 83 -8.5 120t-30.5 49t-70 12q-48 0 -69.5 -12.5t-30.5 -49.5t-9 -119z" />
<glyph unicode="&#xbb;" horiz-adv-x="1212" d="M69 476l252 249l-248 243l175 173l422 -416l-432 -426zM543 476l253 249l-249 243l176 173l422 -416l-432 -426z" />
<glyph unicode="&#xbc;" horiz-adv-x="1927" d="M22 1254v148l190 112h253v-991h-256v769zM326 0l894 1558h235l-894 -1558h-235zM1040 297l324 694h265l-254 -568h177v195l47 103h209v-298h92v-199l-92 -40v-181h-256v181h-465z" />
<glyph unicode="&#xbd;" horiz-adv-x="2041" d="M22 1254v148l190 112h253v-991h-256v769zM308 0l894 1558h235l-894 -1558h-235zM1248 773v48q-1 48 0 95v48q215 42 424 42q159 0 237.5 -82.5t78.5 -222.5q0 -202 -342 -468h341v-233h-731v225q60 40 127 90.5t152 121t140 139.5t55 114q0 48 -35.5 65.5t-124.5 17.5 h-322z" />
<glyph unicode="&#xbe;" horiz-adv-x="2158" d="M41 1287v190q58 21 137 31.5t156 10.5t165 -1q123 -2 195.5 -69t72.5 -181v-58q0 -153 -122 -194q122 -41 122 -207v-43q0 -121 -71 -187t-207 -66h-58.5h-62.5t-54.5 1t-59 2.5t-51 4.5t-56 7.5t-47.5 11t-50 14.5l2 191l319 1q84 0 112 12t28 53v18q0 41 -31 55.5 t-101 16.5l-244 10v206l244 16q77 2 106.5 15.5t29.5 52.5v19q0 40 -34.5 53.5t-101.5 13.5h-338zM538 0l894 1558h235l-894 -1558h-235zM1230 298l323 693h263l-254 -570h182v198l44 103h210v-301h91v-196l-91 -41v-181h-254v181h-468z" />
<glyph unicode="&#xbf;" horiz-adv-x="1112" d="M54 -6q-1 207 107 309.5t344 87.5v176h262v-424q-23 1 -107 1t-107 -1q-155 -6 -158 -158v-75q0 -73 49 -112.5t148 -38.5l494 1q-1 0 -1 -26v-63v-74v-63v-25q-152 -35 -281.5 -49t-295.5 -7q-93 0 -170 24t-128.5 64.5t-87.5 94t-52 111t-16 117.5v130zM487 712v206 q0 46 51 48h198q22 -1 35.5 -13.5t13.5 -33.5v-207q-2 -51 -47 -52h-202q-47 3 -49 52z" />
<glyph unicode="&#xc0;" horiz-adv-x="1433" d="M61 0l490 1499h390l472 -1499h-351l-98 301h-452l-98 -301h-353zM403 1920h271l173 -288h-203zM593 592h298l-142 476z" />
<glyph unicode="&#xc1;" horiz-adv-x="1433" d="M61 0l490 1499h390l472 -1499h-351l-98 301h-452l-98 -301h-353zM593 592h298l-142 476zM644 1632l173 288h272l-242 -288h-203z" />
<glyph unicode="&#xc2;" horiz-adv-x="1433" d="M61 0l490 1499h390l472 -1499h-351l-98 301h-452l-98 -301h-353zM424 1632l213 282h238l193 -282h-207l-112 115l-116 -115h-209zM593 592h298l-142 476z" />
<glyph unicode="&#xc3;" horiz-adv-x="1433" d="M61 0l490 1499h390l472 -1499h-351l-98 301h-452l-98 -301h-353zM392 1756q120 147 249 147q48 -1 115 -36.5t103 -35.5q92 -5 189 80l52 -135q-117 -144 -231 -143q-49 1 -122 36t-111 35q-56 -1 -94 -17t-98 -55zM593 592h298l-142 476z" />
<glyph unicode="&#xc4;" horiz-adv-x="1433" d="M61 0l490 1499h390l472 -1499h-351l-98 301h-452l-98 -301h-353zM358 1760q0 52 37.5 88.5t90.5 36.5q52 0 88.5 -36.5t36.5 -88.5q0 -53 -36.5 -90.5t-88.5 -37.5t-90 38t-38 90zM593 592h298l-142 476zM880 1760q0 52 37.5 88.5t90.5 36.5q52 0 88.5 -36.5t36.5 -88.5 q0 -53 -36.5 -90.5t-88.5 -37.5t-90 38t-38 90z" />
<glyph unicode="&#xc5;" horiz-adv-x="1433" d="M61 0l490 1499h390l472 -1499h-351l-98 301h-452l-98 -301h-353zM538 1704q0 88 61.5 149.5t147.5 61.5t146.5 -61.5t60.5 -149.5t-60.5 -148.5t-146.5 -60.5q-87 0 -148 61t-61 148zM593 592h298l-142 476zM666 1704q0 -33 23.5 -55.5t57.5 -22.5t56 22t22 56 t-22.5 57.5t-55.5 23.5q-34 0 -57.5 -23.5t-23.5 -57.5z" />
<glyph unicode="&#xc6;" horiz-adv-x="1978" d="M41 0l569 1157q47 95 107.5 162.5t125 102.5t138.5 55.5t148 21.5t153 0q455 -8 635 -33v-280h-543q-25 0 -43.5 -4t-30 -13.5t-18 -18t-9.5 -24.5t-4 -25.5t-1 -27.5v-174l552 -22v-277l-552 -19v-169q0 -30 7.5 -51t17 -31t29 -15.5t31 -6t35.5 -0.5h7h521v-280 q-70 -10 -223.5 -18.5t-271.5 -12.5l-118 -4q-47 -3 -93 1t-98 19.5t-90.5 42.5t-64 76.5t-25.5 115.5v125h-333l-186 -373h-372zM738 663h194v411z" />
<glyph unicode="&#xc7;" horiz-adv-x="1165" d="M76 754q0 150 14 264t49 210.5t93 158t147 95.5t210 34q182 0 292 -16t239 -59v-262l-14 1q-14 2 -38.5 5t-56.5 6t-72 6.5t-81.5 6.5t-88 4.5t-88.5 1.5t-67.5 -2t-55.5 -8.5t-47.5 -19.5t-36 -36t-28.5 -56t-18.5 -81t-12 -111.5t-3.5 -145.5q0 -133 11 -214.5t41 -139 t82.5 -80.5t136.5 -23q96 0 205 4.5t170 8.5l62 4v-262q-99 -36 -221 -50t-310 -10q-140 2 -239.5 52.5t-159.5 150t-87 237.5t-27 326zM155 -229l84 31q41 18 50 39.5t9 83.5h214q0 -160 -52 -227t-186 -67h-119v140z" />
<glyph unicode="&#xc8;" horiz-adv-x="1161" d="M102 310v861q0 81 23.5 142.5t58.5 96t84 56t93 28t92 5.5q484 -8 664 -33v-280h-572q-38 0 -61 -9t-32.5 -28.5t-11.5 -34.5t-2 -42v-170l581 -22v-278l-581 -19v-170q0 -23 4.5 -40.5t10 -28.5t18 -18.5t19.5 -11t24.5 -5.5t24.5 -2h26h552v-278q-70 -10 -231 -18.5 t-287 -12.5l-126 -4q-47 -2 -90.5 2.5t-97 23t-92 51t-65 94t-26.5 145.5zM328 1919h272l173 -288h-203z" />
<glyph unicode="&#xc9;" horiz-adv-x="1161" d="M102 310v861q0 81 23.5 142.5t58.5 96t84 56t93 28t92 5.5q484 -8 664 -33v-280h-572q-38 0 -61 -9t-32.5 -28.5t-11.5 -34.5t-2 -42v-170l581 -22v-278l-581 -19v-170q0 -23 4.5 -40.5t10 -28.5t18 -18.5t19.5 -11t24.5 -5.5t24.5 -2h26h552v-278q-70 -10 -231 -18.5 t-287 -12.5l-126 -4q-47 -2 -90.5 2.5t-97 23t-92 51t-65 94t-26.5 145.5zM556 1630l173 287h271l-242 -287h-202z" />
<glyph unicode="&#xca;" horiz-adv-x="1161" d="M102 310v861q0 81 23.5 142.5t58.5 96t84 56t93 28t92 5.5q484 -8 664 -33v-280h-572q-38 0 -61 -9t-32.5 -28.5t-11.5 -34.5t-2 -42v-170l581 -22v-278l-581 -19v-170q0 -23 4.5 -40.5t10 -28.5t18 -18.5t19.5 -11t24.5 -5.5t24.5 -2h26h552v-278q-70 -10 -231 -18.5 t-287 -12.5l-126 -4q-47 -2 -90.5 2.5t-97 23t-92 51t-65 94t-26.5 145.5zM330 1632l213 282h238l193 -282h-207l-112 115l-116 -115h-209z" />
<glyph unicode="&#xcb;" horiz-adv-x="1161" d="M102 310v861q0 81 23.5 142.5t58.5 96t84 56t93 28t92 5.5q484 -8 664 -33v-280h-572q-38 0 -61 -9t-32.5 -28.5t-11.5 -34.5t-2 -42v-170l581 -22v-278l-581 -19v-170q0 -23 4.5 -40.5t10 -28.5t18 -18.5t19.5 -11t24.5 -5.5t24.5 -2h26h552v-278q-70 -10 -231 -18.5 t-287 -12.5l-126 -4q-47 -2 -90.5 2.5t-97 23t-92 51t-65 94t-26.5 145.5zM249 1757q0 52 37.5 89t90.5 37q52 0 88.5 -36.5t36.5 -89.5t-36.5 -90t-88.5 -37q-53 0 -90.5 37.5t-37.5 89.5zM772 1757q0 52 37 89t90 37t89.5 -36.5t36.5 -89.5t-37 -90t-89 -37q-53 0 -90 37 t-37 90z" />
<glyph unicode="&#xcc;" horiz-adv-x="526" d="M-65 1920h271l173 -288h-202zM110 0v1499h336v-1499h-336z" />
<glyph unicode="&#xcd;" horiz-adv-x="526" d="M110 0v1499h336v-1499h-336zM177 1632l173 288h271l-242 -288h-202z" />
<glyph unicode="&#xce;" horiz-adv-x="526" d="M-44 1632l213 282h238l193 -282h-207l-111 115l-117 -115h-209zM110 0v1499h336v-1499h-336z" />
<glyph unicode="&#xcf;" horiz-adv-x="526" d="M-110 1760q0 52 37.5 88.5t90.5 36.5q52 0 88.5 -36.5t36.5 -88.5q0 -53 -36.5 -90.5t-88.5 -37.5t-90 38t-38 90zM110 0v1499h336v-1499h-336zM413 1760q0 52 37 88.5t90 36.5t89.5 -36.5t36.5 -88.5q0 -53 -37 -90.5t-89 -37.5t-89.5 37.5t-37.5 90.5z" />
<glyph unicode="&#xd0;" horiz-adv-x="1359" d="M-23 693v142h133v664h667q122 0 214.5 -41.5t149 -110t91 -169t47.5 -204.5t13 -231q0 -743 -515 -743h-667v693h-133zM446 291h300q113 0 160.5 112t47.5 342q0 141 -14 234.5t-43 142t-64.5 67t-86.5 18.5l-300 -1v-371h208v-142h-208v-402z" />
<glyph unicode="&#xd1;" horiz-adv-x="1386" d="M110 0v1499h340l521 -878v878h336v-1499h-336l-523 863v-863h-338zM355 1756q120 147 249 147q48 -1 115 -36.5t103 -35.5q92 -5 189 80l51 -135q-117 -144 -231 -143q-49 1 -122 36t-111 35q-39 0 -73 -10.5t-55.5 -22.5t-62.5 -39z" />
<glyph unicode="&#xd2;" horiz-adv-x="1370" d="M90 739q0 115 10 211t27 169.5t45 131t59 98.5t74 70t84.5 46.5t96 27.5t103.5 13t112 3q65 0 114.5 -3t105 -13t96.5 -27.5t83.5 -46.5t73 -70t58 -98.5t44 -131t26 -169.5t9.5 -211q0 -140 -15 -250t-41 -188t-68.5 -134t-90 -89.5t-114 -53t-131 -26t-150.5 -6.5 q-104 0 -174.5 8.5t-146.5 33.5t-124 76t-88.5 132t-59 205t-18.5 292zM358 1920h271l173 -288h-202zM426 739q0 -96 4 -160.5t16 -116.5t30.5 -82t51 -49.5t73 -26.5t100.5 -7q67 0 110.5 11t77 38.5t51.5 79t26.5 126.5t8.5 187q0 90 -4.5 156t-13 117t-25 84t-35.5 55 t-50.5 33.5t-64.5 15.5t-81 4t-79.5 -3.5t-63.5 -14t-51 -31t-36.5 -53.5t-26 -83.5t-13.5 -119t-5 -160.5z" />
<glyph unicode="&#xd3;" horiz-adv-x="1370" d="M90 739q0 115 10 211t27 169.5t45 131t59 98.5t74 70t84.5 46.5t96 27.5t103.5 13t112 3q65 0 114.5 -3t105 -13t96.5 -27.5t83.5 -46.5t73 -70t58 -98.5t44 -131t26 -169.5t9.5 -211q0 -140 -15 -250t-41 -188t-68.5 -134t-90 -89.5t-114 -53t-131 -26t-150.5 -6.5 q-104 0 -174.5 8.5t-146.5 33.5t-124 76t-88.5 132t-59 205t-18.5 292zM426 739q0 -96 4 -160.5t16 -116.5t30.5 -82t51 -49.5t73 -26.5t100.5 -7q67 0 110.5 11t77 38.5t51.5 79t26.5 126.5t8.5 187q0 90 -4.5 156t-13 117t-25 84t-35.5 55t-50.5 33.5t-64.5 15.5t-81 4 t-79.5 -3.5t-63.5 -14t-51 -31t-36.5 -53.5t-26 -83.5t-13.5 -119t-5 -160.5zM600 1632l173 288h271l-242 -288h-202z" />
<glyph unicode="&#xd4;" horiz-adv-x="1370" d="M90 739q0 115 10 211t27 169.5t45 131t59 98.5t74 70t84.5 46.5t96 27.5t103.5 13t112 3q65 0 114.5 -3t105 -13t96.5 -27.5t83.5 -46.5t73 -70t58 -98.5t44 -131t26 -169.5t9.5 -211q0 -140 -15 -250t-41 -188t-68.5 -134t-90 -89.5t-114 -53t-131 -26t-150.5 -6.5 q-104 0 -174.5 8.5t-146.5 33.5t-124 76t-88.5 132t-59 205t-18.5 292zM379 1632l213 282h238l193 -282h-207l-111 115l-117 -115h-209zM426 739q0 -96 4 -160.5t16 -116.5t30.5 -82t51 -49.5t73 -26.5t100.5 -7q67 0 110.5 11t77 38.5t51.5 79t26.5 126.5t8.5 187 q0 90 -4.5 156t-13 117t-25 84t-35.5 55t-50.5 33.5t-64.5 15.5t-81 4t-79.5 -3.5t-63.5 -14t-51 -31t-36.5 -53.5t-26 -83.5t-13.5 -119t-5 -160.5z" />
<glyph unicode="&#xd5;" horiz-adv-x="1370" d="M90 739q0 115 10 211t27 169.5t45 131t59 98.5t74 70t84.5 46.5t96 27.5t103.5 13t112 3q65 0 114.5 -3t105 -13t96.5 -27.5t83.5 -46.5t73 -70t58 -98.5t44 -131t26 -169.5t9.5 -211q0 -140 -15 -250t-41 -188t-68.5 -134t-90 -89.5t-114 -53t-131 -26t-150.5 -6.5 q-104 0 -174.5 8.5t-146.5 33.5t-124 76t-88.5 132t-59 205t-18.5 292zM347 1756q120 147 249 147q48 -1 115 -36.5t103 -35.5q93 -5 190 80l51 -135q-117 -144 -231 -143q-49 1 -122 36t-111 35q-56 -1 -94 -17t-98 -55zM426 739q0 -96 4 -160.5t16 -116.5t30.5 -82 t51 -49.5t73 -26.5t100.5 -7q67 0 110.5 11t77 38.5t51.5 79t26.5 126.5t8.5 187q0 90 -4.5 156t-13 117t-25 84t-35.5 55t-50.5 33.5t-64.5 15.5t-81 4t-79.5 -3.5t-63.5 -14t-51 -31t-36.5 -53.5t-26 -83.5t-13.5 -119t-5 -160.5z" />
<glyph unicode="&#xd6;" horiz-adv-x="1370" d="M90 739q0 115 10 211t27 169.5t45 131t59 98.5t74 70t84.5 46.5t96 27.5t103.5 13t112 3q65 0 114.5 -3t105 -13t96.5 -27.5t83.5 -46.5t73 -70t58 -98.5t44 -131t26 -169.5t9.5 -211q0 -140 -15 -250t-41 -188t-68.5 -134t-90 -89.5t-114 -53t-131 -26t-150.5 -6.5 q-104 0 -174.5 8.5t-146.5 33.5t-124 76t-88.5 132t-59 205t-18.5 292zM313 1760q0 52 37.5 88.5t90.5 36.5t89 -36.5t36 -88.5q0 -53 -36.5 -90.5t-88.5 -37.5q-53 0 -90.5 38t-37.5 90zM426 739q0 -96 4 -160.5t16 -116.5t30.5 -82t51 -49.5t73 -26.5t100.5 -7 q67 0 110.5 11t77 38.5t51.5 79t26.5 126.5t8.5 187q0 90 -4.5 156t-13 117t-25 84t-35.5 55t-50.5 33.5t-64.5 15.5t-81 4t-79.5 -3.5t-63.5 -14t-51 -31t-36.5 -53.5t-26 -83.5t-13.5 -119t-5 -160.5zM836 1760q0 52 37 88.5t90 36.5t89.5 -36.5t36.5 -88.5 q0 -53 -37 -90.5t-89 -37.5t-89.5 37.5t-37.5 90.5z" />
<glyph unicode="&#xd7;" horiz-adv-x="948" d="M78 524l203 203l-203 205l192 194l205 -204l205 206l194 -194l-205 -207l205 -203l-194 -194l-205 203l-203 -203z" />
<glyph unicode="&#xd8;" horiz-adv-x="1392" d="M88 0l126 179q-110 170 -110 560q0 115 10 211t27 169.5t44.5 131t58.5 98.5t73.5 70t84 46.5t96.5 27.5t103.5 13t112.5 3q124 0 215.5 -15.5t161.5 -58.5l44 64h163l-108 -154q135 -180 135 -606q0 -123 -10.5 -222t-33.5 -174t-52 -131.5t-71.5 -94.5t-87.5 -63 t-105.5 -38.5t-118 -18.5t-132.5 -5q-141 0 -238 17.5t-169 69.5l-56 -79h-163zM440 739q0 -147 17 -216l441 641q-49 40 -184 40q-57 0 -91.5 -4.5t-69 -21t-53 -46.5t-34 -82.5t-21 -127.5t-5.5 -183zM507 361q30 -36 78.5 -50t128.5 -14q83 0 133 17t83.5 67t46 134 t12.5 224q0 195 -25 287z" />
<glyph unicode="&#xd9;" horiz-adv-x="1351" d="M110 655v844h336v-844q0 -109 10 -174t38 -109t75.5 -60.5t126.5 -16.5q138 0 187.5 78.5t49.5 281.5v844h338v-844q0 -108 -12.5 -197t-31 -154t-51.5 -115.5t-62.5 -83.5t-76.5 -55.5t-80.5 -34t-88.5 -17.5t-86 -7t-86 -1q-167 0 -235 12q-174 31 -257 171 q-94 158 -94 482zM348 1920h271l173 -288h-203z" />
<glyph unicode="&#xda;" horiz-adv-x="1351" d="M110 655v844h336v-844q0 -109 10 -174t38 -109t75.5 -60.5t126.5 -16.5q138 0 187.5 78.5t49.5 281.5v844h338v-844q0 -108 -12.5 -197t-31 -154t-51.5 -115.5t-62.5 -83.5t-76.5 -55.5t-80.5 -34t-88.5 -17.5t-86 -7t-86 -1q-167 0 -235 12q-174 31 -257 171 q-94 158 -94 482zM589 1632l173 288h272l-242 -288h-203z" />
<glyph unicode="&#xdb;" horiz-adv-x="1351" d="M110 655v844h336v-844q0 -109 10 -174t38 -109t75.5 -60.5t126.5 -16.5q138 0 187.5 78.5t49.5 281.5v844h338v-844q0 -108 -12.5 -197t-31 -154t-51.5 -115.5t-62.5 -83.5t-76.5 -55.5t-80.5 -34t-88.5 -17.5t-86 -7t-86 -1q-167 0 -235 12q-174 31 -257 171 q-94 158 -94 482zM369 1632l213 282h238l193 -282h-207l-112 115l-116 -115h-209z" />
<glyph unicode="&#xdc;" horiz-adv-x="1351" d="M110 655v844h336v-844q0 -109 10 -174t38 -109t75.5 -60.5t126.5 -16.5q138 0 187.5 78.5t49.5 281.5v844h338v-844q0 -108 -12.5 -197t-31 -154t-51.5 -115.5t-62.5 -83.5t-76.5 -55.5t-80.5 -34t-88.5 -17.5t-86 -7t-86 -1q-167 0 -235 12q-174 31 -257 171 q-94 158 -94 482zM303 1760q0 52 37.5 88.5t90.5 36.5t89 -36.5t36 -88.5q0 -53 -36.5 -90.5t-88.5 -37.5q-53 0 -90.5 38t-37.5 90zM825 1760q0 52 37.5 88.5t90.5 36.5t89 -36.5t36 -88.5q0 -53 -36.5 -90.5t-88.5 -37.5q-53 0 -90.5 38t-37.5 90z" />
<glyph unicode="&#xdd;" horiz-adv-x="1363" d="M61 1499h366l258 -694l281 694h365l-484 -1059v-440h-336v440zM595 1632l173 288h271l-241 -288h-203z" />
<glyph unicode="&#xde;" horiz-adv-x="1110" d="M83 0v1493h336v-289h265q360 -2 360 -436q0 -87 -12.5 -157t-32 -117t-50 -82t-60 -54.5t-68.5 -31.5t-69 -16t-68 -5q-48 -2 -83 -1.5t-76.5 9.5t-105.5 31v-344h-336zM419 595h142q58 -1 86.5 9.5t44 47t15.5 112.5q0 52 -11 84t-34 45.5t-43.5 17t-57.5 3.5h-142v-319 z" />
<glyph unicode="&#xdf;" horiz-adv-x="1173" d="M83 0v1159q0 91 31.5 170t92 140.5t158 97t221.5 35.5q140 0 246 -34.5t164 -91.5t87 -130.5t23.5 -152.5t-35 -155.5t-80.5 -140.5q-21 -25 -61.5 -64t-56 -63.5t-15.5 -56.5q0 -23 21.5 -44.5t53.5 -39t70 -43t70 -54.5t53.5 -76t21.5 -105v-50q0 -74 -20 -130.5 t-52.5 -91.5t-80 -57t-96 -30t-105.5 -8q-142 0 -286 39v231q128 -11 186 -11q49 0 83 25.5t35 81.5v33q0 30 -20.5 54.5t-50.5 40t-66 37t-66 44.5t-50.5 64t-20.5 94q0 48 9 84.5t32 70t47 58t69 63.5q78 73 78 159t-45.5 118t-126.5 32q-102 0 -142 -62.5t-40 -218.5 v-1021h-336z" />
<glyph unicode="&#xe0;" horiz-adv-x="1062" d="M54 284v94q0 49 10 92t34.5 83.5t62 69t96.5 46t133 17.5q270 -2 270 0q2 43 0 45q0 78 -31 100t-106 22q-49 0 -213.5 -9.5t-218.5 -13.5v201q102 44 211 60t271 17q102 0 176 -16.5t131.5 -56.5t86.5 -112t29 -177v-746h-268l-68 116q-17 -37 -99.5 -84t-186.5 -44 q-159 6 -239.5 95t-80.5 201zM205 1519h271l173 -288h-202zM390 336q0 -31 7.5 -50.5t23.5 -27t28.5 -9.5t35.5 -2q46 0 90 19.5t65 38.5l20 19v165l-194 -16q-33 -3 -51 -21.5t-21.5 -36.5t-3.5 -44v-35z" />
<glyph unicode="&#xe1;" horiz-adv-x="1062" d="M54 284v94q0 49 10 92t34.5 83.5t62 69t96.5 46t133 17.5q270 -2 270 0q2 43 0 45q0 78 -31 100t-106 22q-49 0 -213.5 -9.5t-218.5 -13.5v201q102 44 211 60t271 17q102 0 176 -16.5t131.5 -56.5t86.5 -112t29 -177v-746h-268l-68 116q-17 -37 -99.5 -84t-186.5 -44 q-159 6 -239.5 95t-80.5 201zM390 336q0 -31 7.5 -50.5t23.5 -27t28.5 -9.5t35.5 -2q46 0 90 19.5t65 38.5l20 19v165l-194 -16q-33 -3 -51 -21.5t-21.5 -36.5t-3.5 -44v-35zM444 1231l173 288h272l-242 -288h-203z" />
<glyph unicode="&#xe2;" horiz-adv-x="1062" d="M54 284v94q0 49 10 92t34.5 83.5t62 69t96.5 46t133 17.5q270 -2 270 0q2 43 0 45q0 78 -31 100t-106 22q-49 0 -213.5 -9.5t-218.5 -13.5v201q102 44 211 60t271 17q102 0 176 -16.5t131.5 -56.5t86.5 -112t29 -177v-746h-268l-68 116q-17 -37 -99.5 -84t-186.5 -44 q-159 6 -239.5 95t-80.5 201zM224 1231l214 281h237l193 -281h-206l-112 115l-117 -115h-209zM390 336q0 -31 7.5 -50.5t23.5 -27t28.5 -9.5t35.5 -2q46 0 90 19.5t65 38.5l20 19v165l-194 -16q-33 -3 -51 -21.5t-21.5 -36.5t-3.5 -44v-35z" />
<glyph unicode="&#xe3;" horiz-adv-x="1062" d="M54 284v94q0 49 10 92t34.5 83.5t62 69t96.5 46t133 17.5q270 -2 270 0q2 43 0 45q0 78 -31 100t-106 22q-49 0 -213.5 -9.5t-218.5 -13.5v201q102 44 211 60t271 17q102 0 176 -16.5t131.5 -56.5t86.5 -112t29 -177v-746h-268l-68 116q-17 -37 -99.5 -84t-186.5 -44 q-159 6 -239.5 95t-80.5 201zM190 1355q120 146 249 146q48 -1 115 -36t103 -35q93 -5 189 79l52 -135q-117 -144 -231 -143q-49 1 -122 36.5t-111 35.5q-56 -1 -94 -17t-98 -55zM390 336q0 -31 7.5 -50.5t23.5 -27t28.5 -9.5t35.5 -2q46 0 90 19.5t65 38.5l20 19v165 l-194 -16q-33 -3 -51 -21.5t-21.5 -36.5t-3.5 -44v-35z" />
<glyph unicode="&#xe4;" horiz-adv-x="1062" d="M54 284v94q0 49 10 92t34.5 83.5t62 69t96.5 46t133 17.5q270 -2 270 0q2 43 0 45q0 78 -31 100t-106 22q-49 0 -213.5 -9.5t-218.5 -13.5v201q102 44 211 60t271 17q102 0 176 -16.5t131.5 -56.5t86.5 -112t29 -177v-746h-268l-68 116q-17 -37 -99.5 -84t-186.5 -44 q-159 6 -239.5 95t-80.5 201zM158 1358q0 52 37 89t90 37t89.5 -37t36.5 -89q0 -53 -37 -90t-89 -37q-53 0 -90 37.5t-37 89.5zM390 336q0 -31 7.5 -50.5t23.5 -27t28.5 -9.5t35.5 -2q46 0 90 19.5t65 38.5l20 19v165l-194 -16q-33 -3 -51 -21.5t-21.5 -36.5t-3.5 -44v-35z M680 1358q0 52 37.5 89t90.5 37q52 0 88.5 -36.5t36.5 -89.5t-36.5 -90t-88.5 -37q-53 0 -90.5 37.5t-37.5 89.5z" />
<glyph unicode="&#xe5;" horiz-adv-x="1062" d="M54 284v94q0 49 10 92t34.5 83.5t62 69t96.5 46t133 17.5q270 -2 270 0q2 43 0 45q0 78 -31 100t-106 22q-49 0 -213.5 -9.5t-218.5 -13.5v201q102 44 211 60t271 17q102 0 176 -16.5t131.5 -56.5t86.5 -112t29 -177v-746h-268l-68 116q-17 -37 -99.5 -84t-186.5 -44 q-159 6 -239.5 95t-80.5 201zM341 1424q0 88 61.5 149.5t147.5 61.5t146.5 -61.5t60.5 -149.5t-60.5 -148.5t-146.5 -60.5q-87 0 -148 61t-61 148zM390 336q0 -31 7.5 -50.5t23.5 -27t28.5 -9.5t35.5 -2q46 0 90 19.5t65 38.5l20 19v165l-194 -16q-33 -3 -51 -21.5 t-21.5 -36.5t-3.5 -44v-35zM470 1424q0 -34 23 -56t57 -22t56 22t22 56t-22.5 57.5t-55.5 23.5q-34 0 -57 -23.5t-23 -57.5z" />
<glyph unicode="&#xe6;" horiz-adv-x="1703" d="M54 287v68q0 49 10 92t34.5 83.5t62 69t96.5 46t133 17.5q270 -2 270 0q2 69 0 71q0 78 -31 100t-106 22q-113 0 -432 -25v203q100 44 209.5 60t272.5 17q212 -6 296 -76q61 37 131 50.5t172 13.5q90 0 152.5 -5t120.5 -20t93.5 -41t62.5 -68.5t38.5 -103.5t11.5 -144 q0 -148 -78 -206.5t-235 -58.5h-303q0 -64 14.5 -105t47 -62t72.5 -28t103 -7q99 0 135 0.5t92.5 5.5t131.5 16v-222q-65 -27 -173 -40.5t-179.5 -15t-191.5 -1.5h-30q-108 0 -176 34.5t-115 105.5q-22 -48 -153.5 -96t-238.5 -46q-159 6 -239.5 95t-80.5 201zM390 331 q0 -24 5.5 -40t11.5 -24t20 -12t22 -4.5t26 -0.5h10q29 0 58 8t49 19t36 22.5t24 19.5l8 8v142l-194 -16q-33 -3 -51 -21.5t-21.5 -36.5t-3.5 -44v-20zM1035 663h202q37 0 57.5 19.5t20.5 54.5q0 81 -19.5 99.5t-101.5 18.5q-83 0 -105 -8q-40 -15 -49 -81q-6 -38 -5 -103z " />
<glyph unicode="&#xe7;" horiz-adv-x="1007" d="M69 545q0 160 26 270.5t75.5 171.5t111.5 86.5t145 25.5q320 0 513 -70v-203q-164 14 -346 14q-28 0 -42.5 -0.5t-35.5 -3t-31.5 -8.5t-25 -16t-21 -25.5t-15 -37.5t-11.5 -52t-5.5 -69t-2.5 -88q0 -81 6.5 -132.5t17.5 -84.5t36 -49t53 -21t77 -5q84 0 174 4.5t138 9.5 l48 4v-204q-45 -27 -95.5 -43t-112 -22t-102.5 -8t-115.5 -1t-101.5 1q-64 0 -115.5 15.5t-98 54t-77.5 100.5t-49 159.5t-18 226.5zM311 -231l84 31q41 18 50 39.5t9 83.5h214q0 -160 -51.5 -227t-185.5 -67h-120v140z" />
<glyph unicode="&#xe8;" horiz-adv-x="1075" d="M69 549q0 116 10.5 200.5t36 146t60.5 100t91 61t120.5 31t156.5 8.5t153 -4.5t119.5 -19.5t93 -41.5t62 -71.5t38.5 -109.5t11 -154.5q0 -150 -78.5 -215t-232.5 -65h-306q0 -25 2 -45.5t8 -36.5t10.5 -28.5t16.5 -21.5t19.5 -15.5t25.5 -10t27.5 -6t34 -3.5t36 -1h41.5 h17q99 0 134.5 0.5t92 5.5t131.5 16v-222q-65 -27 -173 -40.5t-179 -15t-191 -1.5h-30q-202 0 -280 129.5t-78 429.5zM211 1508h272l173 -287h-203zM404 641h204q37 0 57 19.5t20 54.5q0 85 -20.5 111t-98.5 26q-35 0 -55 -1.5t-41.5 -8.5t-32 -20.5t-19.5 -37t-12 -58.5 t-2 -85z" />
<glyph unicode="&#xe9;" horiz-adv-x="1075" d="M69 549q0 116 10.5 200.5t36 146t60.5 100t91 61t120.5 31t156.5 8.5t153 -4.5t119.5 -19.5t93 -41.5t62 -71.5t38.5 -109.5t11 -154.5q0 -150 -78.5 -215t-232.5 -65h-306q0 -25 2 -45.5t8 -36.5t10.5 -28.5t16.5 -21.5t19.5 -15.5t25.5 -10t27.5 -6t34 -3.5t36 -1h41.5 h17q99 0 134.5 0.5t92 5.5t131.5 16v-222q-65 -27 -173 -40.5t-179 -15t-191 -1.5h-30q-202 0 -280 129.5t-78 429.5zM404 641h204q37 0 57 19.5t20 54.5q0 85 -20.5 111t-98.5 26q-35 0 -55 -1.5t-41.5 -8.5t-32 -20.5t-19.5 -37t-12 -58.5t-2 -85zM448 1221l173 287h271 l-241 -287h-203z" />
<glyph unicode="&#xea;" horiz-adv-x="1075" d="M69 549q0 116 10.5 200.5t36 146t60.5 100t91 61t120.5 31t156.5 8.5t153 -4.5t119.5 -19.5t93 -41.5t62 -71.5t38.5 -109.5t11 -154.5q0 -150 -78.5 -215t-232.5 -65h-306q0 -25 2 -45.5t8 -36.5t10.5 -28.5t16.5 -21.5t19.5 -15.5t25.5 -10t27.5 -6t34 -3.5t36 -1h41.5 h17q99 0 134.5 0.5t92 5.5t131.5 16v-222q-65 -27 -173 -40.5t-179 -15t-191 -1.5h-30q-202 0 -280 129.5t-78 429.5zM218 1221l213 281h238l193 -281h-207l-112 114l-117 -114h-208zM404 641h204q37 0 57 19.5t20 54.5q0 85 -20.5 111t-98.5 26q-35 0 -55 -1.5t-41.5 -8.5 t-32 -20.5t-19.5 -37t-12 -58.5t-2 -85z" />
<glyph unicode="&#xeb;" horiz-adv-x="1075" d="M69 549q0 116 10.5 200.5t36 146t60.5 100t91 61t120.5 31t156.5 8.5t153 -4.5t119.5 -19.5t93 -41.5t62 -71.5t38.5 -109.5t11 -154.5q0 -150 -78.5 -215t-232.5 -65h-306q0 -25 2 -45.5t8 -36.5t10.5 -28.5t16.5 -21.5t19.5 -15.5t25.5 -10t27.5 -6t34 -3.5t36 -1h41.5 h17q99 0 134.5 0.5t92 5.5t131.5 16v-222q-65 -27 -173 -40.5t-179 -15t-191 -1.5h-30q-202 0 -280 129.5t-78 429.5zM151 1348q0 52 37 89t90 37q52 0 88.5 -36.5t36.5 -89.5t-36.5 -90t-88.5 -37t-89.5 37.5t-37.5 89.5zM404 641h204q37 0 57 19.5t20 54.5q0 85 -20.5 111 t-98.5 26q-35 0 -55 -1.5t-41.5 -8.5t-32 -20.5t-19.5 -37t-12 -58.5t-2 -85zM673 1348q0 52 37 89t90 37q52 0 89 -37t37 -89q0 -53 -37 -90t-89 -37t-89.5 37.5t-37.5 89.5z" />
<glyph unicode="&#xec;" horiz-adv-x="499" d="M-92 1508h271l173 -287h-202zM83 0v1087h336v-1087h-336z" />
<glyph unicode="&#xed;" horiz-adv-x="499" d="M83 0v1087h336v-1087h-336zM150 1221l173 287h271l-242 -287h-202z" />
<glyph unicode="&#xee;" horiz-adv-x="499" d="M-71 1221l213 281h238l193 -281h-207l-112 114l-116 -114h-209zM83 0v1087h336v-1087h-336z" />
<glyph unicode="&#xef;" horiz-adv-x="499" d="M-137 1348q0 52 37.5 89t90.5 37q52 0 88.5 -36.5t36.5 -89.5t-36.5 -90t-88.5 -37q-53 0 -90.5 37.5t-37.5 89.5zM83 0v1087h336v-1087h-336zM386 1348q0 52 37 89t90 37q52 0 88.5 -36.5t36.5 -89.5t-36.5 -90t-88.5 -37q-53 0 -90 37.5t-37 89.5z" />
<glyph unicode="&#xf0;" horiz-adv-x="1107" d="M54 541q0 269 93.5 407.5t295.5 138.5h82q121 0 159 -15q-32 108 -105 172l-210 -106l-61 116l120 60q-90 23 -254 18v272q362 0 559 -124l171 85l62 -117l-121 -59q64 -70 107 -163.5t64.5 -207.5t29.5 -224.5t8 -252.5q0 -148 -29.5 -255.5t-84 -168.5t-122.5 -89 t-154 -28h-221q-208 0 -298.5 130.5t-90.5 410.5zM390 541q0 -103 10.5 -151t34 -64.5t73.5 -16.5h94q76 0 96 44.5t20 187.5q0 57 -1 92t-6 64.5t-12 44t-21 25t-31 13t-45 2.5h-94q-46 0 -69.5 -17.5t-36 -70t-12.5 -153.5z" />
<glyph unicode="&#xf1;" horiz-adv-x="1130" d="M83 0v1087h275l61 -111q43 34 64.5 49.5t63.5 38.5t89.5 32.5t106.5 9.5q78 0 135.5 -20.5t92.5 -55t56.5 -86.5t29 -107t7.5 -125v-712h-336v718q0 70 -24.5 99.5t-72.5 29.5q-72 0 -119.5 -20t-92.5 -66v-761h-336zM220 1353q120 146 249 146q48 -1 115 -36.5 t103 -35.5q92 -5 189 80l51 -135q-117 -144 -231 -143q-49 1 -122 36t-111 35q-56 -1 -94 -16.5t-97 -54.5z" />
<glyph unicode="&#xf2;" d="M69 528q0 135 17 230t52 162t96 105.5t141.5 55.5t195.5 17q144 0 238 -28t154 -95.5t85 -174.5t25 -272q0 -155 -24 -255t-83 -164.5t-153.5 -91.5t-241.5 -27q-143 0 -238.5 29t-154.5 95t-84 165.5t-25 248.5zM233 1508h271l173 -287h-202zM404 528q0 -77 5.5 -126 t15.5 -81t31.5 -47t46.5 -20t68 -5q39 0 61.5 2.5t43.5 12.5t31 26.5t18 49.5t10 76.5t2 111.5q0 88 -3.5 138.5t-12.5 88.5t-29 54t-47 23t-74 7q-39 0 -64 -3.5t-45 -17t-30 -32t-17 -57t-9 -83.5t-2 -118z" />
<glyph unicode="&#xf3;" d="M69 528q0 135 17 230t52 162t96 105.5t141.5 55.5t195.5 17q144 0 238 -28t154 -95.5t85 -174.5t25 -272q0 -155 -24 -255t-83 -164.5t-153.5 -91.5t-241.5 -27q-143 0 -238.5 29t-154.5 95t-84 165.5t-25 248.5zM404 528q0 -77 5.5 -126t15.5 -81t31.5 -47t46.5 -20 t68 -5q39 0 61.5 2.5t43.5 12.5t31 26.5t18 49.5t10 76.5t2 111.5q0 88 -3.5 138.5t-12.5 88.5t-29 54t-47 23t-74 7q-39 0 -64 -3.5t-45 -17t-30 -32t-17 -57t-9 -83.5t-2 -118zM470 1221l173 287h271l-242 -287h-202z" />
<glyph unicode="&#xf4;" d="M69 528q0 135 17 230t52 162t96 105.5t141.5 55.5t195.5 17q144 0 238 -28t154 -95.5t85 -174.5t25 -272q0 -155 -24 -255t-83 -164.5t-153.5 -91.5t-241.5 -27q-143 0 -238.5 29t-154.5 95t-84 165.5t-25 248.5zM251 1221l214 281h237l193 -281h-206l-112 114l-117 -114 h-209zM404 528q0 -77 5.5 -126t15.5 -81t31.5 -47t46.5 -20t68 -5q39 0 61.5 2.5t43.5 12.5t31 26.5t18 49.5t10 76.5t2 111.5q0 88 -3.5 138.5t-12.5 88.5t-29 54t-47 23t-74 7q-39 0 -64 -3.5t-45 -17t-30 -32t-17 -57t-9 -83.5t-2 -118z" />
<glyph unicode="&#xf5;" d="M69 528q0 135 17 230t52 162t96 105.5t141.5 55.5t195.5 17q144 0 238 -28t154 -95.5t85 -174.5t25 -272q0 -155 -24 -255t-83 -164.5t-153.5 -91.5t-241.5 -27q-143 0 -238.5 29t-154.5 95t-84 165.5t-25 248.5zM222 1345q120 146 249 146q48 -1 115 -36.5t103 -35.5 q92 -5 189 80l51 -135q-117 -144 -231 -143q-49 1 -122 36t-111 35q-56 -1 -94 -16.5t-97 -54.5zM404 528q0 -77 5.5 -126t15.5 -81t31.5 -47t46.5 -20t68 -5q39 0 61.5 2.5t43.5 12.5t31 26.5t18 49.5t10 76.5t2 111.5q0 88 -3.5 138.5t-12.5 88.5t-29 54t-47 23t-74 7 q-39 0 -64 -3.5t-45 -17t-30 -32t-17 -57t-9 -83.5t-2 -118z" />
<glyph unicode="&#xf6;" d="M69 528q0 135 17 230t52 162t96 105.5t141.5 55.5t195.5 17q144 0 238 -28t154 -95.5t85 -174.5t25 -272q0 -155 -24 -255t-83 -164.5t-153.5 -91.5t-241.5 -27q-143 0 -238.5 29t-154.5 95t-84 165.5t-25 248.5zM184 1348q0 52 37 89t90 37t89.5 -37t36.5 -89 q0 -53 -37 -90t-89 -37q-53 0 -90 37.5t-37 89.5zM404 528q0 -77 5.5 -126t15.5 -81t31.5 -47t46.5 -20t68 -5q39 0 61.5 2.5t43.5 12.5t31 26.5t18 49.5t10 76.5t2 111.5q0 88 -3.5 138.5t-12.5 88.5t-29 54t-47 23t-74 7q-39 0 -64 -3.5t-45 -17t-30 -32t-17 -57t-9 -83.5 t-2 -118zM706 1348q0 52 37.5 89t90.5 37q52 0 88.5 -36.5t36.5 -89.5t-36.5 -90t-88.5 -37q-53 0 -90.5 37.5t-37.5 89.5z" />
<glyph unicode="&#xf7;" horiz-adv-x="1005" d="M69 586v274h868v-274h-868zM362 304v146q0 51 49 51h169q50 0 50 -51v-146q0 -47 -50 -47h-169q-22 0 -35.5 12.5t-13.5 34.5zM362 984v145q0 52 49 52h169q50 0 50 -52v-145q0 -48 -50 -48h-169q-22 0 -35.5 13t-13.5 35z" />
<glyph unicode="&#xf8;" horiz-adv-x="1200" d="M69 0l116 142q-86 121 -86 386q0 169 25.5 277t87 174t154 92.5t236.5 26.5q208 0 316 -61l41 50h166l-112 -136q91 -126 91 -423q0 -155 -24 -255t-83 -164.5t-153.5 -91.5t-241.5 -27q-213 0 -324 65l-46 -55h-163zM435 528q0 -52 10 -76l278 350q-28 37 -121 37 q-39 0 -64 -3.5t-45 -17t-30 -32t-17 -57t-9 -83.5t-2 -118zM475 291q17 -25 46 -33.5t81 -8.5q39 0 61.5 2.5t43.5 12.5t31 26.5t18 49.5t10 76.5t2 111.5q0 81 -12 116z" />
<glyph unicode="&#xf9;" horiz-adv-x="1130" d="M69 376v711h335v-717q0 -70 24.5 -99.5t72.5 -29.5q72 0 120.5 20t92.5 66v760h336v-1087h-276l-60 112q-18 -11 -67.5 -44.5t-73.5 -46t-74.5 -26t-109.5 -13.5q-96 0 -161.5 30t-99 87t-46.5 122.5t-13 154.5zM221 1508h272l173 -287h-203z" />
<glyph unicode="&#xfa;" horiz-adv-x="1130" d="M69 376v711h335v-717q0 -70 24.5 -99.5t72.5 -29.5q72 0 120.5 20t92.5 66v760h336v-1087h-276l-60 112q-18 -11 -67.5 -44.5t-73.5 -46t-74.5 -26t-109.5 -13.5q-96 0 -161.5 30t-99 87t-46.5 122.5t-13 154.5zM458 1221l173 287h271l-242 -287h-202z" />
<glyph unicode="&#xfb;" horiz-adv-x="1130" d="M69 376v711h335v-717q0 -70 24.5 -99.5t72.5 -29.5q72 0 120.5 20t92.5 66v760h336v-1087h-276l-60 112q-18 -11 -67.5 -44.5t-73.5 -46t-74.5 -26t-109.5 -13.5q-96 0 -161.5 30t-99 87t-46.5 122.5t-13 154.5zM237 1221l214 281h237l193 -281h-207l-111 114l-117 -114 h-209z" />
<glyph unicode="&#xfc;" horiz-adv-x="1130" d="M69 376v711h335v-717q0 -70 24.5 -99.5t72.5 -29.5q72 0 120.5 20t92.5 66v760h336v-1087h-276l-60 112q-18 -11 -67.5 -44.5t-73.5 -46t-74.5 -26t-109.5 -13.5q-96 0 -161.5 30t-99 87t-46.5 122.5t-13 154.5zM172 1348q0 52 37 89t90 37q52 0 88.5 -36.5t36.5 -89.5 t-36.5 -90t-88.5 -37q-53 0 -90 37.5t-37 89.5zM694 1348q0 52 37 89t90 37t89.5 -37t36.5 -89q0 -53 -37 -90t-89 -37q-53 0 -90 37.5t-37 89.5z" />
<glyph unicode="&#xfd;" horiz-adv-x="1202" d="M29 1087h350l160 -728q5 -22 15.5 -37.5t19.5 -23t25.5 -12.5t21 -5.5t18.5 -1.5l184 808h345l-340 -1431l-147 -209h-245l139 553q-279 0 -352 296zM497 1221l173 287h272l-242 -287h-203z" />
<glyph unicode="&#xfe;" d="M96 -553v2155h336v-631q146 120 301 120q185 0 269 -138t84 -415q0 -106 -7.5 -185t-30.5 -154.5t-61 -122.5t-102 -75.5t-152 -28.5q-74 0 -156.5 18.5t-144.5 53.5v-597h-336zM432 259q63 -32 199 -36q30 0 50 11t37 42t25 92t8 155q0 112 -15 177t-40 88.5t-65 23.5 q-129 -3 -199 -60v-493z" />
<glyph unicode="&#xff;" horiz-adv-x="1202" d="M29 1087h350l160 -728q5 -22 15.5 -37.5t19.5 -23t25.5 -12.5t21 -5.5t18.5 -1.5l184 808h345l-340 -1431l-147 -209h-245l139 553q-279 0 -352 296zM211 1348q0 52 37 89t90 37q52 0 89 -37t37 -89q0 -53 -37 -90t-89 -37t-89.5 37.5t-37.5 89.5zM733 1348q0 52 37.5 89 t90.5 37q52 0 88.5 -36.5t36.5 -89.5t-36.5 -90t-88.5 -37q-53 0 -90.5 37.5t-37.5 89.5z" />
<glyph unicode="&#x152;" horiz-adv-x="2031" d="M90 739q0 104 7.5 192t23 157.5t36 126t49.5 98.5t59.5 74t71.5 53t79.5 35t88.5 21.5t94.5 10t100.5 2.5q128 0 219.5 -17.5t160.5 -66.5q87 83 244 74q453 -8 633 -33v-280h-541q-38 0 -61 -9t-32.5 -28.5t-11.5 -34.5t-2 -42v-170l551 -22v-278l-551 -19v-170 q0 -23 4.5 -40.5t10 -28.5t18 -18.5t19.5 -11t24.5 -5.5t24.5 -2h26h521v-278q-70 -10 -223.5 -18.5t-271.5 -12.5l-118 -4q-184 -11 -274 75q-68 -44 -157.5 -60.5t-212.5 -16.5q-68 0 -118.5 3t-106.5 12.5t-97.5 26.5t-83.5 45t-71.5 67.5t-56 95.5t-42.5 127.5 t-25 164.5t-9 205zM426 739q0 -96 4 -160.5t16 -117t30 -82t50.5 -49t73 -26.5t100.5 -7q83 0 132.5 17t83 67t45.5 134t12 224q0 90 -4.5 156t-13 117t-24.5 84t-35.5 55t-50.5 33.5t-64 15.5t-81 4q-57 0 -91.5 -4.5t-69 -21t-53 -46.5t-34 -82.5t-21 -127.5t-5.5 -183z " />
<glyph unicode="&#x153;" horiz-adv-x="1742" d="M69 528q0 135 17 230t52 162t96 105.5t141.5 55.5t195.5 17q216 0 321 -73q51 40 127.5 55.5t191.5 15.5q68 0 117 -2.5t99 -9.5t83.5 -20t65 -33.5t51 -50.5t34.5 -70.5t21.5 -93.5t6.5 -121q0 -150 -79 -215t-233 -65h-304q0 -28 3 -50t7.5 -39t16 -29.5t20 -21 t27.5 -14t31.5 -8.5t39.5 -4.5t42.5 -1.5h49.5q99 0 134.5 0.5t92 5.5t131.5 16v-222q-65 -27 -173 -40.5t-179 -15t-191 -1.5h-30q-138 0 -211 64q-102 -64 -313 -64q-143 0 -238.5 29t-154.5 95t-84 165.5t-25 248.5zM404 528q0 -77 5.5 -126t15.5 -81t31.5 -47t46.5 -20 t68 -5q31 0 53 2t40 10t29.5 15.5t20 28t12.5 37.5t6.5 53.5t3 67t0.5 86.5t-1.5 93t-5.5 70.5t-12 53t-19 35.5t-30 23.5t-41.5 11t-55.5 3.5q-39 0 -64 -3.5t-45 -17t-30 -32t-17 -57t-9 -83.5t-2 -118zM1073 641h203q37 0 57 19.5t20 54.5q0 85 -21 111t-99 26 q-52 0 -79 -5.5t-48.5 -27t-28 -63.5t-4.5 -115z" />
<glyph unicode="&#x178;" horiz-adv-x="1363" d="M61 1499h366l258 -694l281 694h365l-484 -1059v-440h-336v440zM309 1760q0 52 37 88.5t90 36.5t89.5 -36.5t36.5 -88.5q0 -53 -37 -90.5t-89 -37.5t-89.5 37.5t-37.5 90.5zM831 1760q0 52 37 88.5t90 36.5t89.5 -36.5t36.5 -88.5q0 -53 -37 -90.5t-89 -37.5t-89.5 37.5 t-37.5 90.5z" />
<glyph unicode="&#x2c6;" horiz-adv-x="780" d="M69 1087l213 282h238l193 -282h-207l-112 115l-116 -115h-209zM520 1369z" />
<glyph unicode="&#x2dc;" horiz-adv-x="843" d="M69 1211q120 147 249 147q48 -1 115 -36.5t103 -35.5q92 -5 189 80l51 -135q-117 -144 -231 -143q-49 1 -122 36t-111 35q-39 0 -73 -10.5t-55.5 -22.5t-62.5 -39z" />
<glyph unicode="&#x2000;" horiz-adv-x="960" />
<glyph unicode="&#x2001;" horiz-adv-x="1920" />
<glyph unicode="&#x2002;" horiz-adv-x="960" />
<glyph unicode="&#x2003;" horiz-adv-x="1920" />
<glyph unicode="&#x2004;" horiz-adv-x="640" />
<glyph unicode="&#x2005;" horiz-adv-x="480" />
<glyph unicode="&#x2006;" horiz-adv-x="320" />
<glyph unicode="&#x2007;" horiz-adv-x="320" />
<glyph unicode="&#x2008;" horiz-adv-x="240" />
<glyph unicode="&#x2009;" horiz-adv-x="384" />
<glyph unicode="&#x200a;" horiz-adv-x="106" />
<glyph unicode="&#x2010;" horiz-adv-x="724" d="M41 457v274h643v-274h-643z" />
<glyph unicode="&#x2011;" horiz-adv-x="724" d="M41 457v274h643v-274h-643z" />
<glyph unicode="&#x2012;" horiz-adv-x="724" d="M41 457v274h643v-274h-643z" />
<glyph unicode="&#x2013;" horiz-adv-x="1050" d="M41 451v276h969v-276h-969z" />
<glyph unicode="&#x2014;" horiz-adv-x="1507" d="M41 455v276h1425v-276h-1425z" />
<glyph unicode="&#x2018;" horiz-adv-x="522" d="M110 1027v297q0 52 16 91t41.5 59t56.5 32.5t62.5 14.5t57 1.5t41.5 -3.5l16 -3v-129q-65 1 -65 -65v-37h23q23 0 38 -13.5t15 -39.5v-205q0 -57 -53 -57h-199q-50 0 -50 57z" />
<glyph unicode="&#x2019;" horiz-adv-x="522" d="M110 1261v205q0 57 53 57h199q50 0 50 -57v-297q0 -52 -16 -91t-41.5 -59t-56.5 -32.5t-62.5 -14.5t-57 -1.5t-41.5 3.5l-16 3v128q65 -1 65 66v37h-23q-23 0 -38 13.5t-15 39.5z" />
<glyph unicode="&#x201a;" horiz-adv-x="522" d="M110 52v206q0 56 53 56h199q50 0 50 -56v-297q0 -72 -30 -118t-72.5 -61t-85.5 -19t-73 1l-30 5v128q65 -1 65 66v36h-23q-23 0 -38 13.5t-15 39.5z" />
<glyph unicode="&#x201c;" horiz-adv-x="876" d="M100 1024v296q0 52 16 91t42 59t57 32.5t62 14.5t57 1.5t42 -3.5l16 -3v-128q-65 1 -65 -65v-37h23q23 0 37.5 -13.5t14.5 -39.5v-205q0 -57 -52 -57h-199q-51 0 -51 57zM477 1024v296q0 52 16 91t42 59t57 32.5t62 14.5t57 1.5t42 -3.5l16 -3v-128q-66 1 -66 -65v-37h24 q23 0 37.5 -13.5t14.5 -39.5v-205q0 -57 -52 -57h-200q-50 0 -50 57z" />
<glyph unicode="&#x201d;" horiz-adv-x="876" d="M100 1257v206q0 57 53 57h199q50 0 50 -57v-297q0 -52 -16 -91t-41.5 -59t-56.5 -32.5t-62.5 -14.5t-57 -1.5t-41.5 3.5l-16 3v128q65 -1 65 66v37h-23q-23 0 -38 13t-15 39zM477 1257v206q0 57 52 57h200q50 0 50 -57v-297q0 -52 -16 -91t-42 -59t-57 -32.5t-62 -14.5 t-57 -1.5t-42 3.5l-16 3v128q65 -1 65 66v37h-23q-23 0 -37.5 13t-14.5 39z" />
<glyph unicode="&#x201e;" horiz-adv-x="876" d="M100 52v206q0 56 53 56h199q50 0 50 -56v-297q0 -72 -30 -118t-72.5 -61t-85.5 -19t-73 1l-30 5v128q65 -1 65 66v36h-23q-23 0 -38 13.5t-15 39.5zM477 52v206q0 56 52 56h200q50 0 50 -56v-297q0 -52 -16 -91t-42 -59.5t-57 -33t-62 -14t-57 -1t-42 3.5l-16 3v128 q65 -1 65 66v36h-23q-23 0 -37.5 13.5t-14.5 39.5z" />
<glyph unicode="&#x2022;" horiz-adv-x="630" d="M117 645v271q0 33 17.5 52.5t50.5 19.5h259q72 0 72 -72v-271q0 -66 -72 -66h-259q-31 0 -49.5 17.5t-18.5 48.5z" />
<glyph unicode="&#x2026;" horiz-adv-x="1646" d="M359 47v209q0 51 49 51h201q51 0 51 -51v-209q0 -47 -51 -47h-201q-22 0 -35.5 12.5t-13.5 34.5zM637 47v209q0 51 50 51h200q51 0 51 -51v-209q0 -47 -51 -47h-200q-22 0 -36 13t-14 34zM916 47v209q0 51 49 51h201q51 0 51 -51v-209q0 -47 -51 -47h-201 q-22 0 -35.5 12.5t-13.5 34.5z" />
<glyph unicode="&#x202f;" horiz-adv-x="384" />
<glyph unicode="&#x2039;" horiz-adv-x="729" d="M69 725l421 416l176 -173l-248 -243l252 -249l-169 -177z" />
<glyph unicode="&#x203a;" horiz-adv-x="729" d="M69 476l252 249l-248 243l175 173l422 -416l-432 -426z" />
<glyph unicode="&#x205f;" horiz-adv-x="480" />
<glyph unicode="&#x20ac;" horiz-adv-x="1269" d="M27 507v158l150 14v115l-150 16v149l150 19q0 33 1 58t6 69t14 78.5t27 79t43 78t64.5 68t88.5 57t117 36.5t149 14q104 0 269.5 -20t277.5 -57v-244q-287 31 -455 31q-43 0 -78 -3.5t-61.5 -8.5t-46 -16.5t-33 -21t-22.5 -28.5t-14 -33t-7.5 -40.5t-3 -45t-0.5 -51.5 l479 -14v-156l-479 -14v-115l479 -14v-158q-31 -1 -81 -2t-155.5 -3.5t-175 -5t-67.5 -3.5q0 -60 15 -103.5t38.5 -68t60.5 -38t71 -17.5t81 -4q81 0 197 12.5t192 25.5l75 12v-237q-103 -51 -234 -69t-322 -18q-40 0 -78.5 3.5t-91.5 16t-97.5 33t-91 59.5t-78.5 90.5 t-52.5 129t-20.5 173.5z" />
<glyph unicode="&#x2122;" horiz-adv-x="1454" d="M27 1322v177h592v-177h-191v-538h-208v538h-193zM637 784l86 715h219l98 -396l75 396h225l94 -715h-208l-39 365l-54 -365h-186l-71 362l-31 -362h-208z" />
<glyph unicode="&#xe000;" horiz-adv-x="1085" d="M0 0v1085h1085v-1085h-1085z" />
<glyph unicode="&#xfb03;" horiz-adv-x="2088" d="M27 844v209l203 34v183q0 44 8.5 86t31 85.5t56.5 75.5t90 52t127 20q171 0 287 -49v-197l-160 2q-73 1 -92 -48q-10 -26 -14 -109l-1 -101h410v72q0 124 54.5 224.5t160.5 162t245 64.5q98 2 275.5 -14t234.5 -41v-195l-384 7q-250 5 -250 -223v-57l700 -20v-1067h-336 v844h-365v-844h-336v844h-409v-844h-337v844h-199z" />
<glyph unicode="&#xfb04;" horiz-adv-x="2273" d="M27 844v209l203 34v183q0 44 8.5 86t31 85.5t56.5 75.5t90 52t127 20q171 0 287 -49v-197l-160 2q-30 1 -50 -7t-31 -18.5t-16.5 -34.5t-6.5 -42t-2 -55l-1 -101h418v88q0 123 31.5 210t91 134.5t134 68.5t171.5 21l632 -5v-1155q0 -73 10.5 -115t27 -59t48.5 -31 q107 -43 121 -43v-201h-257q-149 0 -217.5 87.5t-68.5 299.5v979l-232 1q-85 0 -120.5 -41t-35.5 -151v-88h225v-243h-226v-844h-336v844h-417v-844h-337v844h-199z" />
</font>
</defs>
</svg>
