<?xml version="1.0" standalone="no"?>
<!DOCTYPE svg PUBLIC "-//W3C//DTD SVG 1.1//EN" "http://www.w3.org/Graphics/SVG/1.1/DTD/svg11.dtd" >
<svg xmlns="http://www.w3.org/2000/svg">
<metadata></metadata>
<defs>
<font id="exobold" horiz-adv-x="1126" >
<font-face units-per-em="2048" ascent="1638" descent="-410" />
<missing-glyph horiz-adv-x="512" />
<glyph unicode="&#xfb01;" horiz-adv-x="1284" d="M31 868v185l171 34v82q0 188 121.5 312.5t323.5 128.5q90 1 253.5 -16.5t224.5 -42.5v-170l-376 11q-38 1 -71.5 -3t-69.5 -19t-61 -40.5t-41.5 -69.5t-16.5 -102v-71l711 -20v-1067h-288v868h-423v-868h-287v868h-171z" />
<glyph unicode="&#xfb02;" horiz-adv-x="1476" d="M31 868v185l172 34v93q0 430 403 430l610 -4v-1174q0 -77 11.5 -120.5t29.5 -61t54 -31.5q123 -43 137 -43v-176h-237q-149 0 -215 87t-66 300v1004l-268 1q-91 0 -131.5 -45t-40.5 -167v-93h245v-219h-247v-868h-287v868h-170z" />
<glyph horiz-adv-x="0" />
<glyph unicode="&#xd;" horiz-adv-x="1554" />
<glyph unicode=" "  horiz-adv-x="512" />
<glyph unicode="&#x09;" horiz-adv-x="512" />
<glyph unicode="&#xa0;" horiz-adv-x="512" />
<glyph unicode="!" horiz-adv-x="559" d="M133 1497h289l-30 -1096h-233zM136 47v184q0 24 13 38t37 14h180q22 0 34.5 -14.5t12.5 -37.5v-184q0 -47 -47 -47h-180q-22 0 -36 13t-14 34z" />
<glyph unicode="&#x22;" horiz-adv-x="909" d="M132 1362v137h277v-137l-21 -275h-232zM502 1362v137h277v-137l-21 -275h-234z" />
<glyph unicode="#" horiz-adv-x="1476" d="M31 430l30 197h312l42 247h-315l32 197h319l76 428h197l-76 -428h252l74 428h197l-74 -428h351l-30 -197h-352l-42 -249h352l-27 -197h-366l-76 -428h-197l76 428l-253 2l-76 -430h-196l75 430h-305zM569 627l258 -2l42 249h-258z" />
<glyph unicode="$" horiz-adv-x="1167" d="M86 995v129q1 106 31.5 182t86.5 119t125 63.5t158 22.5v177h175v-179q186 -11 366 -57v-223q-280 19 -458 19q-53 1 -85 -3t-60 -18t-40.5 -45t-12.5 -80v-73q0 -79 40 -112t124 -33h192q86 0 151 -26t103 -65.5t61.5 -94.5t31.5 -105.5t8 -105.5v-100q0 -96 -24.5 -169 t-63.5 -117t-95.5 -71.5t-113.5 -37t-124 -8.5v-168h-175v172q-112 6 -188 18.5t-166 38.5v221q295 -18 478 -18q185 0 185 129v81q0 69 -29.5 104.5t-106.5 35.5h-187q-72 0 -131 15.5t-98.5 40.5t-69 61t-46 71t-26.5 75.5t-13 71.5t-3 62z" />
<glyph unicode="%" horiz-adv-x="1970" d="M66 982v250q0 136 62.5 201.5t212.5 65.5h207q146 0 208.5 -66t62.5 -201v-250q0 -136 -62.5 -201.5t-212.5 -65.5h-207q-146 0 -208.5 66t-62.5 201zM266 1016q0 -55 20.5 -78t78.5 -23h151q64 0 83.5 23t19.5 78v182q0 59 -22 79.5t-77 20.5h-151q-59 0 -81 -20.5 t-22 -79.5v-182zM425 0l916 1499h205l-908 -1499h-213zM1152 272v250q0 136 62.5 202t212.5 66h208q146 0 208.5 -66.5t62.5 -201.5v-250q0 -136 -63 -201.5t-213 -65.5h-208q-146 0 -208 66t-62 201zM1353 306q0 -55 20.5 -77.5t78.5 -22.5h149q65 0 84.5 22.5t19.5 77.5 v183q0 59 -22 79.5t-78 20.5h-149q-59 0 -81 -20.5t-22 -79.5v-183z" />
<glyph unicode="&#x26;" horiz-adv-x="1390" d="M53.5 376q-9.5 109 36 205.5t134.5 174.5l143 124l-106 151q-78 113 -66 212.5t78.5 169.5t150.5 82q87 12 167 13.5t156.5 -8.5t123 -19t120.5 -27v-208h-337q-116 0 -132.5 -47.5t60.5 -152.5l345 -474l249 234l100 -121l-122 -221l-77 -90l280 -374h-338l-144 197 l-134 -119q-53 -47 -133 -69.5t-165.5 -17t-170 50.5t-138.5 126q-71 99 -80.5 208zM369 331q29 -36 67.5 -57t87 -16.5t89.5 44.5l103 99l-207 274l-106 -93q-138 -119 -34 -251z" />
<glyph unicode="'" horiz-adv-x="458" d="M86 1362v137h288v-137l-20 -275h-246z" />
<glyph unicode="(" horiz-adv-x="772" d="M116 668q0 136 20 269.5t51.5 238.5t70 200.5t77 164t70 119.5t51.5 76l20 25h267q-14 -21 -37 -59t-81.5 -158.5t-103.5 -242.5t-81.5 -296.5t-36.5 -336.5q0 -177 35 -355t85 -306t100 -230.5t85 -154.5l35 -52h-267q-8 8 -20.5 22.5t-50 66.5t-71.5 111t-75.5 156 t-71.5 201.5t-50.5 247t-20.5 293.5z" />
<glyph unicode=")" horiz-adv-x="772" d="M31 -430q7 10 19.5 28t47.5 79t67 126.5t71.5 166.5t67.5 204t47.5 234t19.5 260q0 162 -35 334t-85 302t-100 237t-85 163l-35 57h267q8 -9 20.5 -26t50 -74.5t71.5 -120.5t75.5 -162.5t71.5 -202.5t50.5 -237t20.5 -270q0 -151 -20 -293t-51.5 -248.5t-70 -200 t-77 -157.5t-70 -110t-51.5 -67l-20 -22h-267z" />
<glyph unicode="*" horiz-adv-x="874" d="M78 1159v116l284 48l11 -174zM194 852l51 280l168 -42l-109 -272zM339 1474l111 40l138 -251l-162 -67zM390 956l95 146l230 -184l-67 -93zM490 1169l245 162l64 -97l-198 -198z" />
<glyph unicode="+" horiz-adv-x="989" d="M69 608v242h303v305h241v-305h308v-242h-308v-305h-241v305h-303z" />
<glyph unicode="," horiz-adv-x="534" d="M132 51v178q0 56 52 56h172q49 0 49 -56v-252q0 -46 -14.5 -80t-37.5 -50.5t-51 -26.5t-56 -10t-51 1.5t-37 4.5l-15 4v99q28 -1 43 8.5t17.5 19t2.5 24.5v29h-22q-23 0 -37.5 13t-14.5 38z" />
<glyph unicode="-" horiz-adv-x="724" d="M41 473v242h643v-242h-643z" />
<glyph unicode="." horiz-adv-x="538" d="M132 47v184q0 24 13 38t37 14h176q51 0 51 -52v-184q0 -47 -51 -47h-176q-22 0 -36 13t-14 34z" />
<glyph unicode="/" horiz-adv-x="933" d="M31 -147l575 1724h297l-575 -1724h-297z" />
<glyph unicode="0" horiz-adv-x="1290" d="M108 366v756q0 181 101.5 279t275.5 98h336q100 0 172.5 -29t113 -81t59 -115t18.5 -140v-768q0 -180 -95.5 -273t-268.5 -93h-336q-177 0 -276.5 92.5t-99.5 273.5zM395 412q0 -148 155 -148h198q75 0 112 33.5t37 113.5v678q0 146 -140 146h-215q-44 0 -74.5 -14 t-45.5 -37.5t-21 -46.5t-6 -48v-677z" />
<glyph unicode="1" horiz-adv-x="759" d="M62 1142v188l290 169h284v-1499h-287v1214z" />
<glyph unicode="2" horiz-adv-x="1204" d="M62 1253v214q308 53 622 53q112 0 199 -36.5t139.5 -101t79 -147t26.5 -179.5q0 -69 -25 -144.5t-62 -140t-93.5 -135t-104.5 -121t-109.5 -106.5t-95.5 -84t-75 -61h565v-264h-1051v252q68 45 154 110t196.5 159.5t200 185t151 185.5t61.5 162q0 103 -58 151t-189 48 h-531z" />
<glyph unicode="3" horiz-adv-x="1193" d="M47 1239v207q84 29 198 43.5t225.5 14.5t238.5 -1q170 -3 270.5 -100t100.5 -260v-108q0 -231 -156 -290q156 -66 156 -306v-87q0 -178 -99 -272t-286 -94h-75.5h-80t-71.5 0.5t-77 2.5t-67.5 4.5t-73 7t-63.5 10t-68.5 14t-59.5 18.5l2 209h520q47 0 75 2t57 10t44 23 t24.5 41t9.5 64v64q0 87 -48 119t-149 36l-408 15v231l408 21q109 5 155 36t46 110v74q0 42 -16 71t-45.5 43.5t-62.5 20.5t-77 6h-547z" />
<glyph unicode="4" horiz-adv-x="1269" d="M31 459l533 1040h316l-448 -900h371v342l64 157h223v-499h150v-222l-150 -50v-323h-287v323h-703z" />
<glyph unicode="5" horiz-adv-x="1220" d="M118 41v225h578q38 0 66.5 9.5t44 23.5t24.5 35t11.5 38.5t2.5 39.5v136q0 31 -4 52.5t-17 45t-42 36t-74 12.5h-191q-57 0 -91 -29.5t-34 -90.5h-271l46 925h910v-264h-635l-16 -338q49 39 142 50q27 3 63 4t61.5 0t58 -2.5t41.5 -1.5q172 -8 256 -108.5t84 -265.5v-211 q0 -81 -23.5 -146t-61.5 -106t-89 -68.5t-102 -38.5t-104 -11q-210 0 -325.5 8t-308.5 41z" />
<glyph unicode="6" horiz-adv-x="1245" d="M102 786q0 158 20 281.5t52.5 202.5t79.5 131.5t95.5 76t104.5 28.5q289 25 652 -41v-218h-513q-45 0 -79.5 -16.5t-56 -47.5t-36 -65.5t-21 -82t-9 -84t-3.5 -84.5q166 43 415 43q85 0 148 -18t101.5 -48.5t62 -76.5t32 -95t8.5 -112v-223q0 -339 -363 -339h-293 q-76 0 -133.5 20t-109 72.5t-84 139.5t-51.5 226.5t-19 329.5zM388 657q0 -58 2.5 -101.5t9 -92t20.5 -82t34.5 -62t53 -43t75.5 -14.5h157q68 0 98.5 25.5t30.5 101.5v137q0 76 -28.5 103.5t-94.5 27.5h-358z" />
<glyph unicode="7" horiz-adv-x="1134" d="M47 1235v264h965l77 -132l-502 -1367h-313l461 1235h-688z" />
<glyph unicode="8" horiz-adv-x="1277" d="M116 344v150q0 93 43 153t119 77q-51 22 -85 55t-50 74.5t-21.5 80t-5.5 88.5v133q0 102 29.5 173.5t84 109.5t120 54.5t149.5 16.5h311q179 0 266.5 -83t87.5 -272v-110q0 -19 -2 -42t-11.5 -56t-25 -60t-45.5 -49.5t-70 -29.5q45 -8 77.5 -40.5t48 -77t22 -85 t6.5 -78.5v-176q0 -87 -21.5 -152t-54.5 -102t-82.5 -59.5t-95.5 -29.5t-102 -7h-309q-77 0 -138.5 14t-101 34.5t-68 53t-42.5 60.5t-22 66.5t-9.5 61.5t-1.5 54zM403 376q0 -65 34 -94t113 -29h192q135 0 135 123v142q0 62 -33.5 94.5t-96.5 32.5h-207q-137 0 -137 -127 v-142zM403 1012q0 -73 37.5 -100t99.5 -27h205q80 0 106 33.5t26 93.5v96q0 86 -33.5 117t-100.5 31h-193q-40 0 -63 -4.5t-44.5 -19t-30.5 -45t-9 -79.5v-96z" />
<glyph unicode="9" horiz-adv-x="1245" d="M94 944v223q0 339 363 339h293q76 0 133.5 -20t109 -72.5t84 -140t51.5 -227t19 -329.5q0 -158 -20 -281.5t-52.5 -202t-79.5 -131.5t-95.5 -76t-104.5 -28q-159 -13 -334 -1t-318 42v218h513q45 0 79.5 16t56 47t36 65.5t21 82t9 84t3.5 84.5q-166 -43 -415 -43 q-85 0 -148 18t-101.5 48.5t-62 77t-32 95.5t-8.5 112zM379 977q0 -76 29 -103.5t95 -27.5h358q0 58 -2.5 101.5t-9.5 92t-20.5 82.5t-34.5 62.5t-53.5 43t-75.5 14.5h-156q-69 0 -99.5 -25.5t-30.5 -101.5v-138z" />
<glyph unicode=":" horiz-adv-x="538" d="M132 47v184q0 24 13 38t37 14h176q51 0 51 -52v-184q0 -47 -51 -47h-176q-22 0 -36 13t-14 34zM132 853v184q0 51 50 51h176q51 0 51 -51v-184q0 -47 -51 -47h-176q-22 0 -36 13t-14 34z" />
<glyph unicode=";" horiz-adv-x="540" d="M132 51v178q0 25 14 40.5t38 15.5h172q24 0 36.5 -15.5t12.5 -40.5v-252q0 -46 -14.5 -80t-37.5 -50.5t-51 -26.5t-56 -10t-51 1.5t-37 4.5l-15 4v99q28 -1 43 8.5t17.5 19t2.5 24.5v29h-22q-22 0 -37 14.5t-15 36.5zM134 854v184q0 51 49 51h177q51 0 51 -51v-184 q0 -47 -51 -47h-177q-22 0 -35.5 12.5t-13.5 34.5z" />
<glyph unicode="&#x3c;" horiz-adv-x="921" d="M78 589v265l768 296v-265l-463 -161l463 -181v-268z" />
<glyph unicode="=" horiz-adv-x="956" d="M41 378v242h874v-242h-874zM41 817v242h874v-242h-874z" />
<glyph unicode="&#x3e;" horiz-adv-x="921" d="M78 275v268l462 181l-462 161v265l768 -296v-265z" />
<glyph unicode="?" horiz-adv-x="1110" d="M31 1247v214q165 33 289.5 46t287.5 6q112 0 199.5 -34t139 -91.5t77.5 -127.5t26 -148v-150q0 -417 -464 -378v-185h-233v400h235q177 7 177 167v110q0 90 -54 130.5t-170 40.5h-510zM331 47v184q0 52 49 52h178q50 0 50 -52v-184q0 -47 -50 -47h-178q-22 0 -35.5 12.5 t-13.5 34.5z" />
<glyph unicode="@" horiz-adv-x="1777" d="M102 23v622q0 58 10 110t38 107.5t73.5 95.5t122.5 65.5t178 25.5h394q58 0 104.5 -6.5t96 -26.5t82.5 -54t54 -93.5t21 -140.5v-728h-185l-40 120l-16 -14q-16 -14 -44.5 -34.5t-65 -41t-88 -34.5t-103.5 -14q-124 -1 -193.5 80t-68.5 193v86q0 137 77.5 210.5 t220.5 73.5h277q2 87 0 88q0 63 -29 84t-98 21h-396q-42 0 -72 -6t-59.5 -24t-45 -56.5t-15.5 -97.5v-589q0 -65 18 -111.5t48 -69t60.5 -32t65.5 -9.5h681q119 0 165 55t46 167v936q0 116 -57.5 177.5t-153.5 61.5h-827v175q97 20 274.5 38t349.5 17h203q89 -1 165.5 -26.5 t140 -78.5t100 -146t36.5 -218v-936q0 -228 -106 -341.5t-324 -113.5h-693q-89 0 -163.5 24.5t-133.5 75t-92 135.5t-33 198zM713 318q0 -26 1 -27q0 -34 25.5 -57t69.5 -22q65 -1 128.5 22.5t109.5 65.5v162l-244 -22q-90 -9 -89 -94q-1 -2 -1 -28z" />
<glyph unicode="A" horiz-adv-x="1417" d="M70 0l505 1499h327l487 -1499h-306l-106 332h-491l-108 -332h-308zM560 586h349l-169 535z" />
<glyph unicode="B" horiz-adv-x="1236" d="M124 0v1499h619q91 0 163 -21t120 -57.5t79.5 -88t45.5 -109t14 -124.5q0 -116 -51.5 -209t-153.5 -112q98 -18 163.5 -109t65.5 -229q0 -216 -105.5 -328t-335.5 -112h-624zM412 253h325q166 0 166 200q0 91 -40.5 151t-125.5 60h-325v-411zM412 905h314 q76 0 116.5 44.5t40.5 125.5q0 50 -14 85t-38 53t-49.5 25.5t-55.5 7.5h-314v-341z" />
<glyph unicode="C" horiz-adv-x="1169" d="M86 754q0 151 13.5 264t48 210t92 158.5t146 95.5t209.5 34q292 0 523 -69v-224l-15 1q-15 2 -41 4.5t-60.5 5.5t-76 6t-84.5 5.5t-90 4t-88 1.5q-58 0 -95 -5.5t-73 -23.5t-56.5 -51t-37 -89t-23 -137t-6.5 -195q0 -106 7.5 -181.5t27 -138t52.5 -100.5t84 -58t121 -20 q96 0 209.5 4t178.5 8l66 4v-224q-183 -56 -474 -56h-49q-140 1 -239 53t-158 154t-85.5 238.5t-26.5 320.5z" />
<glyph unicode="D" horiz-adv-x="1355" d="M124 0v1499h637q125 0 219.5 -44t151 -114.5t91 -172.5t47 -203t12.5 -222q0 -169 -30.5 -303t-92.5 -233.5t-163 -153t-235 -53.5h-637zM411 256h328q256 0 256 489q0 147 -17 247t-51.5 154.5t-79.5 77t-108 22.5h-328v-990z" />
<glyph unicode="E" horiz-adv-x="1161" d="M119 295v893q0 75 20.5 132t53 91t77 54.5t86.5 27.5q37 6 77 6h11q528 -15 660 -33v-237h-592q-38 0 -61 -9t-32 -28.5t-11 -34t-2 -42.5v-234l605 -22v-236l-605 -19v-234q0 -23 4.5 -40.5t10 -28.5t17.5 -18.5t19.5 -11t24.5 -5.5t24 -2h26h572v-235 q-52 -7 -211.5 -16t-293.5 -14l-134 -5q-15 -1 -30 -1q-30 0 -58 3q-42 4 -91 22t-84.5 49.5t-59 90t-23.5 137.5z" />
<glyph unicode="F" horiz-adv-x="1161" d="M119 0v1183q0 88 28 152.5t76 99.5t103 51q49 14 104 13h14q528 -15 660 -33v-237h-592q-38 0 -61 -9t-32 -28.5t-11 -34t-2 -42.5v-234l605 -22v-236l-605 -19v-604h-287z" />
<glyph unicode="G" horiz-adv-x="1257" d="M86 758q0 141 11.5 247.5t43.5 206.5t85.5 164t141.5 102t207 38q174 0 295.5 -13.5t280.5 -53.5v-222q-2 0 -34 3.5t-83.5 9t-113 11t-137 9t-140.5 3.5q-68 0 -115 -18t-78 -53.5t-48 -99t-23.5 -142.5t-6.5 -196q0 -122 6.5 -201.5t22.5 -140t46 -92t73.5 -46.5 t108.5 -16q62 0 126.5 23.5t98.5 46.5l33 24v269h-210v181q121 51 358 51q65 0 139 -6v-847h-206l-77 100q-56 -51 -126.5 -78.5t-191.5 -31.5h-24q-75 0 -137 16q-71 19 -121 54t-87.5 91.5t-59.5 119t-35.5 146t-18 163t-4.5 178.5z" />
<glyph unicode="H" horiz-adv-x="1302" d="M124 0v1499h287v-642h514v642h287v-1499h-287v593h-514v-593h-287z" />
<glyph unicode="I" horiz-adv-x="501" d="M124 0v1499h287v-1499h-287z" />
<glyph unicode="J" horiz-adv-x="729" d="M55 48l3 223q72 -6 126 -6q18 0 33 1q65 2 100 48t35 149v1036h286v-1161q0 -46 -3 -80t-12.5 -79.5t-33 -82t-59.5 -59.5q-76 -47 -212 -47h-26q-156 5 -237 58z" />
<glyph unicode="K" horiz-adv-x="1286" d="M124 0v1499h276v-627h120l380 627h334l-458 -751l458 -748h-334l-380 620h-118v-620h-278z" />
<glyph unicode="L" horiz-adv-x="1103" d="M124 292v1207h287v-1128q0 -31 8.5 -52.5t18.5 -32t31 -16t32.5 -6t36.5 -0.5h514v-264h-615q-313 0 -313 292z" />
<glyph unicode="M" horiz-adv-x="1734" d="M86 0l132 1499h398l249 -1024l249 1024h397l141 -1499h-284l-97 1001l-242 -1001h-320l-251 1001l-89 -1001h-283z" />
<glyph unicode="N" horiz-adv-x="1388" d="M124 0v1499h291l595 -969v969h287v-1499h-287l-597 957v-957h-289z" />
<glyph unicode="O" horiz-adv-x="1374" d="M102 739q0 115 9.5 211t26.5 169.5t44.5 131t57.5 98.5t72.5 70t83 46.5t95 27.5t103 13t111.5 3q65 0 114.5 -3t104 -13t95 -27.5t82.5 -46.5t71.5 -70t56 -98.5t42.5 -131t25.5 -169t9.5 -211.5q0 -140 -14.5 -249.5t-39.5 -188t-67 -134.5t-88 -89.5t-112 -53 t-130 -26t-150 -6.5q-60 0 -106.5 2.5t-97.5 9.5t-89 20.5t-78 34t-69 51t-56.5 71.5t-46 96t-33 122.5t-21 153t-6.5 186.5zM388 739q0 -127 9 -208t28.5 -138t58 -85.5t89.5 -40t132 -11.5q95 0 151.5 18t95 72t53 146.5t14.5 246.5q0 88 -4 156t-13.5 120t-21.5 89 t-33 63t-42 41t-55 23.5t-66 11t-79 2.5q-42 0 -69.5 -1.5t-59.5 -7t-52 -16.5t-42 -29t-35 -45t-25.5 -64t-19 -87t-10.5 -113t-4 -143z" />
<glyph unicode="P" horiz-adv-x="1232" d="M105 0v1499h644q64 0 116.5 -9t110.5 -38t97.5 -77.5t65.5 -135t26 -202.5q0 -95 -14.5 -171t-37.5 -126.5t-58 -87t-69.5 -56t-79 -30t-80.5 -12.5q-18 -1 -37 -1t-40 1q-59 2 -204 19t-153 22v-595h-287zM392 807h335q74 0 112 49.5t38 176.5q-2 211 -150 211h-335 v-437z" />
<glyph unicode="Q" horiz-adv-x="1374" d="M102 739q0 104 7 192t22 157.5t34.5 126t48 98.5t58 74t69.5 53t78.5 35t88 21.5t94 10t101.5 2.5q65 0 114.5 -3t104 -13t95.5 -27.5t83 -46.5t71.5 -70t56.5 -98.5t43 -131t25.5 -169t9.5 -211.5q0 -109 -9 -199.5t-24.5 -161.5t-41 -126.5t-55 -96t-70.5 -69.5 t-82.5 -47t-96 -28.5t-106.5 -14.5t-118 -4q-60 0 -106.5 2.5t-97.5 9.5t-89 20.5t-77.5 34t-68.5 51t-56.5 71.5t-45.5 96t-32.5 122.5t-21 153t-6.5 186.5zM388 739q0 -127 9 -208t28 -138t57.5 -85.5t89 -40t131.5 -11.5q76 0 126 12t89 41.5t59.5 85.5t31 138.5 t10.5 205.5q0 117 -7 199.5t-25 139t-40 89.5t-61.5 50.5t-79 22.5t-103.5 5q-42 0 -69.5 -1.5t-59.5 -7t-52 -16.5t-41.5 -29t-34.5 -45t-25.5 -64t-18.5 -87t-10 -113t-4 -143zM614 -68h163q48 -82 173 -82q68 0 160 25v-232q-52 -11 -107 -12h-10q-50 0 -99 9 q-55 9 -103.5 32.5t-86.5 58t-62 86.5t-28 115z" />
<glyph unicode="R" horiz-adv-x="1243" d="M105 0v1499h656q73 0 132.5 -14t112 -47.5t87.5 -86t55.5 -133.5t20.5 -186q0 -77 -9.5 -140t-22.5 -105t-36.5 -76.5t-41 -52.5t-46.5 -34t-43 -21t-40 -13l284 -590h-323l-248 567l-251 29v-596h-287zM393 821h340q54 0 83.5 14.5t46.5 61t17 135.5q0 120 -37 166 t-110 46h-340v-423z" />
<glyph unicode="S" horiz-adv-x="1208" d="M102 995v129q0 108 30.5 185t87 119.5t126.5 62t161 20.5q29 1 57 0q130 0 266 -14q166 -18 257 -45v-225q-88 8 -258 14t-243 6h-32q-22 -1 -38 -1q-26 -2 -53 -9t-41.5 -23t-24 -43.5t-9.5 -68.5v-73q0 -86 35.5 -115.5t126.5 -29.5h237q84 0 149 -26t103 -65.5 t62 -94.5t32 -105.5t8 -105.5v-100q0 -98 -24.5 -172t-62.5 -117t-94.5 -69.5t-111.5 -35.5t-122 -9q-197 0 -330.5 13.5t-247.5 47.5v225q226 -22 522 -22q30 0 53 2.5t48.5 10t42.5 21t28.5 38t11.5 57.5v81q0 70 -29 105t-106 35h-230q-75 0 -135 15.5t-99.5 40t-69 60.5 t-45 70t-24.5 76t-11.5 71.5t-2.5 63.5z" />
<glyph unicode="T" horiz-adv-x="1214" d="M64 1235v264h1108v-264h-417v-1235h-287v1235h-404z" />
<glyph unicode="U" horiz-adv-x="1359" d="M124 655v844h287v-844q0 -87 6.5 -149t21.5 -107t36.5 -73t56 -44t74 -22t96.5 -6q76 0 125 16.5t85 60t52 122.5t16 202v844h289v-844q0 -108 -12 -197t-30 -154t-50.5 -115.5t-61.5 -83.5t-75.5 -55.5t-79.5 -34t-87.5 -17.5t-85 -7t-85.5 -1q-166 0 -233 12 q-171 30 -252 168q-93 158 -93 485z" />
<glyph unicode="V" horiz-adv-x="1402" d="M70 1499h304l334 -1122l354 1122h304l-495 -1499h-331z" />
<glyph unicode="W" horiz-adv-x="2031" d="M70 1499h304l333 -1112l269 1112h307l-104 -387l237 -731l275 1118h305l-413 -1499h-332l-202 614l-178 -614h-331z" />
<glyph unicode="X" horiz-adv-x="1312" d="M70 1499h316l285 -511l287 511h317l-450 -748l440 -751h-317l-277 505l-278 -505h-317l439 751z" />
<glyph unicode="Y" horiz-adv-x="1343" d="M70 1499h312l292 -719l320 719h313l-494 -1034v-465h-286v465z" />
<glyph unicode="Z" horiz-adv-x="1138" d="M55 0v264l687 971h-687v264h1032v-264l-653 -971h653v-264h-1032z" />
<glyph unicode="[" horiz-adv-x="681" d="M132 -22v1360q0 81 17 147t55.5 121.5t108 86.5t166.5 31h175v-241h-108q-60 0 -93.5 -44t-33.5 -134v-1315q0 -90 33.5 -134t93.5 -44h108v-242h-175q-87 0 -152 27t-101 68t-58.5 98.5t-29 107.5t-6.5 107z" />
<glyph unicode="\" horiz-adv-x="933" d="M31 1577h297l575 -1724h-297z" />
<glyph unicode="]" horiz-adv-x="681" d="M31 -188h107q60 0 93.5 44t33.5 134v1315q0 90 -33.5 134t-93.5 44h-107v241h175q97 0 166.5 -31t107.5 -86.5t55 -121.5t17 -147v-1360q0 -47 -5 -88.5t-17.5 -90.5t-37.5 -88t-61.5 -72t-94 -51t-130.5 -18h-175v242z" />
<glyph unicode="^" horiz-adv-x="786" d="M78 1087l220 278h213l198 -278h-190l-120 123l-129 -123h-192zM511 1365z" />
<glyph unicode="_" horiz-adv-x="1380" d="M41 -2v242h1298v-242h-1298z" />
<glyph unicode="`" horiz-adv-x="497" d="M31 1371h251l185 -284h-186z" />
<glyph unicode="a" horiz-adv-x="1062" d="M62 277v103q0 62 17.5 114t53.5 94t99.5 66t147.5 24q160 -1 240 -1t80 1q1 34 1 51.5t-1 18.5q0 81 -35 107.5t-111 26.5q-100 0 -456 -24v177q103 40 218.5 56t276.5 17q92 0 161 -17t122.5 -56t81.5 -108.5t28 -167.5v-759h-226l-60 120q-8 -15 -52 -46 q-44 -30 -124 -58q-77 -28 -150 -28h-5q-100 3 -171.5 46.5t-103.5 106.5t-32 136zM348 318q0 -61 26.5 -80.5t75.5 -19.5q53 0 115.5 21t98.5 42l36 21v200l-263 -21q-89 -8 -89 -110v-53z" />
<glyph unicode="b" horiz-adv-x="1138" d="M94 0v1608h284v-575q72 33 165.5 52t165.5 19q64 0 114.5 -14t87.5 -38.5t64 -63.5t44 -84t27 -105.5t14 -121.5t4 -138q0 -129 -18 -226.5t-58.5 -172t-110.5 -113.5t-168 -39q-89 0 -179 37t-149 85l-52 -110h-235zM381 300q105 -67 253 -67q73 0 108 71t35 246 q0 135 -18 208.5t-46.5 97t-78.5 23.5q-147 0 -253 -41v-538z" />
<glyph unicode="c" horiz-adv-x="1011" d="M78 545q0 131 17.5 229t48 159.5t77 99t98 51.5t117.5 14q300 0 501 -65v-178q-196 12 -378 12q-34 0 -52.5 -1.5t-43 -7.5t-37 -19t-27 -36t-20.5 -58.5t-10.5 -86.5t-4.5 -119q0 -105 9 -167t34 -96.5t59 -45t93 -10.5q84 0 182 5t154 9l56 5v-180q-38 -19 -81.5 -33 t-85 -20.5t-87 -10.5t-88 -4t-87.5 -0.5t-86 -0.5q-65 0 -116 14.5t-97.5 52t-77.5 99t-49 160t-18 229.5z" />
<glyph unicode="d" horiz-adv-x="1138" d="M78 539q0 112 8 193t30.5 155t61.5 119t102.5 71.5t152.5 26.5q72 0 164.5 -19t164.5 -52v575h286v-1608h-236l-51 110q-59 -48 -149 -85t-179 -37q-79 0 -139.5 25t-101 71t-66.5 115t-37 152t-11 188zM364 550q0 -175 35 -246t108 -71q149 0 254 67v538 q-106 41 -254 41q-50 0 -78.5 -23.5t-46.5 -97t-18 -208.5z" />
<glyph unicode="e" horiz-adv-x="1075" d="M78 549q0 118 10.5 203t36.5 146.5t61 99.5t91.5 60t120 30t155.5 8q74 0 125 -3t103.5 -12.5t86 -27.5t64 -47t47 -71t26 -100.5t9.5 -135.5q0 -142 -76 -207t-228 -65h-346q0 -49 5.5 -83.5t20 -57.5t30.5 -36.5t46 -20t56.5 -8.5t71.5 -2q108 0 149.5 0.5t108.5 5.5 t141 16v-194q-54 -20 -123 -32.5t-154 -17.5t-138 -6t-142 -1q-203 0 -280.5 126.5t-77.5 432.5zM364 633h272q91 0 91 81q0 104 -28 133.5t-130 29.5q-33 0 -52.5 -1t-43 -4.5t-36.5 -10t-27.5 -18.5t-21.5 -29.5t-13.5 -43t-8.5 -59.5t-2 -78z" />
<glyph unicode="f" horiz-adv-x="825" d="M31 868v185l170 34v203q0 73 16 129t52 100t99.5 67.5t153.5 23.5q153 0 274 -49v-171l-195 2q-21 0 -37.5 -1.5t-28.5 -8.5t-20 -12t-13.5 -19.5t-8 -22.5t-4 -31t-1.5 -33.5v-40.5v-136h247v-219h-247v-868h-287v868h-170z" />
<glyph unicode="g" horiz-adv-x="1146" d="M72 210q0 68 32 120.5t95 72.5q-62 39 -91 123.5t-29 178.5q0 193 96 290t281 97h661v-171l-121 -37q1 -2 7 -16.5t7.5 -18t6.5 -18t6.5 -22.5t5 -25t5 -32t2.5 -36t1 -45q0 -52 -8.5 -99t-34 -97.5t-65 -86.5t-107.5 -59.5t-156 -23.5h-252q-18 0 -28 -1t-25 -5 t-22.5 -14.5t-7.5 -27.5q0 -33 21.5 -44t61.5 -11h334q152 0 236.5 -80.5t84.5 -241.5v-118q0 -63 -16.5 -116t-53 -99.5t-106 -73t-165.5 -26.5h-307q-152 0 -245.5 80t-93.5 235v138l95 100q-46 26 -75.5 81t-29.5 129zM366 705q0 -81 30 -125t102 -44h115q77 0 109 44 q29 41 29 115v10q-2 85 -33.5 120.5t-106.5 35.5h-110q-79 0 -107 -42t-28 -114zM370 -22v-181q0 -74 32.5 -97t96.5 -23h169q71 0 93.5 29t22.5 86v79q0 49 -24.5 74t-82.5 26h-221z" />
<glyph unicode="h" d="M94 0v1603h285v-631q49 35 72 50t69.5 39.5t96 34.5t108.5 10q325 0 325 -382v-724h-287v728q0 148 -120 148q-83 0 -139.5 -22t-123.5 -73v-781h-286z" />
<glyph unicode="i" horiz-adv-x="464" d="M78 1249v182q0 51 49 51h215q22 0 34 -14t12 -37v-182q0 -47 -46 -47h-215q-22 0 -35.5 12.5t-13.5 34.5zM88 0v1087h287v-1087h-287z" />
<glyph unicode="j" horiz-adv-x="495" d="M94 1249v182q0 51 49 51h215q23 0 35 -14t12 -37v-182q0 -47 -47 -47h-215q-22 0 -35.5 12.5t-13.5 34.5zM106 -553v1640h287v-1095v-42q0 -145 -12 -261q-14 -133 -64 -242h-211z" />
<glyph unicode="k" horiz-adv-x="1140" d="M94 0v1602h286v-879h60l308 364h363l-407 -474l407 -613h-340l-331 504h-60v-504h-286z" />
<glyph unicode="l" horiz-adv-x="641" d="M94 387v1217h286v-1172q0 -75 13 -120.5t31.5 -63t50.5 -29.5q123 -43 137 -43v-176h-237q-140 0 -210.5 89t-70.5 298z" />
<glyph unicode="m" horiz-adv-x="1792" d="M94 0v1087h230l56 -117q96 68 136 88q90 45 203 45q103 0 175.5 -36.5t106.5 -103.5q191 140 391 140q88 0 151.5 -28.5t100.5 -81t54.5 -120t17.5 -153.5v-720h-286v725q0 74 -31.5 111t-88.5 37q-85 0 -148 -19.5t-119 -66.5q0 -4 0.5 -32t0.5 -33v-722h-286v725 q0 74 -32 111t-89 37q-81 0 -135.5 -21t-121.5 -73v-779h-286z" />
<glyph unicode="n" d="M94 0v1087h230l56 -115q51 37 73 51t69 39t95.5 34.5t107.5 9.5q325 0 325 -382v-724h-287v728q0 148 -120 148q-83 0 -139.5 -22t-123.5 -73v-781h-286z" />
<glyph unicode="o" horiz-adv-x="1146" d="M78 528q0 169 25 277t85.5 174t152 92.5t233.5 26.5q143 0 235.5 -28t152 -95.5t84 -174.5t24.5 -272q0 -155 -23.5 -255t-82 -164.5t-152 -91.5t-238.5 -27q-142 0 -236 29t-152.5 95t-83 165.5t-24.5 248.5zM364 528q0 -71 4.5 -120.5t16.5 -84t26.5 -55t41 -31t53 -14 t68.5 -3.5q54 0 84 5t58 21t40.5 50.5t19.5 89.5t7 142q0 95 -6 153t-18 97.5t-38.5 57.5t-58.5 24.5t-88 6.5q-46 0 -75 -4t-55 -17t-39.5 -34.5t-23.5 -61t-13.5 -92t-3.5 -130.5z" />
<glyph unicode="p" horiz-adv-x="1138" d="M94 -553v1640h235l51 -109q59 48 149.5 85t179.5 37q98 0 168 -39.5t110.5 -114.5t58.5 -172.5t18 -224.5q0 -103 -8 -181t-30.5 -153t-61 -123.5t-103 -78t-152.5 -29.5q-73 0 -166 19t-165 51v-607h-284zM380 249q106 -41 254 -41q50 0 78.5 23.5t46.5 97.5t18 209 q0 175 -35 246t-108 71q-149 0 -254 -67v-539z" />
<glyph unicode="q" horiz-adv-x="1136" d="M78 549q0 551 398 551q152 0 317 -19.5t251 -42.5v-1591h-287v612q-116 -79 -281 -79q-115 0 -193.5 37t-123 113t-63 176.5t-18.5 242.5zM364 557q0 -43 0.5 -67t2 -60t4.5 -56t8.5 -48t14 -43t21 -32t28.5 -25.5t38 -14.5t49 -6q68 0 114 9t113 36v631h-225 q-39 0 -69 -14.5t-47.5 -42.5t-29 -56.5t-16 -71.5t-5.5 -70.5t-1 -68.5z" />
<glyph unicode="r" horiz-adv-x="854" d="M94 0v1087h241l45 -137q153 149 312 149q87 0 121 -13v-277q-48 5 -157 5q-98 0 -162 -24.5t-114 -96.5v-693h-286z" />
<glyph unicode="s" horiz-adv-x="1040" d="M62 711v94q0 293 282 293q485 0 581 -56v-181h-493q-53 0 -68.5 -16t-15.5 -58v-49q0 -25 5.5 -40t19 -21.5t25.5 -8t34 -1.5h258q148 0 218.5 -77t70.5 -204v-112q0 -80 -22.5 -138t-62 -88.5t-84 -44t-97.5 -13.5q-516 0 -606 59v179h514q71 0 71 69v51q0 37 -14.5 54 t-56.5 17h-254q-150 0 -227.5 69.5t-77.5 222.5z" />
<glyph unicode="t" horiz-adv-x="780" d="M31 870v160l176 60l48 303h238v-303h243v-220h-243v-436q0 -77 12.5 -122.5t30.5 -63t50 -29.5q124 -43 138 -43v-176h-251q-128 0 -197 91t-69 298v481h-176z" />
<glyph unicode="u" d="M78 364v723h286v-728q0 -147 120 -147q83 0 140 21.5t123 72.5v781h287v-1087h-230l-57 116q-18 -11 -59.5 -38t-63 -38.5t-58.5 -28t-76.5 -23t-87.5 -6.5q-324 0 -324 382z" />
<glyph unicode="v" horiz-adv-x="1155" d="M31 1087h307l237 -751l245 751h305l-394 -1087h-321z" />
<glyph unicode="w" horiz-adv-x="1691" d="M31 1087h307l217 -751l195 751h286l-76 -292l180 -459l215 751h308l-352 -1087h-320l-163 394l-123 -394h-326z" />
<glyph unicode="x" horiz-adv-x="1171" d="M38 0l375 545l-375 542h346l199 -325l205 325h346l-380 -548l364 -539h-330l-202 322l-202 -322h-346z" />
<glyph unicode="y" horiz-adv-x="1183" d="M33 1087h301l188 -760q4 -16 10.5 -28.5t13.5 -20.5t16 -14t16.5 -9t17 -5t14.5 -2.5t12.5 -0.5h8.5l218 840h298l-377 -1431l-149 -209h-204l153 553q-251 0 -324 277z" />
<glyph unicode="z" horiz-adv-x="970" d="M47 846v241h878v-241l-465 -602h465v-242h-847v239l488 605h-519z" />
<glyph unicode="{" horiz-adv-x="657" d="M31 575v216q32 3 53.5 7.5t46 15t37.5 32.5t13 54v443q0 175 112 278t334 103v-241q-84 0 -121.5 -48.5t-37.5 -181.5v-370q0 -175 -197 -199q90 -16 142.5 -66t52.5 -126v-491q0 -103 38 -153.5t123 -47.5v-230q-123 0 -211 24.5t-139.5 72.5t-74.5 110.5t-23 144.5v544 q0 56 -42 85t-106 24z" />
<glyph unicode="|" horiz-adv-x="505" d="M133 -147v1724h242v-1724h-242z" />
<glyph unicode="}" horiz-adv-x="657" d="M31 -200q85 -3 123 47.5t38 153.5v491q0 76 52 126t142 66q-196 23 -196 199v370q0 133 -37.5 181.5t-121.5 48.5v241q222 0 333.5 -103t111.5 -278v-443q0 -26 9.5 -45.5t23.5 -30.5t36 -18t39.5 -10t42.5 -5v-216q-64 5 -106.5 -24t-42.5 -85v-544q0 -170 -103.5 -261 t-343.5 -91v230z" />
<glyph unicode="~" horiz-adv-x="858" d="M78 1201q33 36 52 54.5t51.5 43.5t67.5 36.5t75 11.5q46 0 111.5 -36t105.5 -36q90 -2 191 82l49 -122q-25 -30 -44 -49.5t-50 -45.5t-66 -39.5t-72 -13.5q-46 0 -119 36t-112 36q-17 0 -31.5 -1.5t-30 -6t-25 -7.5t-26.5 -12t-23.5 -12.5t-27.5 -16t-27 -16.5z" />
<glyph unicode="&#xa1;" horiz-adv-x="565" d="M134 -553l28 1092h235l29 -1092h-292zM143 719v178q0 21 13.5 33t35.5 14h174q19 -2 34 -17t15 -36v-171q-2 -56 -46 -56h-177q-22 0 -35.5 14.5t-13.5 40.5z" />
<glyph unicode="&#xa2;" horiz-adv-x="997" d="M62 545q0 134 18 233t49.5 161t79.5 99t102.5 50.5t124.5 11.5v198h177v-205q174 -18 309 -60v-178q-197 14 -379 14q-26 0 -41.5 -1t-36 -4t-32 -9.5t-26 -17.5t-22 -28t-16 -41.5t-12.5 -57.5t-6.5 -75.5t-2.5 -95.5q0 -84 6.5 -140t19.5 -92.5t37.5 -55.5t54.5 -26 t77 -7q84 0 182 5t154 9l56 5v-180q-124 -62 -327 -67v-185h-177v183q-68 0 -121 14t-101 51.5t-79 99t-49.5 160.5t-18.5 232z" />
<glyph unicode="&#xa3;" horiz-adv-x="1191" d="M78 0v222l136 42v378h-136v149l136 46v152q0 96 12.5 171t34.5 128.5t58.5 91.5t76.5 61t97.5 36t113 17.5t130.5 4.5q52 0 147 -8.5t164 -16.5l68 -8v-229h-386q-51 0 -79.5 -1.5t-58.5 -9t-44 -21.5t-26.5 -39t-16.5 -61.5t-4 -90.5v-177l453 -35v-160h-453v-378h613 v-264h-1036z" />
<glyph unicode="&#xa4;" horiz-adv-x="913" d="M80 897l98 100l93 -92q82 58 184 58q100 0 184 -58l95 97l101 -96l-100 -102q45 -77 45 -166q0 -107 -60 -192l100 -97l-97 -103l-109 105q-71 -45 -159 -45q-94 0 -174 53l-95 -98l-101 102l98 98q-51 83 -51 177q0 90 45 164zM290 637q0 -70 48 -120.5t117 -50.5 t117.5 50.5t48.5 120.5q0 69 -48.5 117.5t-117.5 48.5q-68 0 -116.5 -49t-48.5 -117z" />
<glyph unicode="&#xa5;" horiz-adv-x="1298" d="M31 1499h312l293 -676l317 676h315l-419 -808h226v-166h-301v-74h301v-166h-301v-285h-286v285h-287v166h287v74h-287v166h217z" />
<glyph unicode="&#xa6;" horiz-adv-x="507" d="M133 -147v671h242v-671h-242zM133 879v698h242v-698h-242z" />
<glyph unicode="&#xa7;" horiz-adv-x="1107" d="M86 1208v99q0 147 76.5 223t211.5 76q130 0 313.5 -11.5t259.5 -27.5v-203h-494q-42 0 -61 -17t-20 -56v-71q0 -34 21.5 -53t61.5 -19h252q170 0 244.5 -63.5t73.5 -194.5v-70q0 -189 -120 -221q118 -19 118 -202v-115q0 -89 -25 -150.5t-68.5 -92t-89 -43t-100.5 -12.5 q-143 0 -326 11t-253 28v202h487q46 0 67 12.5t22 51.5v81q0 39 -19 53t-66 14h-255q-74 0 -127.5 11.5t-96 38.5t-64 77.5t-21.5 124.5v71q0 33 1 53t7.5 53t18.5 54.5t37 42.5t60 32q-126 54 -126 213zM372 750q0 -52 21 -67t71 -15h177q62 0 79 18t17 66v77q0 25 -2 38 t-11 26.5t-29 19t-54 5.5h-177q-57 0 -74.5 -19.5t-17.5 -73.5v-75z" />
<glyph unicode="&#xa8;" horiz-adv-x="917" d="M78 1192q0 49 35.5 84t85.5 35q49 0 84 -34.5t35 -84.5t-35 -85.5t-84 -35.5t-85 35.5t-36 85.5zM600 1192q0 49 35.5 84t85.5 35q49 0 84 -34.5t35 -84.5t-35 -85.5t-84 -35.5t-85 35.5t-36 85.5z" />
<glyph unicode="&#xa9;" horiz-adv-x="1638" d="M86 754q0 84 6 158t21.5 151t40.5 139.5t65.5 119t94 95t128 60.5t165.5 22h474q85 0 154.5 -23t118.5 -62t85.5 -97t58 -120t35 -140t18 -149t4.5 -154q0 -356 -122.5 -555t-351.5 -199h-474q-112 0 -202 43t-149 115t-98 170.5t-55.5 204t-16.5 221.5zM273 754 q0 -120 20 -222t59.5 -182.5t104.5 -127t150 -46.5h463q90 1 154.5 56.5t104 187.5t39.5 334q0 62 -1.5 109.5t-8.5 110t-18.5 108.5t-33 94t-51 78t-74 49.5t-100.5 19.5h-474q-58 0 -105 -14t-91 -52.5t-73.5 -101t-47 -164t-17.5 -237.5zM457 748q0 446 295 446 q74 0 185 -13t191 -36v-152q-179 25 -331 25q-83 0 -117.5 -62t-34.5 -215q0 -135 36 -199.5t124 -64.5q153 0 335 33v-152q-140 -57 -378 -57q-52 0 -94.5 11.5t-82.5 42t-67.5 79.5t-44 129t-16.5 185z" />
<glyph unicode="&#xaa;" horiz-adv-x="749" d="M47 538v141h657v-141h-657zM47 955v72q0 85 55.5 139.5t171.5 54.5q207 -2 207 0q2 32 0 34q0 51 -24.5 67t-80.5 16q-62 0 -121.5 -3t-111 -7.5t-72.5 -5.5v135q157 54 337 55q141 1 217.5 -52t76.5 -180v-506h-167l-53 91q-11 -23 -78 -61.5t-138 -37.5 q-104 2 -161.5 57.5t-57.5 131.5zM255 993q0 -38 18.5 -50t53.5 -12q40 0 78.5 13t56.5 26l19 13v120l-164 -13q-62 -6 -62 -68v-29z" />
<glyph unicode="&#xab;" horiz-adv-x="1187" d="M78 725l422 416l157 -155l-267 -261l272 -268l-152 -158zM527 725l422 416l157 -155l-266 -261l272 -268l-153 -158z" />
<glyph unicode="&#xac;" horiz-adv-x="1011" d="M69 490v231h874v-395h-230v164h-644z" />
<glyph unicode="&#xad;" horiz-adv-x="724" d="M41 473v242h643v-242h-643z" />
<glyph unicode="&#xae;" horiz-adv-x="1638" d="M86 754q0 84 6 158t21.5 151t40.5 139.5t65.5 119t94 95t128 60.5t165.5 22h474q85 0 154.5 -23t118.5 -62t85.5 -97t58 -120t35 -140t18 -149t4.5 -154q0 -356 -122.5 -555t-351.5 -199h-474q-112 0 -202 43t-149 115t-98 170.5t-55.5 204t-16.5 221.5zM273 754 q0 -120 20 -222t59.5 -182.5t104.5 -127t150 -46.5h463q90 1 154.5 56.5t104 187.5t39.5 334q0 62 -1.5 109.5t-8.5 110t-18.5 108.5t-33 94t-51 78t-74 49.5t-100.5 19.5h-474q-58 0 -105 -14t-91 -52.5t-73.5 -101t-47 -164t-17.5 -237.5zM507 313v875h374q275 0 275 -274 q0 -70 -13 -120t-37.5 -78.5t-50 -44t-60.5 -25.5l179 -333h-203l-171 326l-105 25v-351h-188zM695 799h153q79 0 99.5 20t20.5 93q0 65 -27.5 82.5t-92.5 17.5h-153v-213z" />
<glyph unicode="&#xaf;" horiz-adv-x="751" d="M78 1087v163h598v-163h-598z" />
<glyph unicode="&#xb0;" horiz-adv-x="569" d="M78 1294q0 88 61.5 149.5t147.5 61.5t146 -61.5t60 -149.5t-60 -148.5t-146 -60.5q-87 0 -148 61t-61 148zM195 1294q0 -37 27 -63t65 -26q37 0 63 25.5t26 63.5t-26 65t-63 27t-64.5 -27t-27.5 -65z" />
<glyph unicode="&#xb1;" horiz-adv-x="1024" d="M88 144v242h852v-242h-852zM88 781v242h303v305h241v-305h308v-242h-308v-305h-241v305h-303z" />
<glyph unicode="&#xb2;" horiz-adv-x="819" d="M48 1587v41.5v49v41.5l1 17q77 14 124 20.5t122.5 12.5t160.5 6q153 0 226 -80.5t73 -217.5q0 -215 -353 -498h352v-205h-698v195q60 42 99.5 70.5t118.5 91.5t128 112t89 108t40 103q0 66 -35 91t-122 25h-325q-1 0 -1 17z" />
<glyph unicode="&#xb3;" horiz-adv-x="835" d="M47 1561v162q57 21 131 31t147.5 10h158.5q123 -1 192 -69t69 -178v-62q0 -150 -116 -190q116 -45 116 -203v-47q0 -121 -67 -185.5t-204 -64.5h-46h-47.5t-43 0.5t-45 1t-41 2t-43 3.5t-38.5 5t-41 7t-36.5 9.5t-37.5 11.5l2 163l326 1q82 0 111 16.5t29 64.5v26 q0 50 -32.5 69.5t-98.5 21.5l-253 10v177l253 15q72 2 103 21t31 64v24q0 47 -34 65t-100 18h-345z" />
<glyph unicode="&#xb4;" horiz-adv-x="497" d="M31 1087l185 284h251l-250 -284h-186z" />
<glyph unicode="&#xb5;" horiz-adv-x="1204" d="M140 364v723h287v-728q0 -147 120 -147q83 0 140 21.5t123 72.5v781h287v-1087h-231l-56 116q-13 -8 -48.5 -29.5t-52 -31t-46 -24t-56 -22t-56.5 -11.5q-61 -8 -124 10v-561h-287v917z" />
<glyph unicode="&#xb6;" horiz-adv-x="1181" d="M62 1022v190q0 140 89.5 213.5t229.5 73.5h771v-212h-108v-1287h-208v1291h-136v-1844h-208v1315q-1 0 -17 -10t-40 -17.5t-54 -7.5q-159 0 -239 83t-80 212zM270 1046q0 -36 10.5 -59.5t30 -34t38 -14t43.5 -3.5h100v356h-100q-73 0 -97.5 -29t-24.5 -90v-126z" />
<glyph unicode="&#xb7;" horiz-adv-x="538" d="M132 696v184q0 51 50 51h176q51 0 51 -51v-184q0 -47 -51 -47h-176q-22 0 -36 13t-14 34z" />
<glyph unicode="&#xb8;" horiz-adv-x="499" d="M78 -242l90 30q40 18 50.5 45t10.5 91h194q0 -160 -49.5 -225t-180.5 -65h-115v124z" />
<glyph unicode="&#xb9;" horiz-adv-x="552" d="M25 1513v136l209 112h219v-987h-221v786z" />
<glyph unicode="&#xba;" horiz-adv-x="806" d="M47 1126q0 218 77.5 299.5t280.5 81.5t280 -82t77 -299q0 -202 -76.5 -281t-280.5 -79q-201 0 -279.5 81t-78.5 279zM74 540v142h660v-142h-660zM268 1128q0 -63 7.5 -100.5t27 -55.5t41 -22.5t61.5 -4.5q35 0 53 2.5t36.5 11.5t26.5 29t13 53.5t6 86.5q1 70 -5 110 t-24 60t-40 25t-66 5t-66.5 -5t-40.5 -25.5t-24 -60t-6 -109.5z" />
<glyph unicode="&#xbb;" horiz-adv-x="1187" d="M78 457l272 268l-267 261l158 155l421 -416l-432 -426zM527 457l273 268l-267 261l157 155l422 -416l-432 -426z" />
<glyph unicode="&#xbc;" horiz-adv-x="1906" d="M25 1262v136l209 112h219v-987h-221v786zM359 0l846 1542h207l-845 -1542h-208zM1034 296l351 689h234l-286 -574h221v209l49 102h173v-311h99v-174l-99 -37v-199h-222v199h-474z" />
<glyph unicode="&#xbd;" horiz-adv-x="2029" d="M25 1262v136l209 112h219v-987h-221v786zM343 0l846 1542h208l-846 -1542h-208zM1253 813v41.5v49t1 41.5v17q223 39 411 39q154 0 228 -80.5t74 -217.5q0 -61 -30 -128t-67.5 -117.5t-96.5 -108.5t-89.5 -83.5t-74.5 -60.5h357v-205h-705v197q52 37 80.5 58t97 73 t112 92.5t93 92t74.5 97.5t25 83q0 58 -35.5 80.5t-123.5 22.5h-330q-1 0 -1 17z" />
<glyph unicode="&#xbe;" horiz-adv-x="2138" d="M47 1311v162q57 21 132.5 31t149.5 10h160q123 -1 192.5 -69t69.5 -179v-61q0 -151 -116 -191q116 -45 116 -202v-48q0 -120 -67 -185t-205 -65h-46h-48t-43.5 0.5t-45.5 1t-41.5 2t-43.5 3.5t-39.5 5t-41.5 7t-37 9.5t-38 11.5l2 164l331 1q83 0 112.5 16.5t29.5 64.5 v25q0 50 -33.5 69.5t-100.5 21.5l-257 10v176l257 16q74 2 105.5 21t31.5 64v26q0 46 -35 64t-102 18h-349zM569 0l845 1542h208l-846 -1542h-207zM1219 297l351 688h229l-285 -577h229v213l46 102h172v-315h99v-171l-99 -36v-199h-218v199h-478z" />
<glyph unicode="&#xbf;" horiz-adv-x="1112" d="M62 8q-2 198 115 295.5t347 78.5v184h234l1 -399q-157 3 -236 0q-76 -3 -118.5 -46.5t-45.5 -123.5q-1 -91 -1 -109q0 -78 53.5 -125t159.5 -45l511 1q-1 0 -1 -22v-54t0.5 -63.5t0.5 -53.5t-1 -22q-165 -33 -290 -46t-288 -6q-95 0 -171.5 24t-125.5 63.5t-82.5 93 t-47.5 109t-14 114.5v152zM505 737v179q0 24 14 36.5t36 13.5h172q22 -1 35.5 -13.5t13.5 -33.5v-182q-2 -50 -46 -51h-179q-44 6 -46 51z" />
<glyph unicode="&#xc0;" horiz-adv-x="1417" d="M70 0l505 1499h327l487 -1499h-306l-106 332h-491l-108 -332h-308zM396 1916h250l186 -284h-187zM560 586h349l-169 535z" />
<glyph unicode="&#xc1;" horiz-adv-x="1417" d="M70 0l505 1499h327l487 -1499h-306l-106 332h-491l-108 -332h-308zM560 586h349l-169 535zM645 1632l186 284h251l-250 -284h-187z" />
<glyph unicode="&#xc2;" horiz-adv-x="1417" d="M70 0l505 1499h327l487 -1499h-306l-106 332h-491l-108 -332h-308zM423 1632l220 278h213l198 -278h-190l-121 123l-128 -123h-192zM560 586h349l-169 535z" />
<glyph unicode="&#xc3;" horiz-adv-x="1417" d="M70 0l505 1499h327l487 -1499h-306l-106 332h-491l-108 -332h-308zM387 1746q130 142 247 142q51 -2 118 -37t100 -35q84 -4 189 78l49 -122q-36 -39 -64.5 -65t-76 -50.5t-91.5 -23.5q-52 2 -122 36.5t-107 34.5q-20 0 -39 -3.5t-31.5 -6.5t-32 -12t-27 -13t-31 -18 t-31.5 -19zM560 586h349l-169 535z" />
<glyph unicode="&#xc4;" horiz-adv-x="1417" d="M70 0l505 1499h327l487 -1499h-306l-106 332h-491l-108 -332h-308zM357 1754q0 49 35.5 84t85.5 35t85 -35t35 -84q0 -50 -35.5 -86t-84.5 -36t-85 36t-36 86zM560 586h349l-169 535zM879 1754q0 49 36 84t86 35q49 0 84 -34.5t35 -84.5t-35 -86t-84 -36t-85.5 36 t-36.5 86z" />
<glyph unicode="&#xc5;" horiz-adv-x="1417" d="M70 0l505 1499h327l487 -1499h-306l-106 332h-491l-108 -332h-308zM531 1704q0 88 61.5 149.5t147.5 61.5t146 -61.5t60 -149.5t-60 -148.5t-146 -60.5q-87 0 -148 61t-61 148zM560 586h349l-169 535zM651 1704q0 -37 26 -62t63 -25t62 25t25 62t-25 63t-62 26t-63 -26 t-26 -63z" />
<glyph unicode="&#xc6;" horiz-adv-x="1953" d="M47 0l580 1178q38 78 84 135.5t94 91.5t102 56t108 29t112.5 10t115.5 -1q509 -15 641 -33v-238h-573q-30 0 -50.5 -7t-30.5 -15.5t-15.5 -27t-6.5 -29t-2 -33.5v-240l585 -21v-236l-585 -20v-231q0 -37 9 -59t29.5 -31t35 -10.5t43.5 -1.5h3.5h3h3.5h550v-239 q-52 -7 -206 -16t-283 -14l-128 -5q-47 -3 -90.5 1t-91.5 19.5t-83 43t-58 77t-23 115.5v149h-359l-197 -397h-317zM682 650h238v494z" />
<glyph unicode="&#xc7;" horiz-adv-x="1169" d="M86 754q0 151 13.5 264t48 210t92 158.5t146 95.5t209.5 34q292 0 523 -69v-224l-15 1q-15 2 -41 4.5t-60.5 5.5t-76 6t-84.5 5.5t-90 4t-88 1.5q-58 0 -95 -5.5t-73 -23.5t-56.5 -51t-37 -89t-23 -137t-6.5 -195q0 -106 7.5 -181.5t27 -138t52.5 -100.5t84 -58t121 -20 q96 0 209.5 4t178.5 8l66 4v-224q-198 -61 -523 -56q-140 1 -239 53t-158 154t-85.5 238.5t-26.5 320.5zM232 -242l91 31q40 18 50.5 45t10.5 91h194q0 -160 -49.5 -225t-180.5 -65h-116v123z" />
<glyph unicode="&#xc8;" horiz-adv-x="1161" d="M119 295v893q0 75 20.5 132t53 91t77 54.5t86.5 27.5t88 6q528 -15 660 -33v-237h-592q-38 0 -61 -9t-32 -28.5t-11 -34t-2 -42.5v-234l605 -22v-236l-605 -19v-234q0 -23 4.5 -40.5t10 -28.5t17.5 -18.5t19.5 -11t24.5 -5.5t24 -2h26h572v-235q-52 -7 -211.5 -16 t-293.5 -14l-134 -5q-46 -2 -88 2t-91 22t-84.5 49.5t-59 90t-23.5 137.5zM337 1912h251l185 -283h-186z" />
<glyph unicode="&#xc9;" horiz-adv-x="1161" d="M119 295v893q0 75 20.5 132t53 91t77 54.5t86.5 27.5t88 6q528 -15 660 -33v-237h-592q-38 0 -61 -9t-32 -28.5t-11 -34t-2 -42.5v-234l605 -22v-236l-605 -19v-234q0 -23 4.5 -40.5t10 -28.5t17.5 -18.5t19.5 -11t24.5 -5.5t24 -2h26h572v-235q-52 -7 -211.5 -16 t-293.5 -14l-134 -5q-46 -2 -88 2t-91 22t-84.5 49.5t-59 90t-23.5 137.5zM564 1628l185 283h251l-250 -283h-186z" />
<glyph unicode="&#xca;" horiz-adv-x="1161" d="M119 295v893q0 75 20.5 132t53 91t77 54.5t86.5 27.5t88 6q528 -15 660 -33v-237h-592q-38 0 -61 -9t-32 -28.5t-11 -34t-2 -42.5v-234l605 -22v-236l-605 -19v-234q0 -23 4.5 -40.5t10 -28.5t17.5 -18.5t19.5 -11t24.5 -5.5t24 -2h26h572v-235q-52 -7 -211.5 -16 t-293.5 -14l-134 -5q-46 -2 -88 2t-91 22t-84.5 49.5t-59 90t-23.5 137.5zM335 1632l220 278h213l198 -278h-190l-121 123l-128 -123h-192z" />
<glyph unicode="&#xcb;" horiz-adv-x="1161" d="M119 295v893q0 75 20.5 132t53 91t77 54.5t86.5 27.5t88 6q528 -15 660 -33v-237h-592q-38 0 -61 -9t-32 -28.5t-11 -34t-2 -42.5v-234l605 -22v-236l-605 -19v-234q0 -23 4.5 -40.5t10 -28.5t17.5 -18.5t19.5 -11t24.5 -5.5t24 -2h26h572v-235q-52 -7 -211.5 -16 t-293.5 -14l-134 -5q-46 -2 -88 2t-91 22t-84.5 49.5t-59 90t-23.5 137.5zM259 1749q0 49 35.5 84t85.5 35t84.5 -35t34.5 -84q0 -50 -35 -85.5t-84 -35.5q-50 0 -85.5 36t-35.5 85zM781 1749q0 49 35.5 84t85.5 35t85 -35t35 -84q0 -50 -35.5 -85.5t-84.5 -35.5 q-50 0 -85.5 36t-35.5 85z" />
<glyph unicode="&#xcc;" horiz-adv-x="501" d="M-75 1916h251l185 -284h-186zM124 0v1499h287v-1499h-287z" />
<glyph unicode="&#xcd;" horiz-adv-x="501" d="M124 0v1499h287v-1499h-287zM175 1632l185 284h251l-250 -284h-186z" />
<glyph unicode="&#xce;" horiz-adv-x="501" d="M-48 1632l220 278h213l199 -278h-191l-120 123l-129 -123h-192zM124 0v1499h287v-1499h-287z" />
<glyph unicode="&#xcf;" horiz-adv-x="501" d="M-114 1754q0 49 36 84t86 35t84.5 -34.5t34.5 -84.5t-35 -86t-84 -36q-50 0 -86 36t-36 86zM124 0v1499h287v-1499h-287zM409 1754q0 49 35.5 84t85.5 35t84.5 -34.5t34.5 -84.5t-35 -86t-84 -36t-85 36t-36 86z" />
<glyph unicode="&#xd0;" horiz-adv-x="1355" d="M-9 697v133h133v668q0 1 638 1q90 0 164.5 -23t127.5 -62t93.5 -96.5t66 -121t41 -141.5t21.5 -152.5t6 -159.5q0 -169 -30.5 -303t-92 -233.5t-162.5 -153t-235 -53.5h-638v697h-133zM411 256h329q134 0 193 125.5t59 363.5q0 145 -17.5 244.5t-52 153.5t-78.5 76.5 t-104 22.5l-329 -1v-411h228v-133h-228v-441z" />
<glyph unicode="&#xd1;" horiz-adv-x="1388" d="M124 0v1499h291l595 -969v969h287v-1499h-287l-597 957v-957h-289zM359 1746q130 142 247 142q51 -2 118 -37t100 -35q84 -4 189 78l49 -122q-36 -39 -64.5 -65t-76 -50.5t-91.5 -23.5q-52 2 -122 36.5t-107 34.5q-20 0 -39 -3.5t-31.5 -6.5t-32 -12t-27 -13t-31 -18 t-31.5 -19z" />
<glyph unicode="&#xd2;" horiz-adv-x="1374" d="M102 739q0 115 9.5 211t26.5 169.5t44.5 131t57.5 98.5t72.5 70t83 46.5t95 27.5t103 13t111.5 3q65 0 114.5 -3t104 -13t95 -27.5t82.5 -46.5t71.5 -70t56 -98.5t42.5 -131t25.5 -169t9.5 -211.5q0 -140 -14.5 -249.5t-39.5 -188t-67 -134.5t-88 -89.5t-112 -53 t-130 -26t-150 -6.5q-60 0 -106.5 2.5t-97.5 9.5t-89 20.5t-78 34t-69 51t-56.5 71.5t-46 96t-33 122.5t-21 153t-6.5 186.5zM362 1916h250l186 -284h-187zM388 739q0 -127 9 -208t28.5 -138t58 -85.5t89.5 -40t132 -11.5q95 0 151.5 18t95 72t53 146.5t14.5 246.5 q0 88 -4 156t-13.5 120t-21.5 89t-33 63t-42 41t-55 23.5t-66 11t-79 2.5q-42 0 -69.5 -1.5t-59.5 -7t-52 -16.5t-42 -29t-35 -45t-25.5 -64t-19 -87t-10.5 -113t-4 -143z" />
<glyph unicode="&#xd3;" horiz-adv-x="1374" d="M102 739q0 115 9.5 211t26.5 169.5t44.5 131t57.5 98.5t72.5 70t83 46.5t95 27.5t103 13t111.5 3q65 0 114.5 -3t104 -13t95 -27.5t82.5 -46.5t71.5 -70t56 -98.5t42.5 -131t25.5 -169t9.5 -211.5q0 -140 -14.5 -249.5t-39.5 -188t-67 -134.5t-88 -89.5t-112 -53 t-130 -26t-150 -6.5q-60 0 -106.5 2.5t-97.5 9.5t-89 20.5t-78 34t-69 51t-56.5 71.5t-46 96t-33 122.5t-21 153t-6.5 186.5zM388 739q0 -127 9 -208t28.5 -138t58 -85.5t89.5 -40t132 -11.5q95 0 151.5 18t95 72t53 146.5t14.5 246.5q0 88 -4 156t-13.5 120t-21.5 89 t-33 63t-42 41t-55 23.5t-66 11t-79 2.5q-42 0 -69.5 -1.5t-59.5 -7t-52 -16.5t-42 -29t-35 -45t-25.5 -64t-19 -87t-10.5 -113t-4 -143zM611 1632l186 284h251l-250 -284h-187z" />
<glyph unicode="&#xd4;" horiz-adv-x="1374" d="M102 739q0 115 9.5 211t26.5 169.5t44.5 131t57.5 98.5t72.5 70t83 46.5t95 27.5t103 13t111.5 3q65 0 114.5 -3t104 -13t95 -27.5t82.5 -46.5t71.5 -70t56 -98.5t42.5 -131t25.5 -169t9.5 -211.5q0 -140 -14.5 -249.5t-39.5 -188t-67 -134.5t-88 -89.5t-112 -53 t-130 -26t-150 -6.5q-60 0 -106.5 2.5t-97.5 9.5t-89 20.5t-78 34t-69 51t-56.5 71.5t-46 96t-33 122.5t-21 153t-6.5 186.5zM388 739q0 -127 9 -208t28.5 -138t58 -85.5t89.5 -40t132 -11.5q95 0 151.5 18t95 72t53 146.5t14.5 246.5q0 88 -4 156t-13.5 120t-21.5 89 t-33 63t-42 41t-55 23.5t-66 11t-79 2.5q-42 0 -69.5 -1.5t-59.5 -7t-52 -16.5t-42 -29t-35 -45t-25.5 -64t-19 -87t-10.5 -113t-4 -143zM389 1632l220 278h213l199 -278h-191l-121 123l-128 -123h-192z" />
<glyph unicode="&#xd5;" horiz-adv-x="1374" d="M102 739q0 115 9.5 211t26.5 169.5t44.5 131t57.5 98.5t72.5 70t83 46.5t95 27.5t103 13t111.5 3q65 0 114.5 -3t104 -13t95 -27.5t82.5 -46.5t71.5 -70t56 -98.5t42.5 -131t25.5 -169t9.5 -211.5q0 -140 -14.5 -249.5t-39.5 -188t-67 -134.5t-88 -89.5t-112 -53 t-130 -26t-150 -6.5q-60 0 -106.5 2.5t-97.5 9.5t-89 20.5t-78 34t-69 51t-56.5 71.5t-46 96t-33 122.5t-21 153t-6.5 186.5zM353 1746q130 142 247 142q51 -2 118 -37t100 -35q84 -4 189 78l49 -122q-36 -39 -64.5 -65t-76 -50.5t-91.5 -23.5q-52 2 -122 36.5t-107 34.5 q-20 0 -39 -3.5t-31.5 -6.5t-32 -12t-27 -13t-31 -18t-31.5 -19zM388 739q0 -127 9 -208t28.5 -138t58 -85.5t89.5 -40t132 -11.5q95 0 151.5 18t95 72t53 146.5t14.5 246.5q0 88 -4 156t-13.5 120t-21.5 89t-33 63t-42 41t-55 23.5t-66 11t-79 2.5q-42 0 -69.5 -1.5 t-59.5 -7t-52 -16.5t-42 -29t-35 -45t-25.5 -64t-19 -87t-10.5 -113t-4 -143z" />
<glyph unicode="&#xd6;" horiz-adv-x="1374" d="M102 739q0 115 9.5 211t26.5 169.5t44.5 131t57.5 98.5t72.5 70t83 46.5t95 27.5t103 13t111.5 3q65 0 114.5 -3t104 -13t95 -27.5t82.5 -46.5t71.5 -70t56 -98.5t42.5 -131t25.5 -169t9.5 -211.5q0 -140 -14.5 -249.5t-39.5 -188t-67 -134.5t-88 -89.5t-112 -53 t-130 -26t-150 -6.5q-60 0 -106.5 2.5t-97.5 9.5t-89 20.5t-78 34t-69 51t-56.5 71.5t-46 96t-33 122.5t-21 153t-6.5 186.5zM323 1754q0 49 36 84t86 35q49 0 84 -34.5t35 -84.5t-35 -86t-84 -36t-85.5 36t-36.5 86zM388 739q0 -127 9 -208t28.5 -138t58 -85.5t89.5 -40 t132 -11.5q95 0 151.5 18t95 72t53 146.5t14.5 246.5q0 88 -4 156t-13.5 120t-21.5 89t-33 63t-42 41t-55 23.5t-66 11t-79 2.5q-42 0 -69.5 -1.5t-59.5 -7t-52 -16.5t-42 -29t-35 -45t-25.5 -64t-19 -87t-10.5 -113t-4 -143zM845 1754q0 49 36 84t86 35q49 0 84 -34.5 t35 -84.5t-35 -86t-84 -36t-85.5 36t-36.5 86z" />
<glyph unicode="&#xd7;" horiz-adv-x="944" d="M88 513l215 214l-215 216l169 172l216 -216l218 217l170 -171l-217 -218l216 -214l-170 -172l-217 215l-214 -214z" />
<glyph unicode="&#xd8;" horiz-adv-x="1390" d="M108 0l117 170q-113 170 -113 569q0 115 9.5 211t26 169.5t43.5 131t57 98.5t72 70t83 46.5t95.5 27.5t103 13t112.5 3q125 0 215 -15t159 -59l44 64h153l-103 -150q134 -177 134 -610q0 -140 -14.5 -249.5t-39.5 -188t-67 -134.5t-88.5 -89.5t-112.5 -53t-130 -26 t-150 -6.5q-139 0 -234 17t-166 67l-53 -76h-153zM398 739q0 -189 30 -278l497 741q-34 27 -82 35t-129 8q-54 0 -88 -3t-71.5 -14t-59 -32t-42.5 -57.5t-31.5 -91t-17 -130.5t-6.5 -178zM483 320q35 -35 89.5 -49.5t141.5 -14.5q95 0 151.5 18t95.5 72t53.5 146.5 t14.5 246.5q0 237 -37 339z" />
<glyph unicode="&#xd9;" horiz-adv-x="1359" d="M124 655v844h287v-844q0 -87 6.5 -149t21.5 -107t36.5 -73t56 -44t74 -22t96.5 -6q76 0 125 16.5t85 60t52 122.5t16 202v844h289v-844q0 -108 -12 -197t-30 -154t-50.5 -115.5t-61.5 -83.5t-75.5 -55.5t-79.5 -34t-87.5 -17.5t-85 -7t-85.5 -1q-166 0 -233 12 q-171 30 -252 168q-93 158 -93 485zM354 1916h251l185 -284h-186z" />
<glyph unicode="&#xda;" horiz-adv-x="1359" d="M124 655v844h287v-844q0 -87 6.5 -149t21.5 -107t36.5 -73t56 -44t74 -22t96.5 -6q76 0 125 16.5t85 60t52 122.5t16 202v844h289v-844q0 -108 -12 -197t-30 -154t-50.5 -115.5t-61.5 -83.5t-75.5 -55.5t-79.5 -34t-87.5 -17.5t-85 -7t-85.5 -1q-166 0 -233 12 q-171 30 -252 168q-93 158 -93 485zM604 1632l185 284h251l-250 -284h-186z" />
<glyph unicode="&#xdb;" horiz-adv-x="1359" d="M124 655v844h287v-844q0 -87 6.5 -149t21.5 -107t36.5 -73t56 -44t74 -22t96.5 -6q76 0 125 16.5t85 60t52 122.5t16 202v844h289v-844q0 -108 -12 -197t-30 -154t-50.5 -115.5t-61.5 -83.5t-75.5 -55.5t-79.5 -34t-87.5 -17.5t-85 -7t-85.5 -1q-166 0 -233 12 q-171 30 -252 168q-93 158 -93 485zM381 1632l220 278h213l199 -278h-191l-120 123l-129 -123h-192z" />
<glyph unicode="&#xdc;" horiz-adv-x="1359" d="M124 655v844h287v-844q0 -87 6.5 -149t21.5 -107t36.5 -73t56 -44t74 -22t96.5 -6q76 0 125 16.5t85 60t52 122.5t16 202v844h289v-844q0 -108 -12 -197t-30 -154t-50.5 -115.5t-61.5 -83.5t-75.5 -55.5t-79.5 -34t-87.5 -17.5t-85 -7t-85.5 -1q-166 0 -233 12 q-171 30 -252 168q-93 158 -93 485zM315 1754q0 49 36 84t86 35q49 0 84 -34.5t35 -84.5t-35 -86t-84 -36t-85.5 36t-36.5 86zM838 1754q0 49 35.5 84t85.5 35q49 0 84 -34.5t35 -84.5t-35 -86t-84 -36t-85 36t-36 86z" />
<glyph unicode="&#xdd;" horiz-adv-x="1343" d="M70 1499h312l292 -719l320 719h313l-494 -1034v-465h-286v465zM595 1632l185 284h251l-250 -284h-186z" />
<glyph unicode="&#xde;" horiz-adv-x="1118" d="M94 0v1493h286v-289h302q54 0 100.5 -10t96 -38.5t84.5 -75t57.5 -126.5t22.5 -186q0 -87 -12.5 -157t-32 -117t-50 -82.5t-60.5 -55t-68.5 -31.5t-69 -15.5t-68.5 -4.5q-50 -1 -86 -1t-86.5 9t-129.5 31v-344h-286zM380 558h212q44 0 71 6.5t49.5 27.5t32 63.5 t9.5 110.5q-1 51 -11 87t-24 54.5t-38 28.5t-42 12t-47 2h-212v-392z" />
<glyph unicode="&#xdf;" horiz-adv-x="1171" d="M94 0v1159q0 91 31 169.5t90.5 139.5t154.5 96t214 35q141 0 246 -35.5t160.5 -93.5t81.5 -131.5t17 -151t-41 -150.5t-85 -131q-22 -23 -56 -55t-49.5 -48t-28.5 -40t-13 -50q0 -22 18 -40.5t46.5 -33t63.5 -30.5t70 -38t63.5 -49.5t46.5 -70.5t18 -96v-62 q0 -71 -20 -126.5t-53.5 -89t-79.5 -55.5t-93 -30t-100 -8q-64 0 -129.5 7.5t-90 13t-84.5 18.5v202q161 -11 233 -11q53 0 91 29t39 86v50q0 37 -32.5 63t-78.5 44.5t-92.5 42.5t-79 71.5t-32.5 115.5q0 64 20 112t54.5 84.5t106.5 95.5q85 75 85 171q0 48 -17 80.5t-49 49 t-66.5 23t-78.5 6.5q-110 0 -162.5 -64.5t-52.5 -215.5v-1058h-286z" />
<glyph unicode="&#xe0;" horiz-adv-x="1062" d="M62 277v103q0 62 17.5 114t53.5 94t99.5 66t147.5 24q320 -2 320 0q2 68 0 70q0 81 -35 107.5t-111 26.5q-100 0 -456 -24v177q103 40 218.5 56t276.5 17q92 0 161 -17t122.5 -56t81.5 -108.5t28 -167.5v-759h-226l-60 120q-8 -15 -52.5 -45.5t-124 -59t-154.5 -27.5 q-100 3 -171.5 46.5t-103.5 106.5t-32 136zM204 1514h251l186 -283h-187zM348 318q0 -61 26.5 -80.5t75.5 -19.5q53 0 115.5 21t98.5 42l36 21v200l-263 -21q-89 -8 -89 -110v-53z" />
<glyph unicode="&#xe1;" horiz-adv-x="1062" d="M62 277v103q0 62 17.5 114t53.5 94t99.5 66t147.5 24q320 -2 320 0q2 68 0 70q0 81 -35 107.5t-111 26.5q-100 0 -456 -24v177q103 40 218.5 56t276.5 17q92 0 161 -17t122.5 -56t81.5 -108.5t28 -167.5v-759h-226l-60 120q-8 -15 -52.5 -45.5t-124 -59t-154.5 -27.5 q-100 3 -171.5 46.5t-103.5 106.5t-32 136zM348 318q0 -61 26.5 -80.5t75.5 -19.5q53 0 115.5 21t98.5 42l36 21v200l-263 -21q-89 -8 -89 -110v-53zM450 1231l185 283h251l-250 -283h-186z" />
<glyph unicode="&#xe2;" horiz-adv-x="1062" d="M62 277v103q0 62 17.5 114t53.5 94t99.5 66t147.5 24q320 -2 320 0q2 68 0 70q0 81 -35 107.5t-111 26.5q-100 0 -456 -24v177q103 40 218.5 56t276.5 17q92 0 161 -17t122.5 -56t81.5 -108.5t28 -167.5v-759h-226l-60 120q-8 -15 -52.5 -45.5t-124 -59t-154.5 -27.5 q-100 3 -171.5 46.5t-103.5 106.5t-32 136zM228 1231l221 277h213l198 -277h-190l-121 123l-128 -123h-193zM348 318q0 -61 26.5 -80.5t75.5 -19.5q53 0 115.5 21t98.5 42l36 21v200l-263 -21q-89 -8 -89 -110v-53z" />
<glyph unicode="&#xe3;" horiz-adv-x="1062" d="M62 277v103q0 62 17.5 114t53.5 94t99.5 66t147.5 24q320 -2 320 0q2 68 0 70q0 81 -35 107.5t-111 26.5q-100 0 -456 -24v177q103 40 218.5 56t276.5 17q92 0 161 -17t122.5 -56t81.5 -108.5t28 -167.5v-759h-226l-60 120q-8 -15 -52.5 -45.5t-124 -59t-154.5 -27.5 q-100 3 -171.5 46.5t-103.5 106.5t-32 136zM188 1344q130 142 247 142q51 -2 118 -36.5t100 -34.5q84 -4 189 78l49 -122q-36 -39 -64.5 -65t-76 -50.5t-91.5 -23.5q-52 2 -122 36.5t-107 34.5q-20 0 -39 -3.5t-31.5 -6.5t-32 -12t-27 -13t-31 -18t-31.5 -19zM348 318 q0 -61 26.5 -80.5t75.5 -19.5q53 0 115.5 21t98.5 42l36 21v200l-263 -21q-89 -8 -89 -110v-53z" />
<glyph unicode="&#xe4;" horiz-adv-x="1062" d="M62 277v103q0 62 17.5 114t53.5 94t99.5 66t147.5 24q320 -2 320 0q2 68 0 70q0 81 -35 107.5t-111 26.5q-100 0 -456 -24v177q103 40 218.5 56t276.5 17q92 0 161 -17t122.5 -56t81.5 -108.5t28 -167.5v-759h-226l-60 120q-8 -15 -52.5 -45.5t-124 -59t-154.5 -27.5 q-100 3 -171.5 46.5t-103.5 106.5t-32 136zM161 1352q0 49 36 84.5t86 35.5q49 0 84 -35t35 -85t-35 -85.5t-84 -35.5q-50 0 -86 36t-36 85zM348 318q0 -61 26.5 -80.5t75.5 -19.5q53 0 115.5 21t98.5 42l36 21v200l-263 -21q-89 -8 -89 -110v-53zM684 1352q0 49 35.5 84.5 t85.5 35.5q49 0 84 -35t35 -85t-35 -85.5t-84 -35.5t-85 35.5t-36 85.5z" />
<glyph unicode="&#xe5;" horiz-adv-x="1062" d="M62 277v103q0 62 17.5 114t53.5 94t99.5 66t147.5 24q320 -2 320 0q2 68 0 70q0 81 -35 107.5t-111 26.5q-100 0 -456 -24v177q103 40 218.5 56t276.5 17q92 0 161 -17t122.5 -56t81.5 -108.5t28 -167.5v-759h-226l-60 120q-8 -15 -52.5 -45.5t-124 -59t-154.5 -27.5 q-100 3 -171.5 46.5t-103.5 106.5t-32 136zM338 1412q0 88 61.5 149.5t147.5 61.5t146.5 -61.5t60.5 -149.5t-60.5 -148.5t-146.5 -60.5q-87 0 -148 61t-61 148zM348 318q0 -61 26.5 -80.5t75.5 -19.5q53 0 115.5 21t98.5 42l36 21v200l-263 -21q-89 -8 -89 -110v-53z M458 1412q0 -37 26 -62t63 -25t62 25t25 62t-25 63t-62 26t-63 -26t-26 -63z" />
<glyph unicode="&#xe6;" horiz-adv-x="1724" d="M62 283v72q0 62 17.5 114t53.5 94t99.5 66t147.5 24q320 -2 320 0q2 98 0 100q0 81 -35 107.5t-111 26.5q-88 0 -456 -24v178q99 40 214.5 55.5t280.5 16.5q199 -2 286 -87q59 44 134 59.5t190 15.5q73 0 125 -3.5t103.5 -13t86 -27t64.5 -46t47 -69t26.5 -96t9.5 -128.5 q0 -141 -75.5 -201t-229.5 -60h-344q0 -73 13.5 -119t44 -70.5t70 -33.5t101.5 -9h46.5h45h38t39 0.5t34.5 1.5t37.5 2t34.5 2.5t40 3.5t39 5t45 6v-193q-71 -26 -180.5 -40t-184.5 -16t-192 -2q-112 0 -178.5 34.5t-118.5 106.5q-11 -23 -81.5 -57t-168.5 -60.5t-171 -25.5 q-76 2 -136 27.5t-96.5 67t-55.5 91.5t-19 104zM348 318q0 -26 6 -44t14.5 -28t23.5 -15t27 -6t31 -1q53 0 115.5 21t98.5 42l36 21v174l-263 -20q-89 -8 -89 -111v-33zM1016 652h270q92 0 92 81q0 54 -4.5 81.5t-24 44t-46.5 20t-84 3.5h-9q-66 0 -93.5 -3.5t-56.5 -25 t-37 -68.5t-7 -133z" />
<glyph unicode="&#xe7;" horiz-adv-x="1011" d="M78 545q0 131 17.5 229.5t48 160t77 99t98 52t117.5 14.5q294 0 501 -67v-178q-196 14 -378 14q-26 0 -41.5 -1t-36 -4t-32 -9.5t-26 -17.5t-22 -28t-16 -41.5t-12.5 -57.5t-6.5 -75.5t-2.5 -95.5q0 -84 6.5 -140t19.5 -92.5t37.5 -55.5t54.5 -26t77 -7q84 0 182 5t154 9 l56 5v-180q-38 -19 -81.5 -33t-85 -20.5t-87 -10.5t-88 -4t-87.5 -0.5t-86 -0.5q-65 0 -116 14.5t-97.5 52.5t-77.5 99.5t-49 160.5t-18 230zM323 -244l91 31q40 18 50.5 45t10.5 91h194q0 -160 -49.5 -225t-180.5 -65h-116v123z" />
<glyph unicode="&#xe8;" horiz-adv-x="1075" d="M78 549q0 118 10.5 203t36.5 146.5t61 99.5t91.5 60t120 30t155.5 8q74 0 125 -3t103.5 -12.5t86 -27.5t64 -47t47 -71t26 -100.5t9.5 -135.5q0 -142 -76 -207t-228 -65h-346q0 -49 5.5 -83.5t20 -57.5t30.5 -36.5t46 -20t56.5 -8.5t71.5 -2q108 0 149.5 0.5t108.5 5.5 t141 16v-194q-54 -20 -123 -32.5t-154 -17.5t-138 -6t-142 -1q-203 0 -280.5 126.5t-77.5 432.5zM218 1504h250l186 -283h-187zM364 633h272q91 0 91 81q0 104 -28 133.5t-130 29.5q-33 0 -52.5 -1t-43 -4.5t-36.5 -10t-27.5 -18.5t-21.5 -29.5t-13.5 -43t-8.5 -59.5t-2 -78 z" />
<glyph unicode="&#xe9;" horiz-adv-x="1075" d="M78 549q0 118 10.5 203t36.5 146.5t61 99.5t91.5 60t120 30t155.5 8q74 0 125 -3t103.5 -12.5t86 -27.5t64 -47t47 -71t26 -100.5t9.5 -135.5q0 -142 -76 -207t-228 -65h-346q0 -49 5.5 -83.5t20 -57.5t30.5 -36.5t46 -20t56.5 -8.5t71.5 -2q108 0 149.5 0.5t108.5 5.5 t141 16v-194q-54 -20 -123 -32.5t-154 -17.5t-138 -6t-142 -1q-203 0 -280.5 126.5t-77.5 432.5zM364 633h272q91 0 91 81q0 104 -28 133.5t-130 29.5q-33 0 -52.5 -1t-43 -4.5t-36.5 -10t-27.5 -18.5t-21.5 -29.5t-13.5 -43t-8.5 -59.5t-2 -78zM458 1221l186 283h250 l-249 -283h-187z" />
<glyph unicode="&#xea;" horiz-adv-x="1075" d="M78 549q0 118 10.5 203t36.5 146.5t61 99.5t91.5 60t120 30t155.5 8q74 0 125 -3t103.5 -12.5t86 -27.5t64 -47t47 -71t26 -100.5t9.5 -135.5q0 -142 -76 -207t-228 -65h-346q0 -49 5.5 -83.5t20 -57.5t30.5 -36.5t46 -20t56.5 -8.5t71.5 -2q108 0 149.5 0.5t108.5 5.5 t141 16v-194q-54 -20 -123 -32.5t-154 -17.5t-138 -6t-142 -1q-203 0 -280.5 126.5t-77.5 432.5zM229 1221l221 277h213l198 -277h-190l-121 122l-128 -122h-193zM364 633h272q91 0 91 81q0 104 -28 133.5t-130 29.5q-33 0 -52.5 -1t-43 -4.5t-36.5 -10t-27.5 -18.5 t-21.5 -29.5t-13.5 -43t-8.5 -59.5t-2 -78z" />
<glyph unicode="&#xeb;" horiz-adv-x="1075" d="M78 549q0 118 10.5 203t36.5 146.5t61 99.5t91.5 60t120 30t155.5 8q74 0 125 -3t103.5 -12.5t86 -27.5t64 -47t47 -71t26 -100.5t9.5 -135.5q0 -142 -76 -207t-228 -65h-346q0 -49 5.5 -83.5t20 -57.5t30.5 -36.5t46 -20t56.5 -8.5t71.5 -2q108 0 149.5 0.5t108.5 5.5 t141 16v-194q-54 -20 -123 -32.5t-154 -17.5t-138 -6t-142 -1q-203 0 -280.5 126.5t-77.5 432.5zM161 1342q0 49 36 84t86 35q49 0 84 -34.5t35 -84.5t-35 -85.5t-84 -35.5q-50 0 -86 36t-36 85zM364 633h272q91 0 91 81q0 104 -28 133.5t-130 29.5q-33 0 -52.5 -1t-43 -4.5 t-36.5 -10t-27.5 -18.5t-21.5 -29.5t-13.5 -43t-8.5 -59.5t-2 -78zM683 1342q0 49 36 84t86 35q49 0 84 -34.5t35 -84.5t-35 -85.5t-84 -35.5q-50 0 -86 36t-36 85z" />
<glyph unicode="&#xec;" horiz-adv-x="471" d="M-106 1504h251l185 -283h-186zM94 0v1087h286v-1087h-286z" />
<glyph unicode="&#xed;" horiz-adv-x="471" d="M94 0v1087h286v-1087h-286zM144 1221l185 283h251l-250 -283h-186z" />
<glyph unicode="&#xee;" horiz-adv-x="471" d="M-79 1221l221 277h213l198 -277h-191l-120 122l-128 -122h-193zM94 0v1087h286v-1087h-286z" />
<glyph unicode="&#xef;" horiz-adv-x="471" d="M-144 1342q0 49 35.5 84t85.5 35q49 0 84 -34.5t35 -84.5t-35 -85.5t-84 -35.5t-85 35.5t-36 85.5zM94 0v1087h286v-1087h-286zM378 1342q0 49 35.5 84t85.5 35q49 0 84 -34.5t35 -84.5t-35 -85.5t-84 -35.5t-85 35.5t-36 85.5z" />
<glyph unicode="&#xf0;" horiz-adv-x="1105" d="M62 541q0 270 90.5 408t291.5 138h115q120 0 155 -19q-37 124 -118 198l-233 -109l-58 118l148 67q-93 33 -258 27v235q338 0 524 -124l190 89l59 -119l-138 -63q66 -75 111 -174.5t66.5 -215.5t29.5 -222t8 -234q0 -541 -385 -541h-216q-207 0 -294.5 130t-87.5 411z M348 541q0 -92 7.5 -146.5t27 -82.5t43.5 -36t66 -8h123q89 0 116 58t27 215q0 75 -3.5 121t-11.5 80t-25 50.5t-41 23.5t-62 7h-123q-53 0 -82 -20t-45.5 -82.5t-16.5 -179.5z" />
<glyph unicode="&#xf1;" d="M94 0v1087h230l56 -115q51 37 73 51t69 39t95.5 34.5t107.5 9.5q325 0 325 -382v-724h-287v728q0 148 -120 148q-83 0 -139.5 -22t-123.5 -73v-781h-286zM220 1342q130 142 247 142q51 -2 118 -36.5t100 -34.5q84 -4 189 78l50 -122q-129 -141 -233 -139q-52 2 -122 36 t-107 34q-20 0 -39.5 -3.5t-31 -6t-32 -12.5t-26.5 -12.5t-32 -18t-31 -18.5z" />
<glyph unicode="&#xf2;" horiz-adv-x="1146" d="M78 528q0 169 25 277t85.5 174t152 92.5t233.5 26.5q143 0 235.5 -28t152 -95.5t84 -174.5t24.5 -272q0 -155 -23.5 -255t-82 -164.5t-152 -91.5t-238.5 -27q-142 0 -236 29t-152.5 95t-83 165.5t-24.5 248.5zM240 1504h251l185 -283h-186zM364 528q0 -71 4.5 -120.5 t16.5 -84t26.5 -55t41 -31t53 -14t68.5 -3.5q54 0 84 5t58 21t40.5 50.5t19.5 89.5t7 142q0 95 -6 153t-18 97.5t-38.5 57.5t-58.5 24.5t-88 6.5q-46 0 -75 -4t-55 -17t-39.5 -34.5t-23.5 -61t-13.5 -92t-3.5 -130.5z" />
<glyph unicode="&#xf3;" horiz-adv-x="1146" d="M78 528q0 169 25 277t85.5 174t152 92.5t233.5 26.5q143 0 235.5 -28t152 -95.5t84 -174.5t24.5 -272q0 -155 -23.5 -255t-82 -164.5t-152 -91.5t-238.5 -27q-142 0 -236 29t-152.5 95t-83 165.5t-24.5 248.5zM364 528q0 -71 4.5 -120.5t16.5 -84t26.5 -55t41 -31t53 -14 t68.5 -3.5q54 0 84 5t58 21t40.5 50.5t19.5 89.5t7 142q0 95 -6 153t-18 97.5t-38.5 57.5t-58.5 24.5t-88 6.5q-46 0 -75 -4t-55 -17t-39.5 -34.5t-23.5 -61t-13.5 -92t-3.5 -130.5zM481 1221l185 283h251l-250 -283h-186z" />
<glyph unicode="&#xf4;" horiz-adv-x="1146" d="M78 528q0 169 25 277t85.5 174t152 92.5t233.5 26.5q143 0 235.5 -28t152 -95.5t84 -174.5t24.5 -272q0 -155 -23.5 -255t-82 -164.5t-152 -91.5t-238.5 -27q-142 0 -236 29t-152.5 95t-83 165.5t-24.5 248.5zM262 1221l221 277h213l198 -277h-190l-121 122l-128 -122 h-193zM364 528q0 -71 4.5 -120.5t16.5 -84t26.5 -55t41 -31t53 -14t68.5 -3.5q54 0 84 5t58 21t40.5 50.5t19.5 89.5t7 142q0 95 -6 153t-18 97.5t-38.5 57.5t-58.5 24.5t-88 6.5q-46 0 -75 -4t-55 -17t-39.5 -34.5t-23.5 -61t-13.5 -92t-3.5 -130.5z" />
<glyph unicode="&#xf5;" horiz-adv-x="1146" d="M78 528q0 169 25 277t85.5 174t152 92.5t233.5 26.5q143 0 235.5 -28t152 -95.5t84 -174.5t24.5 -272q0 -155 -23.5 -255t-82 -164.5t-152 -91.5t-238.5 -27q-142 0 -236 29t-152.5 95t-83 165.5t-24.5 248.5zM230 1334q130 142 248 142q51 -2 118 -36.5t100 -34.5 q83 -4 188 78l50 -122q-36 -39 -64.5 -65t-76 -50.5t-91.5 -23.5q-52 2 -122.5 36t-107.5 34q-20 0 -39.5 -3.5t-31 -6t-32 -12.5t-26.5 -12.5t-32 -18t-31 -18.5zM364 528q0 -71 4.5 -120.5t16.5 -84t26.5 -55t41 -31t53 -14t68.5 -3.5q54 0 84 5t58 21t40.5 50.5 t19.5 89.5t7 142q0 95 -6 153t-18 97.5t-38.5 57.5t-58.5 24.5t-88 6.5q-46 0 -75 -4t-55 -17t-39.5 -34.5t-23.5 -61t-13.5 -92t-3.5 -130.5z" />
<glyph unicode="&#xf6;" horiz-adv-x="1146" d="M78 528q0 169 25 277t85.5 174t152 92.5t233.5 26.5q143 0 235.5 -28t152 -95.5t84 -174.5t24.5 -272q0 -155 -23.5 -255t-82 -164.5t-152 -91.5t-238.5 -27q-142 0 -236 29t-152.5 95t-83 165.5t-24.5 248.5zM193 1342q0 49 36 84t86 35q49 0 84 -34.5t35 -84.5 t-35 -85.5t-84 -35.5q-50 0 -86 36t-36 85zM364 528q0 -71 4.5 -120.5t16.5 -84t26.5 -55t41 -31t53 -14t68.5 -3.5q54 0 84 5t58 21t40.5 50.5t19.5 89.5t7 142q0 95 -6 153t-18 97.5t-38.5 57.5t-58.5 24.5t-88 6.5q-46 0 -75 -4t-55 -17t-39.5 -34.5t-23.5 -61t-13.5 -92 t-3.5 -130.5zM715 1342q0 49 36 84t86 35q49 0 84 -34.5t35 -84.5t-35 -85.5t-84 -35.5q-50 0 -86 36t-36 85z" />
<glyph unicode="&#xf7;" horiz-adv-x="1017" d="M78 602v242h864v-242h-864zM381 317v137q0 51 49 51h151q50 0 50 -51v-137q0 -47 -50 -47h-151q-22 0 -35.5 12.5t-13.5 34.5zM381 979v137q0 51 49 51h151q50 0 50 -51v-137q0 -47 -50 -47h-151q-22 0 -35.5 12.5t-13.5 34.5z" />
<glyph unicode="&#xf8;" horiz-adv-x="1189" d="M79 0l109 137q-88 120 -88 391q0 169 25 277t85.5 174t152 92.5t233.5 26.5q203 0 309 -58l39 47h158l-104 -128q94 -123 94 -431q0 -155 -23.5 -255t-82 -164.5t-152 -91.5t-238.5 -27q-210 0 -320 65l-44 -55h-153zM387 528q0 -85 18 -127l334 433q-37 33 -143 33 q-46 0 -75 -4t-54.5 -17t-39 -34.5t-23.5 -61t-13.5 -92t-3.5 -130.5zM445 261q22 -25 57 -33t94 -8q45 0 72 3t53.5 13.5t40 30t25 54.5t15.5 84.5t4 122.5q0 122 -22 171z" />
<glyph unicode="&#xf9;" d="M78 364v723h286v-728q0 -147 120 -147q83 0 140 21.5t123 72.5v781h287v-1087h-230l-57 116q-18 -11 -59.5 -38t-63 -38.5t-58.5 -28t-76.5 -23t-87.5 -6.5q-324 0 -324 382zM222 1504h251l185 -283h-186z" />
<glyph unicode="&#xfa;" d="M78 364v723h286v-728q0 -147 120 -147q83 0 140 21.5t123 72.5v781h287v-1087h-230l-57 116q-18 -11 -59.5 -38t-63 -38.5t-58.5 -28t-76.5 -23t-87.5 -6.5q-324 0 -324 382zM463 1221l185 283h251l-250 -283h-186z" />
<glyph unicode="&#xfb;" d="M78 364v723h286v-728q0 -147 120 -147q83 0 140 21.5t123 72.5v781h287v-1087h-230l-57 116q-18 -11 -59.5 -38t-63 -38.5t-58.5 -28t-76.5 -23t-87.5 -6.5q-324 0 -324 382zM240 1221l220 277h213l199 -277h-191l-120 122l-129 -122h-192z" />
<glyph unicode="&#xfc;" d="M78 364v723h286v-728q0 -147 120 -147q83 0 140 21.5t123 72.5v781h287v-1087h-230l-57 116q-18 -11 -59.5 -38t-63 -38.5t-58.5 -28t-76.5 -23t-87.5 -6.5q-324 0 -324 382zM174 1342q0 49 36 84t86 35t84.5 -34.5t34.5 -84.5t-35 -85.5t-84 -35.5q-50 0 -86 36t-36 85z M697 1342q0 49 35.5 84t85.5 35t84.5 -34.5t34.5 -84.5t-35 -85.5t-84 -35.5q-50 0 -85.5 35.5t-35.5 85.5z" />
<glyph unicode="&#xfd;" horiz-adv-x="1183" d="M33 1087h301l188 -760q4 -16 10.5 -28.5t13.5 -20.5t16 -14t16.5 -9t17 -5t14.5 -2.5t12.5 -0.5h8.5l218 840h298l-377 -1431l-149 -209h-204l153 553q-251 0 -324 277zM497 1221l185 283h251l-250 -283h-186z" />
<glyph unicode="&#xfe;" horiz-adv-x="1138" d="M108 -553v2155h287v-633q61 49 150 87.5t177 38.5q355 0 355 -555q0 -85 -5.5 -151.5t-19 -134t-39 -115.5t-64 -87t-96 -58.5t-131.5 -19.5q-75 0 -166.5 19.5t-160.5 54.5v-601h-287zM395 239q40 -16 90 -25t79.5 -11t83.5 -4q36 0 60 13t44 48t29.5 102t9.5 169 q0 172 -36 245.5t-107 73.5q-145 -6 -253 -71v-540z" />
<glyph unicode="&#xff;" horiz-adv-x="1183" d="M33 1087h301l188 -760q4 -16 10.5 -28.5t13.5 -20.5t16 -14t16.5 -9t17 -5t14.5 -2.5t12.5 -0.5h8.5l218 840h298l-377 -1431l-149 -209h-204l153 553q-251 0 -324 277zM208 1342q0 49 36 84t86 35t84.5 -34.5t34.5 -84.5t-35 -85.5t-84 -35.5q-50 0 -86 36t-36 85z M731 1342q0 49 35.5 84t85.5 35t84.5 -34.5t34.5 -84.5t-35 -85.5t-84 -35.5q-50 0 -85.5 35.5t-35.5 85.5z" />
<glyph unicode="&#x152;" horiz-adv-x="2064" d="M102 739q0 115 9.5 211t26.5 169.5t44 131t57.5 98.5t72.5 70t82.5 46.5t95 27.5t103 13t111.5 3q138 0 233.5 -21t164.5 -81q78 101 242 92q506 -15 638 -33v-237h-571q-38 0 -61 -9t-32 -28.5t-11 -34t-2 -42.5v-234l583 -22v-236l-583 -19v-234q0 -23 4.5 -40.5 t10 -28.5t18 -18.5t19.5 -11t24.5 -5.5t24.5 -2h26h550v-235q-52 -7 -206.5 -16t-283.5 -14l-128 -5q-192 -11 -271 93q-68 -55 -161.5 -75t-227.5 -20q-60 0 -106.5 2.5t-97.5 9.5t-89 20.5t-78 34t-68.5 51t-56.5 71.5t-46 96t-32.5 122.5t-21 153t-6.5 186.5zM388 739 q0 -106 5.5 -178.5t20 -128.5t36 -88.5t59 -53t83 -27.5t112.5 -7q95 0 151.5 18t95 72t53 146.5t14.5 246.5q0 88 -4 156t-13.5 120t-21.5 89t-33 63t-42 41t-55 23.5t-66 11t-79 2.5q-54 0 -88 -3t-71.5 -14t-59 -32t-42.5 -57.5t-31.5 -91t-17 -130.5t-6.5 -178z" />
<glyph unicode="&#x153;" horiz-adv-x="1777" d="M78 528q0 169 25 277t85.5 174t152 92.5t233.5 26.5q237 0 341 -93q51 52 131.5 71.5t209.5 19.5q74 0 125 -3t103.5 -12.5t86 -27.5t64 -47t47 -71t26 -100.5t9.5 -135.5q0 -142 -76 -207t-227 -65h-345q-1 -68 11 -110t43.5 -63.5t70 -28t103.5 -6.5q108 0 149.5 0.5 t109 5.5t141.5 16v-194q-54 -20 -123 -32.5t-154 -17.5t-138 -6t-142 -1q-160 0 -233 83q-103 -83 -333 -83q-142 0 -236 29t-152.5 95t-83 165.5t-24.5 248.5zM364 528q0 -71 4.5 -120.5t16.5 -84t26.5 -55t41 -31t53 -14t68.5 -3.5q50 0 82.5 4.5t57 20.5t37 35.5t20 62 t9 86t1.5 120.5q0 106 -7 164t-31 95t-62 48t-107 11q-46 0 -75 -4t-55 -17t-39.5 -34.5t-23.5 -61t-13.5 -92t-3.5 -130.5zM1069 633h271q91 0 91 81q0 104 -28 133.5t-130 29.5q-51 0 -81 -4t-58 -17t-41 -39.5t-19.5 -71t-4.5 -112.5z" />
<glyph unicode="&#x178;" horiz-adv-x="1343" d="M70 1499h312l292 -719l320 719h313l-494 -1034v-465h-286v465zM307 1754q0 49 35.5 84t85.5 35t84.5 -34.5t34.5 -84.5t-35 -86t-84 -36t-85 36t-36 86zM829 1754q0 49 35.5 84t85.5 35t85 -35t35 -84q0 -50 -35.5 -86t-84.5 -36t-85 36t-36 86z" />
<glyph unicode="&#x2c6;" horiz-adv-x="786" d="M78 1087l220 278h213l198 -278h-190l-121 123l-128 -123h-192zM511 1365z" />
<glyph unicode="&#x2dc;" horiz-adv-x="858" d="M78 1201q130 142 247 142q51 -2 118 -37t100 -35q83 -4 189 79l49 -122q-26 -29 -47 -48.5t-52 -43.5t-65 -36.5t-68 -11.5q-52 2 -122 36.5t-107 34.5q-20 0 -39.5 -3.5t-31.5 -6t-32 -12.5l-27 -13.5t-32 -18t-31 -18.5z" />
<glyph unicode="&#x2000;" horiz-adv-x="958" />
<glyph unicode="&#x2001;" horiz-adv-x="1916" />
<glyph unicode="&#x2002;" horiz-adv-x="958" />
<glyph unicode="&#x2003;" horiz-adv-x="1916" />
<glyph unicode="&#x2004;" horiz-adv-x="638" />
<glyph unicode="&#x2005;" horiz-adv-x="479" />
<glyph unicode="&#x2006;" horiz-adv-x="319" />
<glyph unicode="&#x2007;" horiz-adv-x="319" />
<glyph unicode="&#x2008;" horiz-adv-x="239" />
<glyph unicode="&#x2009;" horiz-adv-x="383" />
<glyph unicode="&#x200a;" horiz-adv-x="106" />
<glyph unicode="&#x2010;" horiz-adv-x="724" d="M41 473v242h643v-242h-643z" />
<glyph unicode="&#x2011;" horiz-adv-x="724" d="M41 473v242h643v-242h-643z" />
<glyph unicode="&#x2012;" horiz-adv-x="724" d="M41 473v242h643v-242h-643z" />
<glyph unicode="&#x2013;" horiz-adv-x="1050" d="M41 467v244h969v-244h-969z" />
<glyph unicode="&#x2014;" horiz-adv-x="1507" d="M41 471v244h1425v-244h-1425z" />
<glyph unicode="&#x2018;" horiz-adv-x="530" d="M124 1057v272q0 50 15 87.5t39 57t53 32t57.5 14.5t52.5 1.5t39 -3.5l15 -2v-114q-66 1 -66 -66v-43h23q24 0 39 -13.5t15 -39.5v-183q0 -58 -54 -58h-177q-51 0 -51 58z" />
<glyph unicode="&#x2019;" horiz-adv-x="530" d="M124 1281v183q0 58 54 58h177q51 0 51 -58v-272q0 -50 -15 -87.5t-38.5 -57t-52.5 -31.5t-58 -14.5t-52.5 -2t-38.5 2.5l-15 3v113q66 -1 66 67v42h-24q-24 0 -39 13.5t-15 40.5z" />
<glyph unicode="&#x201a;" horiz-adv-x="530" d="M124 53v183q0 58 54 58h177q51 0 51 -58v-272q0 -50 -15 -87.5t-38.5 -57t-52.5 -31.5t-58 -14.5t-52.5 -2t-38.5 2.5l-15 3v113q66 -1 66 67v42h-24q-24 0 -39 13.5t-15 40.5z" />
<glyph unicode="&#x201c;" horiz-adv-x="870" d="M113 1055v272q0 69 28 113t67.5 58.5t79.5 19t68 0.5l28 -5v-113q-66 1 -66 -66v-42h23q24 0 39 -13.5t15 -40.5v-183q0 -58 -54 -58h-177q-51 0 -51 58zM478 1055v272q0 69 28 113t68 58.5t79.5 19t67.5 0.5l28 -5v-113q-67 1 -67 -66v-42h24q24 0 39 -13.5t15 -40.5 v-183q0 -58 -54 -58h-176q-52 0 -52 58z" />
<glyph unicode="&#x201d;" horiz-adv-x="870" d="M113 1279v183q0 58 54 58h176q52 0 52 -58v-272q0 -50 -15 -87.5t-39 -57t-52.5 -32t-57.5 -15t-53 -2t-39 3.5l-15 2v114q66 -1 66 67v42h-23q-24 0 -39 13.5t-15 40.5zM478 1279v183q0 58 54 58h177q51 0 51 -58v-272q0 -50 -15 -87.5t-39 -57t-53 -32t-57.5 -15 t-52.5 -2t-39 3.5l-15 2v114q66 -1 66 67v42h-23q-24 0 -39 13.5t-15 40.5z" />
<glyph unicode="&#x201e;" horiz-adv-x="870" d="M113 53v183q0 58 54 58h176q52 0 52 -58v-272q0 -50 -15 -87.5t-39 -57t-52.5 -31.5t-57.5 -14.5t-53 -2t-39 2.5l-15 3v113q66 -1 66 67v42h-23q-24 0 -39 13.5t-15 40.5zM478 53v183q0 58 54 58h177q51 0 51 -58v-272q0 -50 -15 -87.5t-39 -57t-53 -31.5t-57.5 -14.5 t-52.5 -2t-39 2.5l-15 3v113q66 -1 66 67v42h-23q-24 0 -39 13.5t-15 40.5z" />
<glyph unicode="&#x2022;" horiz-adv-x="632" d="M132 659v243q0 33 17.5 52t50.5 19h230q72 0 72 -71v-243q0 -66 -72 -66h-230q-31 0 -49.5 17.5t-18.5 48.5z" />
<glyph unicode="&#x2026;" horiz-adv-x="1652" d="M607 47v184q0 52 49 52h176q51 0 51 -52v-184q0 -47 -51 -47h-176q-22 0 -35.5 12.5t-13.5 34.5zM662 47v184q0 24 13 38t37 14h176q51 0 51 -52v-184q0 -47 -51 -47h-176q-22 0 -36 13t-14 34zM718 47v184q0 52 49 52h176q52 0 52 -52v-184q0 -47 -52 -47h-176 q-22 0 -35.5 12.5t-13.5 34.5z" />
<glyph unicode="&#x202f;" horiz-adv-x="383" />
<glyph unicode="&#x2039;" horiz-adv-x="729" d="M78 725l422 416l157 -155l-267 -261l272 -268l-152 -158z" />
<glyph unicode="&#x203a;" horiz-adv-x="729" d="M78 457l272 268l-267 261l158 155l421 -416l-432 -426z" />
<glyph unicode="&#x205f;" horiz-adv-x="479" />
<glyph unicode="&#x20ac;" horiz-adv-x="1263" d="M31 511v141l158 15v139l-158 16v133l158 19q0 35 0.5 58t5 69.5t13 79t26 79t41.5 79.5t63 68.5t87 57.5t116 36.5t149 14.5q95 0 260.5 -20t275.5 -53v-211q-300 31 -468 31q-58 0 -102 -7t-74 -17.5t-50.5 -32t-31.5 -41t-16.5 -54.5t-7 -62.5t-1.5 -74.5l479 -15v-139 l-479 -14v-139l479 -15v-141q-31 -1 -81 -2t-155.5 -3.5t-175 -5t-67.5 -3.5q0 -82 22 -137t63.5 -82.5t88 -38t109.5 -10.5q83 0 202 11.5t196 23.5l78 11v-204q-193 -83 -544 -83q-40 0 -78 3.5t-90 16.5t-96 34.5t-89 60.5t-76.5 90.5t-51.5 129.5t-20 174z" />
<glyph unicode="&#x2122;" horiz-adv-x="1443" d="M31 1334v165h575v-165h-193v-550h-187v550h-195zM641 784l78 715h194l123 -420l99 420h200l86 -715h-187l-38 378l-77 -378h-164l-96 377l-30 -377h-188z" />
<glyph unicode="&#xe000;" horiz-adv-x="1085" d="M0 0v1085h1085v-1085h-1085z" />
<glyph unicode="&#xfb03;" horiz-adv-x="2062" d="M31 868v185l203 34v183q0 43 7 83.5t27 85t52 76.5t86 53t125 21q159 0 286 -49v-171l-184 2q-16 0 -29.5 -1t-24 -6t-18.5 -8t-14.5 -13t-10.5 -14.5t-7 -19.5t-4.5 -20t-2.5 -24.5t-1.5 -25.5t-1.5 -29l-2 -123h458v82q0 188 121.5 312.5t323.5 128.5q90 1 252.5 -16.5 t223.5 -42.5v-170l-375 11q-49 2 -90 -7t-81.5 -32t-64 -73t-23.5 -122v-71l709 -20v-1067h-287v868h-424v-868h-286v868h-457v-868h-288v868h-198z" />
<glyph unicode="&#xfb04;" horiz-adv-x="2254" d="M31 868v185l203 34v183q0 43 7 83.5t27 85t52 76.5t86 53t125 21q159 0 286 -49v-171l-184 2q-32 1 -54 -7.5t-33.5 -19.5t-17.5 -35.5t-7 -43t-2 -55.5l-2 -123h464v93q0 428 403 428l610 -3v-1173q0 -77 11 -120.5t29 -61t54 -31.5q124 -43 138 -43v-176h-237 q-149 0 -215.5 87.5t-66.5 299.5v1004l-267 1q-91 0 -131.5 -45t-40.5 -167v-93h245v-219h-247v-868h-287v868h-462v-868h-288v868h-198z" />
</font>
</defs>
</svg>
